<?xml version="1.0" encoding="UTF-8"?>
<!DOCTYPE svg PUBLIC "-//W3C//DTD SVG 1.1//EN" "http://www.w3.org/Graphics/SVG/1.1/DTD/svg11.dtd">
<svg xmlns="http://www.w3.org/2000/svg" version="1.1" width="128px" height="128px" style="shape-rendering:geometricPrecision; text-rendering:geometricPrecision; image-rendering:optimizeQuality; fill-rule:evenodd; clip-rule:evenodd" xmlns:xlink="http://www.w3.org/1999/xlink">
<g><path style="opacity:1" fill="#a6ce3d" d="M -0.5,-0.5 C 42.1667,-0.5 84.8333,-0.5 127.5,-0.5C 127.5,42.1667 127.5,84.8333 127.5,127.5C 84.8333,127.5 42.1667,127.5 -0.5,127.5C -0.5,84.8333 -0.5,42.1667 -0.5,-0.5 Z"/></g>
<g><path style="opacity:1" fill="#c9e08c" d="M 5.5,7.5 C 8.5,7.5 11.5,7.5 14.5,7.5C 17.7829,15.9158 15.2829,21.5825 7,24.5C 6.5,24.3333 6,24.1667 5.5,24C 6.30806,23.6924 6.97473,23.1924 7.5,22.5C 4.25832,17.5626 3.59165,12.5626 5.5,7.5 Z"/></g>
<g><path style="opacity:1" fill="#c6de84" d="M 41.5,7.5 C 44.1667,7.5 46.8333,7.5 49.5,7.5C 49.3396,10.8835 49.673,14.2169 50.5,17.5C 49.7856,21.3734 47.4522,23.7067 43.5,24.5C 39.2955,20.4706 39.9622,17.304 45.5,15C 44.2068,14.51 42.8734,14.3433 41.5,14.5C 40.5615,12.0897 40.5615,9.75641 41.5,7.5 Z"/></g>
<g><path style="opacity:1" fill="#a7cf3f" d="M 6.5,9.5 C 7.87344,9.34332 9.20677,9.50999 10.5,10C 6.21854,12.9733 6.71854,14.8066 12,15.5C 13.1667,19.6667 11.6667,21.1667 7.5,20C 5.25589,16.6966 4.92256,13.1966 6.5,9.5 Z"/></g>
<g><path style="opacity:1" fill="#a7cf41" d="M 46.5,15.5 C 48.7099,16.4551 49.0432,17.9551 47.5,20C 45.5,20.6667 43.5,20.6667 41.5,20C 43.2395,18.483 44.9062,16.983 46.5,15.5 Z"/></g>
<g><path style="opacity:1" fill="#cae08d" d="M 23.5,7.5 C 29.4964,6.33272 31.9964,8.66606 31,14.5C 28.9838,15.9552 28.1505,17.9552 28.5,20.5C 29.9778,20.238 31.3112,20.5713 32.5,21.5C 29.2317,22.487 25.8984,22.8204 22.5,22.5C 22.1196,19.2084 23.4529,16.8751 26.5,15.5C 27.4656,13.604 27.7989,11.604 27.5,9.5C 25.6096,9.2965 24.1096,9.96317 23,11.5C 22.4209,10.0715 22.5876,8.7382 23.5,7.5 Z"/></g>
<g><path style="opacity:1" fill="#cce193" d="M 59.5,7.5 C 62.1873,7.33591 64.854,7.50258 67.5,8C 65.275,8.87593 63.275,10.0426 61.5,11.5C 70.7054,15.7152 70.7054,20.0485 61.5,24.5C 60.6895,22.3186 59.6895,19.8186 58.5,17C 59.256,13.8752 59.5893,10.7086 59.5,7.5 Z"/></g>
<g><path style="opacity:1" fill="#a8cf42" d="M 61.5,14.5 C 65.6772,13.8416 67.1772,15.5082 66,19.5C 64.3333,22.1667 62.6667,22.1667 61,19.5C 60.3603,17.735 60.5269,16.0683 61.5,14.5 Z"/></g>
<g><path style="opacity:1" fill="#c9e08d" d="M 77.5,7.5 C 79.1439,7.28649 80.6439,7.61983 82,8.5C 82.4988,12.4862 82.6655,16.4862 82.5,20.5C 83.675,20.281 84.675,20.6143 85.5,21.5C 83.5956,22.4091 81.7623,23.4091 80,24.5C 75.6968,21.8258 75.8635,20.4925 80.5,20.5C 80.5,16.8333 80.5,13.1667 80.5,9.5C 78.8212,9.71481 77.8212,9.04814 77.5,7.5 Z"/></g>
<g><path style="opacity:1" fill="#cbe190" d="M 114.5,7.5 C 117.394,7.04229 119.894,7.70896 122,9.5C 122.667,12.8333 122.667,16.1667 122,19.5C 119,23.5 116,23.5 113,19.5C 111.994,15.1985 112.494,11.1985 114.5,7.5 Z"/></g>
<g><path style="opacity:1" fill="#a7cf3f" d="M 115.5,14.5 C 119.485,14.6294 120.818,16.4628 119.5,20C 114.728,20.8104 113.395,18.9771 115.5,14.5 Z"/></g>
<g><path style="opacity:1" fill="#a8cf41" d="M 117.5,9.5 C 120.838,9.84933 121.838,11.516 120.5,14.5C 118.556,13.8108 116.556,13.3108 114.5,13C 115.71,11.9609 116.71,10.7942 117.5,9.5 Z"/></g>
<g><path style="opacity:1" fill="#cbe190" d="M 95.5,7.5 C 97.8568,7.33669 100.19,7.50335 102.5,8C 103.574,8.73869 104.241,9.73869 104.5,11C 104.044,14.1085 103.878,17.2751 104,20.5C 101.976,22.346 99.6431,23.6793 97,24.5C 96.3584,22.5056 95.1918,20.3389 93.5,18C 94.1284,14.4527 94.7951,10.9527 95.5,7.5 Z"/></g>
<g><path style="opacity:1" fill="#a9d044" d="M 96.5,14.5 C 102.559,13.8642 103.893,16.0308 100.5,21C 95.7854,21.0315 94.4521,18.8648 96.5,14.5 Z"/></g>
<g><path style="opacity:1" fill="#a6ce3c" d="M 96.5,9.5 C 98.5,9.5 100.5,9.5 102.5,9.5C 102.5,10.5 102.5,11.5 102.5,12.5C 100.5,12.5 98.5,12.5 96.5,12.5C 96.5,11.5 96.5,10.5 96.5,9.5 Z"/></g>
<g><path style="opacity:1" fill="#beda74" d="M 12.5,32.5 C 10.4727,32.3379 8.4727,32.5045 6.5,33C 11.4801,33.526 11.8134,35.026 7.5,37.5C 9.3316,38.0568 10.6649,39.0568 11.5,40.5C 9.62304,41.6246 7.7897,41.2912 6,39.5C 2.85585,32.145 5.02251,29.8117 12.5,32.5 Z"/></g>
<g><path style="opacity:1" fill="#cee296" d="M 12.5,32.5 C 13.0431,32.56 13.3764,32.8933 13.5,33.5C 10.785,35.5505 10.9517,37.2172 14,38.5C 15.1345,44.6877 12.6345,47.8543 6.5,48C 10.9269,46.927 12.5935,44.427 11.5,40.5C 10.6649,39.0568 9.3316,38.0568 7.5,37.5C 11.8134,35.026 11.4801,33.526 6.5,33C 8.4727,32.5045 10.4727,32.3379 12.5,32.5 Z"/></g>
<g><path style="opacity:1" fill="#cae08e" d="M 59.5,31.5 C 61.924,31.1924 64.2573,31.5258 66.5,32.5C 64.604,33.4656 62.604,33.7989 60.5,33.5C 60.5,34.8333 60.5,36.1667 60.5,37.5C 67.5012,37.6247 69.1679,40.7914 65.5,47C 63.6354,48.3014 61.6354,48.6347 59.5,48C 62.5524,47.1177 64.8858,45.2844 66.5,42.5C 59.6,41.6182 57.2667,37.9515 59.5,31.5 Z"/></g>
<g><path style="opacity:1" fill="#b8d766" d="M 78.5,32.5 C 80.6074,31.5318 82.9407,31.1984 85.5,31.5C 85.5,34.1667 85.5,36.8333 85.5,39.5C 83.544,37.8249 82.2107,38.1582 81.5,40.5C 80.5041,40.4142 79.6708,40.7476 79,41.5C 78.5439,40.2559 79.0439,39.4226 80.5,39C 79.6919,38.6924 79.0253,38.1924 78.5,37.5C 79.9466,34.6199 81.9466,33.2865 84.5,33.5C 82.604,32.5344 80.604,32.2011 78.5,32.5 Z"/></g>
<g><path style="opacity:1" fill="#cce193" d="M 113.5,31.5 C 116.482,31.1044 119.149,31.7711 121.5,33.5C 120.833,34.5 120.167,35.5 119.5,36.5C 123.907,44.1774 121.574,48.344 112.5,49C 113.665,47.9164 114.998,47.0831 116.5,46.5C 117.386,45.675 117.719,44.675 117.5,43.5C 115.335,43.8841 113.668,43.2174 112.5,41.5C 113.58,39.0038 114.914,36.6705 116.5,34.5C 115.271,33.7189 113.938,33.2189 112.5,33C 113.056,32.6174 113.389,32.1174 113.5,31.5 Z"/></g>
<g><path style="opacity:1" fill="#c7df87" d="M 95.5,31.5 C 98.3214,31.5387 100.988,32.2054 103.5,33.5C 102.833,34.5 102.167,35.5 101.5,36.5C 104.698,39.2965 105.365,42.6298 103.5,46.5C 100.874,47.4215 98.2069,48.4215 95.5,49.5C 95.1667,49.3333 94.8333,49.1667 94.5,49C 95.3279,48.0853 96.3279,47.4186 97.5,47C 93.6959,45.5057 94.0293,44.6724 98.5,44.5C 98.9167,41.9208 98.25,39.7542 96.5,38C 98.0368,36.8904 98.7035,35.3904 98.5,33.5C 97.1266,33.6567 95.7932,33.49 94.5,33C 95.056,32.6174 95.3893,32.1174 95.5,31.5 Z"/></g>
<g><path style="opacity:1" fill="#cbe191" d="M 42.5,31.5 C 44.8333,31.5 47.1667,31.5 49.5,31.5C 49.3831,36.1238 49.5498,40.7904 50,45.5C 47.2628,46.6105 44.4294,46.7772 41.5,46C 40.1955,45.196 39.5288,44.0293 39.5,42.5C 40.3387,38.8115 41.3387,35.1449 42.5,31.5 Z"/></g>
<g><path style="opacity:1" fill="#a6ce3e" d="M 43.5,39.5 C 48.1585,39.0146 49.4919,40.848 47.5,45C 42.7282,45.8104 41.3948,43.9771 43.5,39.5 Z"/></g>
<g><path style="opacity:1" fill="#a7cf3e" d="M 45.5,33.5 C 46.5,33.5 47.5,33.5 48.5,33.5C 48.5,34.8333 48.5,36.1667 48.5,37.5C 43.8308,38.0103 42.8308,36.6769 45.5,33.5 Z"/></g>
<g><path style="opacity:1" fill="#cce294" d="M 78.5,32.5 C 80.604,32.2011 82.604,32.5344 84.5,33.5C 81.9466,33.2865 79.9466,34.6199 78.5,37.5C 79.0253,38.1924 79.6919,38.6924 80.5,39C 79.0439,39.4226 78.5439,40.2559 79,41.5C 79.6708,40.7476 80.5041,40.4142 81.5,40.5C 82.2107,38.1582 83.544,37.8249 85.5,39.5C 85.7564,41.7925 85.4231,43.9592 84.5,46C 81.854,46.4974 79.1873,46.6641 76.5,46.5C 76.8183,42.5603 76.8183,38.7269 76.5,35C 76.6387,33.699 77.3054,32.8656 78.5,32.5 Z"/></g>
<g><path style="opacity:1" fill="#a8cf41" d="M 81.5,40.5 C 82.5,40.5 83.5,40.5 84.5,40.5C 85.0853,43.2605 84.0853,44.9272 81.5,45.5C 79.9996,45.5472 78.9996,44.8805 78.5,43.5C 79.7701,42.7124 80.7701,41.7124 81.5,40.5 Z"/></g>
<g><path style="opacity:1" fill="#cce293" d="M 23.5,44.5 C 22.2037,40.6315 22.2037,36.6315 23.5,32.5C 26.6116,31.0171 29.4449,31.3504 32,33.5C 36.3494,42.8759 33.5161,47.7092 23.5,48C 24.6843,46.8545 24.6843,45.6879 23.5,44.5 Z"/></g>
<g><path style="opacity:1" fill="#a8cf41" d="M 23.5,44.5 C 23.2865,42.8561 23.6198,41.3561 24.5,40C 26.4727,39.5045 28.4727,39.3379 30.5,39.5C 30.6192,44.722 28.2859,46.3887 23.5,44.5 Z"/></g>
<g><path style="opacity:1" fill="#aad045" d="M 24.5,33.5 C 26.5273,33.3379 28.5273,33.5045 30.5,34C 31.3366,35.0113 31.67,36.1779 31.5,37.5C 29.1667,37.5 26.8333,37.5 24.5,37.5C 24.5,36.1667 24.5,34.8333 24.5,33.5 Z"/></g>
<g><path style="opacity:1" fill="#fdfdfa" d="M 75.5,59.5 C 74.7656,58.1225 74.0989,56.6225 73.5,55C 74.5,54.3333 75.5,54.3333 76.5,55C 75.6198,56.3561 75.2865,57.8561 75.5,59.5 Z"/></g>
<g><path style="opacity:1" fill="#f6faeb" d="M 75.5,59.5 C 76.1635,61.0419 76.8302,62.7086 77.5,64.5C 79.1031,61.3638 79.4365,58.1972 78.5,55C 82.1667,54.3333 85.8333,54.3333 89.5,55C 88.4286,61.3619 86.7619,67.5286 84.5,73.5C 83.093,69.908 81.9263,66.2413 81,62.5C 80.1288,65.9289 78.9621,69.2622 77.5,72.5C 76.914,72.2907 76.414,71.9574 76,71.5C 75.5012,67.5138 75.3345,63.5138 75.5,59.5 Z"/></g>
<g><path style="opacity:1" fill="#f1f7df" d="M 94.5,54.5 C 99.3167,53.8901 101.317,54.2235 100.5,55.5C 100.5,60.8333 100.5,66.1667 100.5,71.5C 101.675,71.281 102.675,71.6143 103.5,72.5C 100.167,73.8333 96.8333,73.8333 93.5,72.5C 94.6888,71.5713 96.0222,71.238 97.5,71.5C 97.5,66.5 97.5,61.5 97.5,56.5C 95.8212,56.7148 94.8212,56.0481 94.5,54.5 Z"/></g>
<g><path style="opacity:1" fill="#abd148" d="M 82.5,55.5 C 83.8221,55.33 84.9887,55.6634 86,56.5C 86.6146,59.0451 86.1146,61.3785 84.5,63.5C 83.4512,60.9205 82.7845,58.2538 82.5,55.5 Z"/></g>
<g><path style="opacity:1" fill="#f5f9e8" d="M 9.5,53.5 C 10.4959,53.4142 11.3292,53.7476 12,54.5C 13.8686,59.7724 15.5353,65.1057 17,70.5C 17.7504,71.1258 18.5838,71.6258 19.5,72C 14.2042,74.5376 12.5376,73.0376 14.5,67.5C 8.59809,66.0743 6.59809,68.0743 8.5,73.5C 6.39605,73.7989 4.39605,73.4656 2.5,72.5C 4.19652,71.6364 5.36319,70.3031 6,68.5C 7.01873,63.4275 8.1854,58.4275 9.5,53.5 Z"/></g>
<g><path style="opacity:1" fill="#acd14a" d="M 10.5,57.5 C 11.4131,59.9333 12.4131,62.4333 13.5,65C 11.6815,65.7828 10.3482,65.2828 9.5,63.5C 10.3482,61.5914 10.6816,59.5914 10.5,57.5 Z"/></g>
<g><path style="opacity:1" fill="#d8e9a9" d="M 67.5,54.5 C 69.1361,55.7489 70.3028,57.4156 71,59.5C 71.8045,62.6965 71.6378,65.6965 70.5,68.5C 69.6829,66.0314 69.1829,63.3647 69,60.5C 68.7265,58.6711 67.8932,57.1711 66.5,56C 67.056,55.6174 67.3893,55.1174 67.5,54.5 Z"/></g>
<g><path style="opacity:1" fill="#fafcf4" d="M 110.5,54.5 C 111.822,54.33 112.989,54.6634 114,55.5C 115.674,59.2012 117.341,62.8678 119,66.5C 119.979,62.5768 119.479,58.9101 117.5,55.5C 119.647,54.1647 121.647,54.3314 123.5,56C 121.895,61.5754 120.895,67.4087 120.5,73.5C 117.762,69.0271 115.262,64.3604 113,59.5C 112.333,63.1667 112.333,66.8333 113,70.5C 113.925,71.0465 114.758,71.7132 115.5,72.5C 113.5,73.8333 111.5,73.8333 109.5,72.5C 112.086,67.0591 112.086,61.5591 109.5,56C 110.056,55.6174 110.389,55.1174 110.5,54.5 Z"/></g>
<g><path style="opacity:1" fill="#f5f9e8" d="M 44.5,55.5 C 47.0644,55.9787 49.5644,56.6453 52,57.5C 52.8077,59.5787 52.641,61.5787 51.5,63.5C 49.8998,61.3104 48.0664,59.3104 46,57.5C 40.0029,62.8063 40.1696,67.8063 46.5,72.5C 48.1667,71.5 49.5,70.1667 50.5,68.5C 52.8358,70.1183 52.8358,71.9517 50.5,74C 47.8333,74.6667 45.1667,74.6667 42.5,74C 37.919,67.038 38.5857,60.8713 44.5,55.5 Z"/></g>
<g><path style="opacity:1" fill="#f7faed" d="M 26.5,55.5 C 29.1272,56.0916 31.7938,56.4249 34.5,56.5C 34.8076,58.924 34.4742,61.2573 33.5,63.5C 32.1825,61.249 30.5158,59.249 28.5,57.5C 23.9607,61.0993 22.9607,65.4326 25.5,70.5C 26.4383,71.5529 27.605,72.2196 29,72.5C 30.2502,70.2942 32.0835,68.9609 34.5,68.5C 34.1326,74.1558 31.1326,75.9891 25.5,74C 25,73.5 24.5,73 24,72.5C 21.4225,66.2358 22.2558,60.5691 26.5,55.5 Z"/></g>
<g><path style="opacity:1" fill="#eff5da" d="M 67.5,54.5 C 67.3893,55.1174 67.056,55.6174 66.5,56C 67.8932,57.1711 68.7265,58.6711 69,60.5C 69.1829,63.3647 69.6829,66.0314 70.5,68.5C 70.2371,72.5929 68.0705,74.2596 64,73.5C 60.0655,73.9044 57.3989,72.2377 56,68.5C 53.5331,58.4764 57.3665,53.8098 67.5,54.5 Z"/></g>
<g><path style="opacity:1" fill="#a8cf42" d="M 61.5,55.5 C 65.8761,56.212 67.8761,58.8787 67.5,63.5C 67.828,67.5273 66.1613,70.194 62.5,71.5C 61.3527,71.1822 60.5194,70.5156 60,69.5C 59.0366,64.5795 59.5366,59.9129 61.5,55.5 Z"/></g>
<g><path style="opacity:1" fill="#c9df8b" d="M 58.5,81.5 C 61.8984,81.1796 65.2317,81.513 68.5,82.5C 67.6171,83.548 66.9504,84.7147 66.5,86C 69.5848,93.164 67.2514,97.164 59.5,98C 60.4162,97.6258 61.2496,97.1258 62,96.5C 62.2868,94.1093 62.7868,91.7759 63.5,89.5C 59.7234,88.0039 59.7234,86.3373 63.5,84.5C 61.9936,83.2528 60.4936,83.2528 59,84.5C 58.5172,83.552 58.3505,82.552 58.5,81.5 Z"/></g>
<g><path style="opacity:1" fill="#cbe190" d="M 77.5,86.5 C 76.1991,85.1155 76.1991,83.6155 77.5,82C 80.5876,81.1533 83.4209,81.6533 86,83.5C 86.1393,87.468 85.9727,91.468 85.5,95.5C 75.7184,98.7202 73.0517,95.7202 77.5,86.5 Z"/></g>
<g><path style="opacity:1" fill="#a9d044" d="M 77.5,86.5 C 77.4142,85.5041 77.7476,84.6708 78.5,84C 80.4727,83.5045 82.4727,83.3379 84.5,83.5C 84.67,84.8221 84.3366,85.9887 83.5,87C 81.4546,87.4901 79.4546,87.3235 77.5,86.5 Z"/></g>
<g><path style="opacity:1" fill="#cbe191" d="M 23.5,81.5 C 26.5,81.5 29.5,81.5 32.5,81.5C 32.6751,85.5406 32.8418,89.5406 33,93.5C 30.4518,96.5264 27.2851,98.0264 23.5,98C 25.9915,96.7508 25.8249,95.5842 23,94.5C 22.8333,93.5 22.6667,92.5 22.5,91.5C 22.8232,88.149 23.1565,84.8157 23.5,81.5 Z"/></g>
<g><path style="opacity:1" fill="#a7cf3f" d="M 24.5,83.5 C 29.4214,83.1349 29.7547,84.1349 25.5,86.5C 24.6143,85.675 24.281,84.675 24.5,83.5 Z"/></g>
<g><path style="opacity:1" fill="#cde295" d="M 113.5,81.5 C 116.685,81.0196 119.519,81.6863 122,83.5C 122.667,87.1667 122.667,90.8333 122,94.5C 118.381,97.3428 115.048,97.0095 112,93.5C 112.006,89.4493 112.506,85.4493 113.5,81.5 Z"/></g>
<g><path style="opacity:1" fill="#a8cf42" d="M 114.5,83.5 C 116.5,83.5 118.5,83.5 120.5,83.5C 120.5,84.8333 120.5,86.1667 120.5,87.5C 118.409,87.6816 116.409,87.3482 114.5,86.5C 113.438,85.5754 113.438,84.5754 114.5,83.5 Z"/></g>
<g><path style="opacity:1" fill="#a8cf41" d="M 25.5,88.5 C 30.3481,88.7745 31.6814,91.1079 29.5,95.5C 23.6678,95.3797 22.3344,93.0463 25.5,88.5 Z"/></g>
<g><path style="opacity:1" fill="#a8cf41" d="M 114.5,88.5 C 118.73,87.8313 120.563,89.498 120,93.5C 114.82,95.3128 112.987,93.6461 114.5,88.5 Z"/></g>
<g><path style="opacity:1" fill="#c6de86" d="M 45.5,81.5 C 49.7567,80.765 50.7567,82.265 48.5,86C 48.396,88.1454 49.0627,89.9788 50.5,91.5C 49.7175,95.5065 47.3842,97.0065 43.5,96C 39.904,92.1492 39.7374,87.9825 43,83.5C 43.9947,82.9341 44.828,82.2674 45.5,81.5 Z"/></g>
<g><path style="opacity:1" fill="#a7cf40" d="M 82.5,89.5 C 85.0764,89.7218 85.9098,91.0551 85,93.5C 82.8615,94.7691 80.6948,94.7691 78.5,93.5C 79.8665,92.16 81.1999,90.8267 82.5,89.5 Z"/></g>
<g><path style="opacity:1" fill="#c6de84" d="M 99.5,81.5 C 100.906,83.8381 102.239,86.3381 103.5,89C 103.167,89.3333 102.833,89.6667 102.5,90C 103.308,90.3076 103.975,90.8076 104.5,91.5C 103.248,93.0009 102.248,94.6675 101.5,96.5C 99.9255,97.6309 98.2588,97.7975 96.5,97C 99.4471,96.8882 100.78,95.3882 100.5,92.5C 98.5,92.5 96.5,92.5 94.5,92.5C 95.7115,88.6233 97.3781,84.9566 99.5,81.5 Z"/></g>
<g><path style="opacity:1" fill="#c5de83" d="M 6.5,81.5 C 13.203,80.53 15.5363,83.1966 13.5,89.5C 10.5221,89.9932 8.18876,91.4932 6.5,94C 10.1507,95.123 12.6507,93.9563 14,90.5C 14.0343,92.1796 14.201,93.6796 14.5,95C 12.5566,96.5555 10.3899,97.7221 8,98.5C 4.09749,96.3895 3.59749,93.7228 6.5,90.5C 5.17504,87.4692 5.17504,84.4692 6.5,81.5 Z"/></g>
<g><path style="opacity:1" fill="#a7cf40" d="M 6.5,83.5 C 8.5,83.5 10.5,83.5 12.5,83.5C 12.8589,87.9872 11.0256,89.6539 7,88.5C 6.50649,86.8659 6.33982,85.1992 6.5,83.5 Z"/></g>
<g><path style="opacity:1" fill="#c8e08a" d="M 96.5,105.5 C 102.74,104.908 105.407,107.741 104.5,114C 104.702,120.087 101.702,122.753 95.5,122C 95.8333,121.667 96.1667,121.333 96.5,121C 94.8757,119.883 93.8757,118.383 93.5,116.5C 93.8606,112.557 94.8606,108.89 96.5,105.5 Z"/></g>
<g><path style="opacity:1" fill="#a8cf41" d="M 96.5,107.5 C 98.5,107.5 100.5,107.5 102.5,107.5C 102.5,108.833 102.5,110.167 102.5,111.5C 100.473,111.662 98.4727,111.495 96.5,111C 95.3157,109.855 95.3157,108.688 96.5,107.5 Z"/></g>
<g><path style="opacity:1" fill="#c8df8a" d="M 6.5,105.5 C 15.3805,106.476 16.7138,110.143 10.5,116.5C 10.7814,118.778 12.1148,119.945 14.5,120C 11.1832,120.498 7.8499,120.665 4.5,120.5C 5.95439,117.215 7.62105,114.048 9.5,111C 9.16667,109.833 8.83333,108.667 8.5,107.5C 4.20531,110.354 3.53864,109.688 6.5,105.5 Z"/></g>
<g><path style="opacity:1" fill="#cde194" d="M 114.5,112.5 C 115.679,114.507 115.179,114.84 113,113.5C 111.406,105.392 114.24,103.392 121.5,107.5C 119.493,109.807 119.493,112.307 121.5,115C 121.586,120.584 118.92,122.917 113.5,122C 116.868,121.157 119.202,119.157 120.5,116C 119.571,113.091 117.571,111.925 114.5,112.5 Z"/></g>
<g><path style="opacity:1" fill="#a9cf43" d="M 114.5,112.5 C 113.549,111.081 113.216,109.415 113.5,107.5C 115.199,107.34 116.866,107.506 118.5,108C 116.959,109.371 115.625,110.871 114.5,112.5 Z"/></g>
<g><path style="opacity:1" fill="#cae08e" d="M 30.5,108.5 C 31.9891,112.236 32.6558,116.236 32.5,120.5C 30.2133,120.724 28.0466,121.391 26,122.5C 21.1002,118.77 21.6002,116.103 27.5,114.5C 28.463,113.637 28.463,112.97 27.5,112.5C 26.2638,113.246 24.9305,113.579 23.5,113.5C 21.4316,107.226 23.7649,104.56 30.5,105.5C 30.5,106.5 30.5,107.5 30.5,108.5 Z"/></g>
<g><path style="opacity:1" fill="#abd148" d="M 30.5,108.5 C 30.5,109.5 30.5,110.5 30.5,111.5C 28.8333,111.5 27.1667,111.5 25.5,111.5C 25.5,110.167 25.5,108.833 25.5,107.5C 27.2915,107.366 28.9582,107.699 30.5,108.5 Z"/></g>
<g><path style="opacity:1" fill="#c7df87" d="M 41.5,105.5 C 43.924,105.192 46.2573,105.526 48.5,106.5C 47.174,109.875 47.8406,112.875 50.5,115.5C 49.5329,120.637 46.5329,122.803 41.5,122C 42.5634,120.812 43.8967,120.312 45.5,120.5C 45.5,119.5 45.5,118.5 45.5,117.5C 43.3352,117.884 41.6685,117.217 40.5,115.5C 41.4173,112.242 41.7507,108.909 41.5,105.5 Z"/></g>
<g><path style="opacity:1" fill="#a9d044" d="M 27.5,114.5 C 28.4959,114.586 29.3292,114.252 30,113.5C 31.4502,118.885 29.6169,120.552 24.5,118.5C 25.5244,117.148 26.5244,115.815 27.5,114.5 Z"/></g>
<g><path style="opacity:1" fill="#a7cf3f" d="M 95.5,114.5 C 97.7131,115.605 99.8797,115.605 102,114.5C 102.729,119.45 100.895,120.95 96.5,119C 95.6198,117.644 95.2865,116.144 95.5,114.5 Z"/></g>
<g><path style="opacity:1" fill="#c8df88" d="M 58.5,105.5 C 61.7766,105.216 64.9433,105.549 68,106.5C 66.6727,109.214 65.8394,112.214 65.5,115.5C 66.552,115.351 67.552,115.517 68.5,116C 66.5001,117.622 64.6667,119.455 63,121.5C 62.5065,119.866 62.3398,118.199 62.5,116.5C 61.0222,116.762 59.6888,116.429 58.5,115.5C 59.5804,113.004 60.9138,110.67 62.5,108.5C 61.3493,107.269 60.1827,107.269 59,108.5C 58.5172,107.552 58.3505,106.552 58.5,105.5 Z"/></g>
<g><path style="opacity:1" fill="#c9df8b" d="M 76.5,105.5 C 79.7766,105.216 82.9433,105.549 86,106.5C 85.3333,110.5 85.3333,114.5 86,118.5C 85.0477,112.737 83.7143,112.403 82,117.5C 81.51,116.207 81.3433,114.873 81.5,113.5C 79.0523,113.085 77.7189,114.085 77.5,116.5C 78.6611,118.387 79.8278,120.054 81,121.5C 75.3285,119.978 74.1619,116.811 77.5,112C 76.5769,109.959 76.2436,107.792 76.5,105.5 Z"/></g>
<g><path style="opacity:1" fill="#a7cf3f" d="M 78.5,107.5 C 80.1667,107.5 81.8333,107.5 83.5,107.5C 83.2993,111.35 81.4659,112.35 78,110.5C 77.5304,109.423 77.6971,108.423 78.5,107.5 Z"/></g>
</svg>
