<?xml version="1.0" encoding="UTF-8"?>
<!DOCTYPE svg PUBLIC "-//W3C//DTD SVG 1.1//EN" "http://www.w3.org/Graphics/SVG/1.1/DTD/svg11.dtd">
<svg xmlns="http://www.w3.org/2000/svg" version="1.1" width="24px" height="24px" style="shape-rendering:geometricPrecision; text-rendering:geometricPrecision; image-rendering:optimizeQuality; fill-rule:evenodd; clip-rule:evenodd" xmlns:xlink="http://www.w3.org/1999/xlink">
<g><path style="opacity:0.567" fill="#fefefe" d="M 10.5,-0.5 C 12.8333,-0.5 15.1667,-0.5 17.5,-0.5C 19.3848,1.85008 19.7181,4.35008 18.5,7C 19.448,7.48278 20.448,7.64945 21.5,7.5C 19.5287,13.4457 16.5287,18.779 12.5,23.5C 9.83333,23.5 7.16667,23.5 4.5,23.5C 1.96399,20.9928 1.13065,17.9928 2,14.5C 4.32506,9.17998 7.1584,4.17998 10.5,-0.5 Z M 12.5,2.5 C 13.5,2.5 14.5,2.5 15.5,2.5C 15.628,4.65472 15.128,6.65472 14,8.5C 13.5172,7.55198 13.3505,6.55198 13.5,5.5C 12.448,5.64945 11.448,5.48278 10.5,5C 11.3805,4.2917 12.0472,3.45837 12.5,2.5 Z"/></g>
</svg>
