<?xml version="1.0" encoding="UTF-8"?>
<!DOCTYPE svg PUBLIC "-//W3C//DTD SVG 1.1//EN" "http://www.w3.org/Graphics/SVG/1.1/DTD/svg11.dtd">
<svg xmlns="http://www.w3.org/2000/svg" version="1.1" width="24px" height="24px" style="shape-rendering:geometricPrecision; text-rendering:geometricPrecision; image-rendering:optimizeQuality; fill-rule:evenodd; clip-rule:evenodd" xmlns:xlink="http://www.w3.org/1999/xlink">
<g><path style="opacity:0.697" fill="#fefefe" d="M 9.5,-0.5 C 12.1667,-0.5 14.8333,-0.5 17.5,-0.5C 18.7102,2.73682 19.7102,6.07016 20.5,9.5C 21.4168,10.1272 22.4168,10.4606 23.5,10.5C 23.5,14.8333 23.5,19.1667 23.5,23.5C 17.5,23.5 11.5,23.5 5.5,23.5C 4.74008,19.9186 4.24008,16.2519 4,12.5C 3.75083,13.624 3.25083,14.624 2.5,15.5C 1.06517,14.0531 0.0651691,12.3864 -0.5,10.5C -0.5,7.83333 -0.5,5.16667 -0.5,2.5C 3.04772,1.86993 6.38105,0.86993 9.5,-0.5 Z M 13.5,4.5 C 15.337,4.63945 15.6704,5.30612 14.5,6.5C 13.7025,6.04311 13.3691,5.37644 13.5,4.5 Z M 7.5,17.5 C 12.1667,17.5 16.8333,17.5 21.5,17.5C 21.5,18.8333 21.5,20.1667 21.5,21.5C 16.8333,21.5 12.1667,21.5 7.5,21.5C 7.5,20.1667 7.5,18.8333 7.5,17.5 Z"/></g>
</svg>
