<?xml version="1.0" encoding="UTF-8"?>
<!DOCTYPE svg PUBLIC "-//W3C//DTD SVG 1.1//EN" "http://www.w3.org/Graphics/SVG/1.1/DTD/svg11.dtd">
<svg xmlns="http://www.w3.org/2000/svg" version="1.1" width="128px" height="128px" style="shape-rendering:geometricPrecision; text-rendering:geometricPrecision; image-rendering:optimizeQuality; fill-rule:evenodd; clip-rule:evenodd" xmlns:xlink="http://www.w3.org/1999/xlink">
<g><path style="opacity:0.862" fill="#fdfefb" d="M 53.5,1.5 C 81.5543,-1.38706 103.054,8.94627 118,32.5C 131.649,61.9079 127.149,88.0746 104.5,111C 83.6257,126.784 60.959,129.784 36.5,120C 8.26711,104.352 -2.89955,80.5183 3,48.5C 10.416,22.58 27.2493,6.91338 53.5,1.5 Z"/></g>
<g><path style="opacity:1" fill="#a8cf41" d="M 115.5,39.5 C 114.411,41.1171 112.744,41.9504 110.5,42C 109.167,44.3333 109.167,46.6667 110.5,49C 111.793,49.49 113.127,49.6567 114.5,49.5C 114.351,50.552 114.517,51.552 115,52.5C 115.44,50.9238 116.273,49.5904 117.5,48.5C 116.265,46.6837 116.265,45.017 117.5,43.5C 122.784,56.8188 122.784,70.1521 117.5,83.5C 114.982,82.3063 114.982,81.1396 117.5,80C 115.709,77.8938 115.042,75.3938 115.5,72.5C 113.801,72.3398 112.134,72.5065 110.5,73C 111.308,73.3076 111.975,73.8076 112.5,74.5C 111.627,76.4134 110.627,78.2467 109.5,80C 110.328,80.9147 111.328,81.5814 112.5,82C 110.699,82.3173 110.366,82.984 111.5,84C 113.382,84.1981 115.048,84.6981 116.5,85.5C 106.006,108.435 88.0065,120.435 62.5,121.5C 55.1135,120.96 48.1135,119.294 41.5,116.5C 45.6581,113.867 46.3248,110.534 43.5,106.5C 43.9767,105.522 44.6433,104.689 45.5,104C 43.1902,103.503 40.8568,103.337 38.5,103.5C 37.4883,108.317 39.155,110.15 43.5,109C 42.8333,109.333 42.1667,109.667 41.5,110C 44.2027,112.725 43.5361,114.559 39.5,115.5C 36.6689,114.921 34.3356,113.588 32.5,111.5C 33.2084,104.199 30.2084,101.865 23.5,104.5C 16.8266,98.4964 12.1599,91.1631 9.5,82.5C 10.5676,81.5655 11.901,81.2322 13.5,81.5C 13.281,82.675 13.6143,83.675 14.5,84.5C 15.3539,83.0521 16.3539,81.7187 17.5,80.5C 15.0087,79.4593 15.0087,78.6259 17.5,78C 16.0798,76.47 15.0798,74.6367 14.5,72.5C 13.6667,73.5 12.8333,74.5 12,75.5C 11.6827,73.6992 11.016,73.3659 10,74.5C 9.80912,76.7078 9.30912,78.7078 8.5,80.5C 4.28125,68.0229 4.61459,55.6896 9.5,43.5C 11.3176,41.9219 12.3176,42.4219 12.5,45C 11.2524,47.4097 10.2524,49.9097 9.5,52.5C 11.8568,52.6633 14.1902,52.4966 16.5,52C 15.552,51.5172 14.552,51.3505 13.5,51.5C 13.2267,49.549 13.8934,48.049 15.5,47C 12.8333,45.3333 12.8333,43.6667 15.5,42C 13.8659,41.5065 12.1992,41.3398 10.5,41.5C 16.5,26.8333 26.8333,16.5 41.5,10.5C 42.4972,10.4701 43.1639,10.9701 43.5,12C 42.392,14.1124 40.892,15.9458 39,17.5C 38.5172,18.448 38.3505,19.448 38.5,20.5C 39.8333,20.5 41.1667,20.5 42.5,20.5C 43.5,16.5 44.5,12.5 45.5,8.5C 72.1032,1.93587 93.9365,9.26921 111,30.5C 113.038,33.2432 114.538,36.2432 115.5,39.5 Z"/></g>
<g><path style="opacity:1" fill="#b8d864" d="M 45.5,8.5 C 44.5,12.5 43.5,16.5 42.5,20.5C 41.1667,20.5 39.8333,20.5 38.5,20.5C 38.3505,19.448 38.5172,18.448 39,17.5C 40.892,15.9458 42.392,14.1124 43.5,12C 43.1639,10.9701 42.4972,10.4701 41.5,10.5C 42.6715,9.65536 44.0048,8.98869 45.5,8.5 Z"/></g>
<g><path style="opacity:1" fill="#b5d65e" d="M 67.5,8.5 C 73.9136,8.24271 74.5803,9.40938 69.5,12C 76.3284,15.5188 76.1617,18.6855 69,21.5C 68.5,21.3333 68,21.1667 67.5,21C 67.6295,17.0451 67.6295,12.8784 67.5,8.5 Z"/></g>
<g><path style="opacity:1" fill="#b4d65c" d="M 24.5,24.5 C 26.8333,24.5 29.1667,24.5 31.5,24.5C 30.3532,27.4999 30.1866,30.4999 31,33.5C 29.9705,36.8753 27.8039,38.0419 24.5,37C 26.7112,35.4178 28.0446,33.2511 28.5,30.5C 27.6086,29.4104 26.6086,29.4104 25.5,30.5C 24.5344,28.604 24.2011,26.604 24.5,24.5 Z"/></g>
<g><path style="opacity:1" fill="#b6d761" d="M 81.5,24.5 C 88.5027,23.6727 91.0027,26.6727 89,33.5C 87.1201,36.1924 84.6201,37.3591 81.5,37C 82.1667,36.6667 82.8333,36.3333 83.5,36C 81.9926,35.1627 81.4926,33.9961 82,32.5C 83.1096,34.0368 84.6096,34.7035 86.5,34.5C 86.9783,31.7224 85.9783,29.7224 83.5,28.5C 84.6293,26.4706 84.1293,26.1373 82,27.5C 81.5172,26.552 81.3505,25.552 81.5,24.5 Z"/></g>
<g><path style="opacity:1" fill="#b5d75e" d="M 56.5,24.5 C 57.7562,24.4614 58.7562,24.9614 59.5,26C 58.8263,27.7506 58.493,29.4173 58.5,31C 59.3081,31.3076 59.9747,31.8076 60.5,32.5C 59.2242,34.8498 57.3909,36.5164 55,37.5C 54.5,37.3333 54,37.1667 53.5,37C 57.6479,35.1338 57.4813,33.6338 53,32.5C 52.1487,29.947 52.482,27.6137 54,25.5C 55.22,27.8572 56.0533,27.5239 56.5,24.5 Z"/></g>
<g><path style="opacity:1" fill="#b6d760" d="M 115.5,39.5 C 116.674,40.5137 117.34,41.847 117.5,43.5C 116.265,45.017 116.265,46.6837 117.5,48.5C 116.273,49.5904 115.44,50.9238 115,52.5C 114.517,51.552 114.351,50.552 114.5,49.5C 113.127,49.6567 111.793,49.49 110.5,49C 109.167,46.6667 109.167,44.3333 110.5,42C 112.744,41.9504 114.411,41.1171 115.5,39.5 Z"/></g>
<g><path style="opacity:1" fill="#bad969" d="M 10.5,41.5 C 12.1992,41.3398 13.8659,41.5065 15.5,42C 12.8333,43.6667 12.8333,45.3333 15.5,47C 13.8934,48.049 13.2267,49.549 13.5,51.5C 14.552,51.3505 15.552,51.5172 16.5,52C 14.1902,52.4966 11.8568,52.6633 9.5,52.5C 10.2524,49.9097 11.2524,47.4097 12.5,45C 12.3176,42.4219 11.3176,41.9219 9.5,43.5C 9.32842,42.5084 9.66175,41.8417 10.5,41.5 Z"/></g>
<g><path style="opacity:1" fill="#b5d75e" d="M 24.5,41.5 C 26.1992,41.3398 27.8659,41.5065 29.5,42C 30.2272,44.124 30.8938,46.2906 31.5,48.5C 29.6652,49.4277 29.3318,50.5944 30.5,52C 28.3225,53.2022 25.9892,53.7022 23.5,53.5C 23.8073,50.1011 24.8073,46.9345 26.5,44C 25.5509,43.3828 24.7175,43.5494 24,44.5C 23.5304,43.4232 23.6971,42.4232 24.5,41.5 Z"/></g>
<g><path style="opacity:1" fill="#b5d65d" d="M 53.5,41.5 C 56.3641,41.0642 58.6975,41.8975 60.5,44C 60.036,46.405 59.8693,48.905 60,51.5C 58.9887,52.3366 57.8221,52.67 56.5,52.5C 56.5,51.5 56.5,50.5 56.5,49.5C 54.8762,49.3601 53.7096,50.0267 53,51.5C 52.6667,51.1667 52.3333,50.8333 52,50.5C 53.3982,47.6227 53.8982,44.6227 53.5,41.5 Z"/></g>
<g><path style="opacity:1" fill="#b9d966" d="M 95.5,42.5 C 97.6934,41.2031 100.027,41.2031 102.5,42.5C 100.064,45.8223 100.064,48.989 102.5,52C 100.5,52.6667 98.5,52.6667 96.5,52C 98.3444,49.1963 99.0111,46.0297 98.5,42.5C 97.5,42.5 96.5,42.5 95.5,42.5 Z"/></g>
<g><path style="opacity:1" fill="#fbfdf7" d="M 37.5,57.5 C 38.9464,56.3871 40.6131,56.2204 42.5,57C 40.4963,59.8408 39.9963,63.0074 41,66.5C 42.3561,67.3802 43.8561,67.7135 45.5,67.5C 46.0447,63.8284 46.3781,64.1617 46.5,68.5C 43.4816,68.6646 40.4816,68.498 37.5,68C 38.7201,66.4747 39.3868,64.6413 39.5,62.5C 39.4439,60.3603 38.7773,58.6936 37.5,57.5 Z"/></g>
<g><path style="opacity:1" fill="#f7faed" d="M 109.5,57.5 C 110.251,56.4265 111.251,56.2599 112.5,57C 113.402,59.2016 114.402,61.3683 115.5,63.5C 116.91,61.0508 116.576,58.8841 114.5,57C 115.833,56.3333 117.167,56.3333 118.5,57C 117.864,60.7896 117.197,64.6229 116.5,68.5C 114.529,65.7644 113.029,62.7644 112,59.5C 111.013,62.6967 111.513,65.5301 113.5,68C 112.167,68.6667 110.833,68.6667 109.5,68C 110.82,64.3987 110.82,60.8987 109.5,57.5 Z"/></g>
<g><path style="opacity:1" fill="#c8e187" d="M 75.5,59.5 C 76.9171,62.3404 76.5838,65.007 74.5,67.5C 74.0618,67.5654 73.7284,67.3988 73.5,67C 74.1233,64.3927 74.79,61.8927 75.5,59.5 Z"/></g>
<g><path style="opacity:1" fill="#f1f7e0" d="M 96.5,57.5 C 98.2884,56.3775 100.288,56.2109 102.5,57C 101.28,58.5253 100.613,60.3587 100.5,62.5C 100.613,64.6413 101.28,66.4747 102.5,68C 100.5,68.6667 98.5,68.6667 96.5,68C 97.7201,66.4747 98.3868,64.6413 98.5,62.5C 98.4439,60.3603 97.7773,58.6936 96.5,57.5 Z"/></g>
<g><path style="opacity:1" fill="#eef5da" d="M 8.5,57.5 C 11.2301,56.1834 14.0635,56.1834 17,57.5C 17.3924,60.1879 17.8924,62.8546 18.5,65.5C 18.3918,66.4419 18.0585,67.2753 17.5,68C 14.5,68.6667 11.5,68.6667 8.5,68C 9.72012,66.4747 10.3868,64.6413 10.5,62.5C 10.4439,60.3603 9.77725,58.6936 8.5,57.5 Z"/></g>
<g><path style="opacity:1" fill="#a8cf41" d="M 12.5,57.5 C 14.3464,57.2222 15.6798,57.8888 16.5,59.5C 15.6798,61.1112 14.3464,61.7778 12.5,61.5C 12.5,60.1667 12.5,58.8333 12.5,57.5 Z"/></g>
<g><path style="opacity:1" fill="#acd24b" d="M 12.5,62.5 C 15.4841,62.7868 16.8174,64.4535 16.5,67.5C 14.8333,67.5 13.1667,67.5 11.5,67.5C 11.366,65.7085 11.6993,64.0418 12.5,62.5 Z"/></g>
<g><path style="opacity:1" fill="#e6f1c7" d="M 22.5,57.5 C 25.6248,56.5206 28.9581,56.1872 32.5,56.5C 32.7895,60.554 32.1229,61.054 30.5,58C 29.2068,57.51 27.8734,57.3433 26.5,57.5C 26.2148,59.288 26.5481,60.9547 27.5,62.5C 28.8418,59.6794 29.5084,59.8461 29.5,63C 29.5084,66.1539 28.8418,66.3206 27.5,63.5C 26.5344,65.396 26.2011,67.396 26.5,69.5C 25.0222,69.762 23.6888,69.4287 22.5,68.5C 23.6628,66.7148 24.3295,64.7148 24.5,62.5C 24.4439,60.3603 23.7773,58.6936 22.5,57.5 Z"/></g>
<g><path style="opacity:1" fill="#f3f8e4" d="M 80.5,57.5 C 83.2869,56.5233 86.2869,56.19 89.5,56.5C 89.3781,60.8383 89.0447,61.1716 88.5,57.5C 87.1667,57.5 85.8333,57.5 84.5,57.5C 84.238,58.9778 84.5713,60.3112 85.5,61.5C 87.0157,60.1962 87.6824,60.6962 87.5,63C 87.5084,66.1539 86.8418,66.3206 85.5,63.5C 84.2528,65.0064 84.2528,66.5064 85.5,68C 83.8333,68.6667 82.1667,68.6667 80.5,68C 81.7201,66.4747 82.3868,64.6413 82.5,62.5C 82.4439,60.3603 81.7773,58.6936 80.5,57.5 Z"/></g>
<g><path style="opacity:1" fill="#ebf4d4" d="M 31.5,65.5 C 32.4345,66.5676 32.7678,67.901 32.5,69.5C 30.712,69.7852 29.0453,69.4519 27.5,68.5C 29.3316,67.9432 30.6649,66.9432 31.5,65.5 Z"/></g>
<g><path style="opacity:1" fill="#eef6da" d="M 75.5,59.5 C 74.79,61.8927 74.1233,64.3927 73.5,67C 73.7284,67.3988 74.0618,67.5654 74.5,67.5C 67.7234,70.2338 64.8901,67.9005 66,60.5C 66.4189,64.8518 67.0855,65.1851 68,61.5C 68.036,63.9412 68.8693,65.9412 70.5,67.5C 73.3342,65.5592 74.1675,62.8926 73,59.5C 70.81,56.7514 69.1433,57.0847 68,60.5C 66.7705,59.7248 66.4372,58.7248 67,57.5C 69.4009,56.3977 71.9009,56.231 74.5,57C 75.2524,57.6708 75.5858,58.5041 75.5,59.5 Z"/></g>
<g><path style="opacity:1" fill="#f2f8e2" d="M 54.5,57.5 C 56.5,57.5 58.5,57.5 60.5,57.5C 60.9952,63.1857 59.9952,63.6857 57.5,59C 55.1229,58.9666 53.7895,60.2999 53.5,63C 54.1476,64.4397 54.4809,65.9397 54.5,67.5C 56.4918,67.6715 58.1585,67.0049 59.5,65.5C 60.9985,68.133 60.1652,69.4664 57,69.5C 55.2894,69.5607 53.956,68.8941 53,67.5C 52.037,63.8513 52.537,60.518 54.5,57.5 Z"/></g>
<g><path style="opacity:1" fill="#bbda6b" d="M 82.5,72.5 C 84.1992,72.3398 85.8659,72.5065 87.5,73C 80.9921,74.5144 80.9921,76.0144 87.5,77.5C 88.6139,78.723 88.7805,80.0563 88,81.5C 86.3123,79.9551 84.3123,78.9551 82,78.5C 81.3224,76.4024 81.4891,74.4024 82.5,72.5 Z"/></g>
<g><path style="opacity:1" fill="#b6d75f" d="M 24.5,72.5 C 26.924,72.1924 29.2573,72.5258 31.5,73.5C 30.9598,74.7481 30.2931,75.9148 29.5,77C 31.9784,78.938 32.1451,81.1047 30,83.5C 28.4006,85.0356 26.5672,85.5356 24.5,85C 27.1446,83.7135 28.1446,81.5468 27.5,78.5C 26.5,78.5 25.5,78.5 24.5,78.5C 24.5,76.5 24.5,74.5 24.5,72.5 Z"/></g>
<g><path style="opacity:1" fill="#bad967" d="M 117.5,83.5 C 117.672,84.4916 117.338,85.1583 116.5,85.5C 115.048,84.6981 113.382,84.1981 111.5,84C 110.366,82.984 110.699,82.3173 112.5,82C 111.328,81.5814 110.328,80.9147 109.5,80C 110.627,78.2467 111.627,76.4134 112.5,74.5C 111.975,73.8076 111.308,73.3076 110.5,73C 112.134,72.5065 113.801,72.3398 115.5,72.5C 115.042,75.3938 115.709,77.8938 117.5,80C 114.982,81.1396 114.982,82.3063 117.5,83.5 Z"/></g>
<g><path style="opacity:1" fill="#b6d75f" d="M 38.5,72.5 C 40.5273,72.3379 42.5273,72.5045 44.5,73C 42.8839,73.6152 41.5505,74.6152 40.5,76C 47.1361,79.0073 47.1361,82.1739 40.5,85.5C 38.7194,81.3843 38.0527,77.0509 38.5,72.5 Z"/></g>
<g><path style="opacity:1" fill="#b4d65b" d="M 9.5,82.5 C 8.66175,82.1583 8.32842,81.4916 8.5,80.5C 9.30912,78.7078 9.80912,76.7078 10,74.5C 11.016,73.3659 11.6827,73.6992 12,75.5C 12.8333,74.5 13.6667,73.5 14.5,72.5C 15.0798,74.6367 16.0798,76.47 17.5,78C 15.0087,78.6259 15.0087,79.4593 17.5,80.5C 16.3539,81.7187 15.3539,83.0521 14.5,84.5C 13.6143,83.675 13.281,82.675 13.5,81.5C 11.901,81.2322 10.5676,81.5655 9.5,82.5 Z"/></g>
<g><path style="opacity:1" fill="#b6d75f" d="M 96.5,72.5 C 102.178,72.1572 104.344,74.8238 103,80.5C 101.56,84.7321 99.2266,85.3988 96,82.5C 95.3333,81.1667 95.3333,79.8333 96,78.5C 97.5484,77.0863 98.215,75.4196 98,73.5C 95.6588,77.3659 95.1588,77.0325 96.5,72.5 Z"/></g>
<g><path style="opacity:1" fill="#b9d865" d="M 52.5,72.5 C 54.924,72.1924 57.2573,72.5258 59.5,73.5C 59.1037,76.4277 58.9371,79.4277 59,82.5C 57.7367,84.7969 55.9034,85.6302 53.5,85C 55.1556,83.2028 56.1556,81.0361 56.5,78.5C 55.9747,77.8076 55.3081,77.3076 54.5,77C 57.1973,74.1901 56.6973,73.3567 53,74.5C 52.5357,73.9056 52.369,73.2389 52.5,72.5 Z"/></g>
<g><path style="opacity:1" fill="#b6d75f" d="M 67.5,87.5 C 69.8333,87.5 72.1667,87.5 74.5,87.5C 74.4139,89.677 73.7472,91.677 72.5,93.5C 73.1667,94.1667 73.8333,94.8333 74.5,95.5C 73.0944,97.026 71.9277,98.6927 71,100.5C 70.51,99.2068 70.3433,97.8734 70.5,96.5C 69.5,96.5 68.5,96.5 67.5,96.5C 67.5861,94.323 68.2528,92.323 69.5,90.5C 69.1543,89.3044 68.6543,89.3044 68,90.5C 67.5172,89.552 67.3505,88.552 67.5,87.5 Z"/></g>
<g><path style="opacity:1" fill="#b8d762" d="M 40.5,87.5 C 42.7224,87.178 44.5557,87.8446 46,89.5C 45.6811,91.5951 45.8477,93.5951 46.5,95.5C 46.3333,96.1667 46.1667,96.8333 46,97.5C 45.1072,96.2888 44.2739,96.2888 43.5,97.5C 43.7093,98.086 44.0426,98.586 44.5,99C 41.402,100.067 39.402,99.0673 38.5,96C 38.7029,93.5941 39.7029,91.5941 41.5,90C 39.3808,89.6582 39.0474,88.8249 40.5,87.5 Z"/></g>
<g><path style="opacity:1" fill="#b9d865" d="M 95.5,88.5 C 96.2389,88.369 96.9056,88.5357 97.5,89C 96.4829,90.0495 96.3162,91.2161 97,92.5C 98.353,91.3147 99.5197,89.9814 100.5,88.5C 101.119,91.0318 102.119,93.3651 103.5,95.5C 102.48,97.9238 100.814,99.5905 98.5,100.5C 97.8333,100.333 97.1667,100.167 96.5,100C 101.611,98.3284 101.611,97.1617 96.5,96.5C 95.9084,93.8728 95.5751,91.2062 95.5,88.5 Z"/></g>
<g><path style="opacity:1" fill="#bad866" d="M 41.5,116.5 C 40.5084,116.672 39.8417,116.338 39.5,115.5C 43.5361,114.559 44.2027,112.725 41.5,110C 42.1667,109.667 42.8333,109.333 43.5,109C 39.155,110.15 37.4883,108.317 38.5,103.5C 40.8568,103.337 43.1902,103.503 45.5,104C 44.6433,104.689 43.9767,105.522 43.5,106.5C 46.3248,110.534 45.6581,113.867 41.5,116.5 Z"/></g>
<g><path style="opacity:1" fill="#b9d866" d="M 32.5,111.5 C 28.9485,109.889 25.9485,107.556 23.5,104.5C 30.2084,101.865 33.2084,104.199 32.5,111.5 Z"/></g>
<g><path style="opacity:1" fill="#b8d863" d="M 67.5,103.5 C 69.1667,103.5 70.8333,103.5 72.5,103.5C 72.22,106.272 72.8866,108.772 74.5,111C 73.1573,114.579 70.824,116.079 67.5,115.5C 72.5479,113.494 72.5479,112.161 67.5,111.5C 67.5,108.833 67.5,106.167 67.5,103.5 Z"/></g>
<g><path style="opacity:1" fill="#b5d65d" d="M 53.5,103.5 C 55.7925,103.244 57.9592,103.577 60,104.5C 59.4559,106.716 59.6226,108.883 60.5,111C 60.4056,113.954 59.9056,114.121 59,111.5C 58.5172,112.448 58.3505,113.448 58.5,114.5C 56.5328,114.739 54.6995,114.406 53,113.5C 53.148,110.005 53.3147,106.671 53.5,103.5 Z"/></g>
</svg>
