<?xml version="1.0" encoding="UTF-8" standalone="no"?>
<!-- Generator: Adobe Illustrator 26.0.2, SVG Export Plug-In . SVG Version: 6.00 Build 0)  -->

<svg
   version="1.1"
   id="Layer_1"
   x="0px"
   y="0px"
   viewBox="0 0 249.99999 250"
   xml:space="preserve"
   sodipodi:docname="billit - kopie.svg"
   width="250"
   height="250"
   inkscape:version="1.3.2 (091e20e, 2023-11-25, custom)"
   xmlns:inkscape="http://www.inkscape.org/namespaces/inkscape"
   xmlns:sodipodi="http://sodipodi.sourceforge.net/DTD/sodipodi-0.dtd"
   xmlns="http://www.w3.org/2000/svg"
   xmlns:svg="http://www.w3.org/2000/svg"
   xmlns:ns="&amp;ns_sfw;"><defs
   id="defs58">
	
	
	
	
	
	
	
	
	
	
	
	
	
	
	
	
	
	
	
	
	
	
	
	
	
	
	
	
	
	
	
	
	
	
	
	
	
	
	
	
	
	
	
	
	
	
	
	
	
	
	
	
	
	
	
	
	
	
	
	
	
	
	
	
	
	
	
	
	
	
	
	
	
	
	
</defs><sodipodi:namedview
   id="namedview58"
   pagecolor="#505050"
   bordercolor="#eeeeee"
   borderopacity="1"
   inkscape:showpageshadow="0"
   inkscape:pageopacity="0"
   inkscape:pagecheckerboard="0"
   inkscape:deskcolor="#505050"
   inkscape:zoom="2.1702128"
   inkscape:cx="359.64216"
   inkscape:cy="270.25"
   inkscape:window-width="2720"
   inkscape:window-height="1353"
   inkscape:window-x="3236"
   inkscape:window-y="54"
   inkscape:window-maximized="0"
   inkscape:current-layer="Layer_1" />
<style
   type="text/css"
   id="style1">
	.st0{fill:#004C71;}
	.st1{fill:#EF7D00;}
	.st2{fill:#00699D;}
	.st3{fill:#DC6A02;}
	.st4{fill:#CE470A;}
	.st5{fill:#F18A00;}
</style>
<metadata
   id="metadata1">
	<ns:sfw>
		<ns:slices />
		<ns:sliceSourceBounds
   bottomLeftOrigin="true"
   height="382.8"
   width="530.9"
   x="82.9"
   y="119.2" />
	</ns:sfw>
</metadata>
<g
   id="g58"
   transform="translate(-72.343137,-11.519607)"><polygon
     class="st2"
     points="287.1,108.2 313.2,108.3 295.3,85.7 287,108.2 "
     id="polygon15" /><polygon
     class="st3"
     points="287,108.2 295.3,85.7 257.3,85.7 "
     id="polygon16" /><polygon
     class="st4"
     points="200.3,127 276.3,132.3 287,108.2 257.3,85.7 "
     id="polygon17" /><polygon
     class="st5"
     points="202.7,129.3 196.6,176 276.3,132.3 207.9,38.5 "
     id="polygon18" /><polygon
     class="st4"
     points="196.6,176 202.7,129.3 156.9,233.8 "
     id="polygon19" /><path
     class="st3"
     d="M 181.2,91.4 V 99 h -5.9 l 53.3,58.9 -20.7,-119.4 h -87.6 l 30.6,33.7 v -3.4 h 7.6 v 7.6 h -3.8 l 19,20.9 V 91.6 Z M 166.1,53.7 h 7.6 v 7.6 h -7.6 z"
     id="path19" /><path
     class="st4"
     d="m 179.4,91.4 28.5,-52.9 -73.5,15.4 16.4,18.2 v -3.3 h 7.6 v 7.6 h -3.7 l 18.8,20.7 v -5.6 h 5.9 z M 166.1,53.7 h 7.6 v 7.6 h -7.6 z"
     id="path20" /><rect
     x="173.60001"
     y="106.6"
     class="st4"
     width="7.5999999"
     height="7.5999999"
     id="rect20" /><rect
     x="188.8"
     y="106.6"
     class="st4"
     width="7.5999999"
     height="7.5999999"
     id="rect21" /><rect
     x="166.10001"
     y="99"
     class="st4"
     width="7.5999999"
     height="7.5999999"
     id="rect22" /><rect
     x="188.8"
     y="121.7"
     class="st4"
     width="7.5999999"
     height="7.5999999"
     id="rect23" /><polygon
     class="st4"
     points="166.1,76.4 158.5,76.4 150.9,76.4 150.9,83.9 150.9,91.4 158.5,91.4 166.1,91.4 166.1,83.9 "
     id="polygon23" /><rect
     x="150.89999"
     y="99"
     class="st4"
     width="7.5999999"
     height="7.5999999"
     id="rect24" /><polygon
     class="st4"
     points="143.3,61.3 143.3,53.7 135.8,53.7 135.8,61.3 135.8,68.8 143.3,68.8 143.3,76.4 150.9,76.4 150.9,68.8 150.9,61.3 "
     id="polygon24" /><rect
     x="143.3"
     y="91.400002"
     class="st4"
     width="7.5999999"
     height="7.5999999"
     id="rect25" /><rect
     x="135.8"
     y="76.400002"
     class="st4"
     width="7.5999999"
     height="7.5999999"
     id="rect26" /><rect
     x="128.2"
     y="68.800003"
     class="st4"
     width="7.5999999"
     height="7.5999999"
     id="rect27" /><rect
     x="128.2"
     y="83.900002"
     class="st4"
     width="7.5999999"
     height="7.5999999"
     id="rect28" /><rect
     x="128.2"
     y="99"
     class="st4"
     width="7.5999999"
     height="7.5999999"
     id="rect29" /><rect
     x="120.7"
     y="53.700001"
     class="st4"
     width="7.5999999"
     height="7.5999999"
     id="rect30" /><rect
     x="120.7"
     y="91.400002"
     class="st4"
     width="7.5999999"
     height="7.5999999"
     id="rect31" /><rect
     x="113.2"
     y="61.299999"
     class="st4"
     width="7.5999999"
     height="7.5999999"
     id="rect32" /><rect
     x="113.2"
     y="114.2"
     class="st4"
     width="7.5999999"
     height="7.5999999"
     id="rect33" /><rect
     x="105.6"
     y="76.400002"
     class="st4"
     width="7.5999999"
     height="7.5999999"
     id="rect34" /><rect
     x="173.60001"
     y="46.099998"
     class="st3"
     width="7.5999999"
     height="7.5999999"
     id="rect35" /><rect
     x="173.60001"
     y="76.400002"
     class="st3"
     width="7.5999999"
     height="7.5999999"
     id="rect36" /><polygon
     class="st3"
     points="181.2,114.2 188.8,114.2 188.8,106.6 188.8,99 181.2,99 173.6,99 173.6,106.6 181.2,106.6 "
     id="polygon36" /><polygon
     class="st3"
     points="173.6,91.4 173.6,83.9 166.1,83.9 166.1,91.4 166.1,99 173.6,99 "
     id="polygon37" /><polygon
     class="st3"
     points="166.1,121.7 173.6,121.7 173.6,129.3 181.2,129.3 181.2,121.7 188.8,121.7 188.8,114.2 181.2,114.2 173.6,114.2 166.1,114.2 "
     id="polygon38" /><rect
     x="158.5"
     y="68.800003"
     class="st3"
     width="7.5999999"
     height="7.5999999"
     id="rect38" /><path
     class="st3"
     d="m 196.3,121.7 v 7.6 h 7.6 v -7.6 z m 0,-7.5 h -7.5 v 7.5 h 7.5 z"
     id="path38" /><rect
     x="181.2"
     y="129.3"
     class="st3"
     width="7.5999999"
     height="7.5999999"
     id="rect39" /><rect
     x="150.89999"
     y="53.700001"
     class="st3"
     width="7.5999999"
     height="7.5999999"
     id="rect40" /><rect
     x="150.89999"
     y="91.400002"
     class="st3"
     width="7.5999999"
     height="7.5999999"
     id="rect41" /><rect
     x="150.89999"
     y="121.7"
     class="st3"
     width="7.5999999"
     height="7.5999999"
     id="rect42" /><rect
     x="143.3"
     y="76.400002"
     class="st3"
     width="7.5999999"
     height="7.5999999"
     id="rect43" /><rect
     x="135.8"
     y="68.800003"
     class="st3"
     width="7.5999999"
     height="7.5999999"
     id="rect44" /><polygon
     class="st3"
     points="135.8,83.9 135.8,91.4 135.8,99 143.3,99 143.3,91.4 143.3,83.9 "
     id="polygon44" /><polygon
     class="st3"
     points="105.6,61.3 105.6,53.7 113.2,53.7 113.2,46.1 120.7,46.1 120.7,53.7 128.2,53.7 128.2,61.3 135.8,61.3 135.8,53.7 135.8,46.1 128.2,46.1 128.2,38.6 120.7,38.6 113.2,38.6 105.6,38.6 105.6,46.1 98,46.1 98,53.7 98,61.3 "
     id="polygon45" /><polygon
     class="st3"
     points="128.2,83.9 128.2,76.4 128.2,68.8 128.2,61.3 120.7,61.3 120.7,68.8 120.7,76.4 120.7,83.9 "
     id="polygon46" /><rect
     x="113.2"
     y="53.700001"
     class="st3"
     width="7.5999999"
     height="7.5999999"
     id="rect46" /><polygon
     class="st5"
     points="166.1,99 158.5,99 158.5,106.6 158.5,114.2 166.1,114.2 166.1,106.6 "
     id="polygon47" /><rect
     x="143.3"
     y="99"
     class="st5"
     width="7.5999999"
     height="7.5999999"
     id="rect47" /><rect
     x="135.8"
     y="114.2"
     class="st5"
     width="7.5999999"
     height="7.5999999"
     id="rect48" /><rect
     x="128.2"
     y="106.6"
     class="st5"
     width="7.5999999"
     height="7.5999999"
     id="rect49" /><rect
     x="128.2"
     y="121.7"
     class="st5"
     width="7.5999999"
     height="7.5999999"
     id="rect50" /><rect
     x="120.7"
     y="83.900002"
     class="st5"
     width="7.5999999"
     height="7.5999999"
     id="rect51" /><polygon
     class="st5"
     points="128.2,99 120.7,99 113.2,99 113.2,106.6 120.7,106.6 128.2,106.6 "
     id="polygon51" /><rect
     x="113.2"
     y="68.800003"
     class="st5"
     width="7.5999999"
     height="7.5999999"
     id="rect52" /><rect
     x="105.6"
     y="61.299999"
     class="st5"
     width="7.5999999"
     height="7.5999999"
     id="rect53" /><polygon
     class="st5"
     points="113.2,91.4 113.2,83.9 105.6,83.9 98,83.9 98,91.4 105.6,91.4 "
     id="polygon53" /><rect
     x="90.400002"
     y="38.599998"
     class="st5"
     width="7.5999999"
     height="7.5999999"
     id="rect54" /><rect
     x="90.400002"
     y="68.800003"
     class="st5"
     width="7.5999999"
     height="7.5999999"
     id="rect55" /><rect
     x="90.400002"
     y="99"
     class="st5"
     width="7.5999999"
     height="7.5999999"
     id="rect56" /><rect
     x="82.900002"
     y="46.099998"
     class="st5"
     width="7.5999999"
     height="7.5999999"
     id="rect57" /><rect
     x="82.900002"
     y="61.299999"
     class="st5"
     width="7.5999999"
     height="7.5999999"
     id="rect58" /></g>
</svg>
