<?xml version="1.0" encoding="UTF-8"?>
<!DOCTYPE svg PUBLIC "-//W3C//DTD SVG 1.1//EN" "http://www.w3.org/Graphics/SVG/1.1/DTD/svg11.dtd">
<svg xmlns="http://www.w3.org/2000/svg" version="1.1" width="24px" height="24px" style="shape-rendering:geometricPrecision; text-rendering:geometricPrecision; image-rendering:optimizeQuality; fill-rule:evenodd; clip-rule:evenodd" xmlns:xlink="http://www.w3.org/1999/xlink">
<g><path style="opacity:0.792" fill="#fefefe" d="M 8.5,-0.5 C 10.5,-0.5 12.5,-0.5 14.5,-0.5C 16.0304,2.02092 18.3637,3.02092 21.5,2.5C 21.5,9.5 21.5,16.5 21.5,23.5C 14.8333,23.5 8.16667,23.5 1.5,23.5C 1.5,16.5 1.5,9.5 1.5,2.5C 4.63627,3.02092 6.9696,2.02092 8.5,-0.5 Z M 5.5,5.5 C 9.37991,8.1045 13.2132,8.1045 17,5.5C 17.3333,5.83333 17.6667,6.16667 18,6.5C 18.4992,11.1548 18.6658,15.8215 18.5,20.5C 13.9014,20.8 9.40142,20.4667 5,19.5C 4.22656,14.7481 4.39322,10.0815 5.5,5.5 Z"/></g>
<g><path style="opacity:0.745" fill="#fefefe" d="M 6.5,11.5 C 9.83333,11.5 13.1667,11.5 16.5,11.5C 16.5,12.5 16.5,13.5 16.5,14.5C 13.1667,14.5 9.83333,14.5 6.5,14.5C 6.5,13.5 6.5,12.5 6.5,11.5 Z"/></g>
<g><path style="opacity:0.56" fill="#fefefe" d="M 6.5,15.5 C 9.83333,15.5 13.1667,15.5 16.5,15.5C 16.5,16.8333 16.5,18.1667 16.5,19.5C 13.1667,19.5 9.83333,19.5 6.5,19.5C 6.5,18.1667 6.5,16.8333 6.5,15.5 Z"/></g>
</svg>
