<?xml version="1.0" encoding="UTF-8" standalone="no"?>
<!-- Created with Inkscape (http://www.inkscape.org/) -->

<svg
   width="50mm"
   height="50mm"
   viewBox="0 0 50 50"
   version="1.1"
   id="svg1"
   inkscape:version="1.4 (86a8ad7, 2024-10-11)"
   sodipodi:docname="tekening.svg"
   xmlns:inkscape="http://www.inkscape.org/namespaces/inkscape"
   xmlns:sodipodi="http://sodipodi.sourceforge.net/DTD/sodipodi-0.dtd"
   xmlns="http://www.w3.org/2000/svg"
   xmlns:svg="http://www.w3.org/2000/svg">
  <sodipodi:namedview
     id="namedview1"
     pagecolor="#ffffff"
     bordercolor="#000000"
     borderopacity="0.25"
     inkscape:showpageshadow="2"
     inkscape:pageopacity="0.0"
     inkscape:pagecheckerboard="0"
     inkscape:deskcolor="#d1d1d1"
     inkscape:document-units="mm"
     inkscape:zoom="1.0396254"
     inkscape:cx="397.25847"
     inkscape:cy="561.25984"
     inkscape:window-width="5120"
     inkscape:window-height="1369"
     inkscape:window-x="-8"
     inkscape:window-y="-8"
     inkscape:window-maximized="1"
     inkscape:current-layer="layer1" />
  <defs
     id="defs1" />
  <g
     inkscape:label="Laag 1"
     inkscape:groupmode="layer"
     id="layer1">
    <path
       d="m 19.000906,36.517866 c -2.214837,-0.162647 -3.795839,1.707764 -3.480117,4.113949 0.325289,2.520993 2.587963,4.649722 4.783662,4.699948 2.310514,-0.07657 3.767138,-2.052187 3.336608,-4.448808 -0.43053,-2.396611 -2.549695,-4.307685 -4.640153,-4.365089 z m 2.772137,-5.675824 c -0.401828,-2.052188 -2.291379,-3.865195 -4.391408,-4.037407 -1.985221,-0.181786 -3.604491,1.227007 -3.317471,3.288768 0.296587,2.176569 2.425318,4.085247 4.525346,4.257459 2.214834,0.165034 3.46098,-1.561867 3.183533,-3.50882 z M 17.11375,24.97249 c 1.982829,0.184171 3.267242,-1.081112 2.886939,-2.903683 -0.373123,-1.707773 -2.140688,-3.41315 -4.018276,-3.721694 -1.994788,-0.296585 -3.403577,0.863455 -3.14526,2.695591 0.258318,1.832145 2.167,3.642766 4.276597,3.929786 z m -1.37052,-8.110703 c 1.877588,0.308544 3.059153,-0.834753 2.817578,-2.322474 -0.363558,-1.59057 -1.992396,-3.075895 -3.881943,-3.499247 -1.762781,-0.315722 -3.193097,0.612306 -2.944346,2.214835 0.248751,1.602529 2.004355,3.19788 4.008711,3.606886 z m 12.329895,20.060294 c -1.860847,-0.07657 -3.224187,1.657537 -2.686027,3.932172 0.43053,2.391829 2.568823,4.420106 4.544478,4.487075 2.080899,-0.0574 3.078291,-1.994784 2.540131,-4.267023 -0.526209,-2.157432 -2.413363,-3.970448 -4.398582,-4.152224 z M 26.099866,15.998332 c -0.365949,-1.59057 -1.98522,-2.963483 -3.633193,-3.288769 -1.659933,-0.440094 -2.870201,0.47837 -2.494686,2.061761 0.375521,1.583391 2.1096,3.068717 3.757573,3.396399 1.765168,0.315722 2.724294,-0.691234 2.370306,-2.169391 z m 10.122228,21.404505 c -1.743644,-0.0885 -2.769737,1.504463 -2.233964,3.776702 0.641008,2.152649 2.654929,4.066118 4.400968,4.152224 1.848888,-0.03824 2.631019,-1.839314 1.98522,-3.989576 -0.64579,-2.150254 -2.406185,-3.841284 -4.152224,-3.93935 z m 11.031137,3.925003 c -0.559694,-1.877589 -2.102423,-3.370092 -3.628411,-3.444238 -1.525987,-0.07413 -2.422927,1.3155 -1.954131,3.303115 0.56208,1.877589 2.320079,3.554264 3.848462,3.630806 1.616876,-0.04068 2.296159,-1.616885 1.73408,-3.489683 z M 29.417336,14.101614 c -1.411179,-0.239189 -2.377483,0.660146 -2.023494,2.138294 0.478369,1.466197 2.09764,2.951522 3.633192,3.288768 1.523601,0.220052 2.370314,-0.77734 1.899122,-2.243537 -0.353997,-1.478157 -1.975655,-2.848675 -3.50882,-3.183525 z"
       style="fill:#db3e4a;fill-rule:evenodd;stroke-width:0.239183"
       id="path22" />
    <g
       id="g24"
       transform="matrix(0.23918323,0,0,0.23918323,-0.3179241,-0.05086135)">
      <path
         d="m 40.42,191.75 c -12.15,0 -22.83,-10.46 -23.35,-22.85 A 19.29,19.29 0 0 1 22,154 19.82,19.82 0 0 1 36.84,147.71 q 0.6,0 1.2,0 a 25.16,25.16 0 0 1 22.83,21.3 v 0.12 a 21.65,21.65 0 0 1 -5.32,16.44 19.2,19.2 0 0 1 -14.34,6.1 v 0 z M 181.49,153 h -0.83 c -7.23,-0.5 -15.51,-8 -18.49,-16.81 v -0.14 c -1.36,-4.95 -0.88,-9.28 1.34,-12.2 a 8.48,8.48 0 0 1 6.95,-3.29 12.52,12.52 0 0 1 1.7,0.13 c 7.44,1.08 14.91,8 17.76,16.34 1.71,5 1.48,9.42 -0.66,12.4 -1.17,1.64 -3.47,3.6 -7.72,3.6 z m -29.22,-2.32 a 13.86,13.86 0 0 1 -1.43,-0.08 c -8.34,-0.47 -17.06,-8.24 -19.47,-17.37 -1.25,-4.74 -0.63,-9 1.75,-12.13 a 10.31,10.31 0 0 1 8.4,-4 14,14 0 0 1 1.69,0.11 c 7.64,1 15.34,8 18.32,16.79 1.57,4.63 1.12,9.34 -1.21,12.6 a 9.63,9.63 0 0 1 -8,4.05 z M 118,148.58 h -0.65 -0.12 c -9.34,-0.86 -18.15,-9.14 -20.09,-18.86 -1.16,-4.65 -0.45,-8.93 2,-12.07 a 12.33,12.33 0 0 1 10,-4.57 15.9,15.9 0 0 1 1.68,0.09 h 0.15 c 8.86,1.45 17,9 19.33,17.83 v 0.14 c 1,5 0,9.75 -2.64,13 a 12.22,12.22 0 0 1 -9.69,4.4 z m -79.76,-5.4 H 36.93 C 25.27,142.49 15.05,133.1 14.14,122.24 v -0.13 a 16.3,16.3 0 0 1 4.52,-12 17.83,17.83 0 0 1 13,-5.21 23.19,23.19 0 0 1 2.48,0.14 c 11.17,1.28 20.24,9.88 21.12,20 a 15.49,15.49 0 0 1 -3.62,12.47 17.33,17.33 0 0 1 -13.37,5.69 z m 132.89,-24 a 11.21,11.21 0 0 1 -1.8,-0.15 c -7.16,-1 -15.14,-8.12 -17.59,-15.57 a 10.61,10.61 0 0 1 -1.5,8 9.32,9.32 0 0 1 -7.92,3.77 v 0 a 14.22,14.22 0 0 1 -1.81,-0.12 c -7.78,-1 -16,-8.38 -18.31,-16.43 -1.14,-3.93 -0.66,-7.56 1.34,-10.22 a 9.31,9.31 0 0 1 7.69,-3.64 12.85,12.85 0 0 1 2.64,0.29 c 7.29,1.1 14.79,7.85 17.12,15.43 0.05,0.15 0.11,0.31 0.16,0.47 a 10.54,10.54 0 0 1 1.63,-8.21 8.57,8.57 0 0 1 7.12,-3.41 12.62,12.62 0 0 1 1.91,0.16 h 0.09 0.09 c 6.8,1.66 13.73,8.11 16.46,15.34 1.56,4.12 1.36,8.07 -0.54,10.82 a 8,8 0 0 1 -6.78,3.38 z m -60.61,-8 a 15.89,15.89 0 0 1 -1.8,-0.1 C 99.85,110.16 91.11,102.32 89.28,93.59 a 11.43,11.43 0 0 1 2,-9.81 11.25,11.25 0 0 1 8.88,-4 A 14,14 0 0 1 103,80 c 8.6,1.54 16.42,8.62 18.18,16.47 1.13,4 0.59,7.72 -1.5,10.51 a 11,11 0 0 1 -9.1,4.16 z M 35.48,102 a 21.49,21.49 0 0 1 -2.63,-0.17 c -11,-1.26 -20.23,-9.65 -21,-19.11 v -0.14 a 13.41,13.41 0 0 1 3.76,-10 15.62,15.62 0 0 1 11.35,-4.44 20.38,20.38 0 0 1 3.77,0.36 c 10,1.29 18.56,9 19.88,18.06 A 12.71,12.71 0 0 1 47.69,96.86 16,16 0 0 1 35.48,102 Z M 160.71,89.05 a 13.56,13.56 0 0 1 -2.06,-0.16 h -0.12 -0.12 c -6.9,-1.69 -13.77,-8.14 -16,-15 -1.15,-3.58 -0.89,-6.78 0.73,-9 a 7.49,7.49 0 0 1 6.27,-2.92 13.1,13.1 0 0 1 3,0.37 c 6.08,1.17 13,7.24 15.88,13.85 l 0.05,0.11 v 0.12 c 1.22,3.83 0.95,7.23 -0.76,9.57 -1,1.42 -3.08,3.12 -6.9,3.12 z M 33.16,66.59 A 20.37,20.37 0 0 1 29.32,66.22 C 19.32,64.83 10.11,56.34 9.94,48.36 A 10.79,10.79 0 0 1 12.71,40 c 2.45,-2.67 6.23,-4.13 10.63,-4.13 a 21.5,21.5 0 0 1 4.32,0.45 c 9.46,2 17.51,9.32 18.72,17.14 A 10.59,10.59 0 0 1 44,62.14 C 41.58,65 37.63,66.59 33.16,66.59 Z M 152.4,61.9 a 13.22,13.22 0 0 1 -3,-0.37 c -6.38,-1.09 -13.07,-6.94 -15.22,-13.14 a 8.23,8.23 0 0 1 -1.63,5 8,8 0 0 1 -6.69,2.94 v 0 A 15,15 0 0 1 122.8,56 C 115.45,54.38 108.73,47.55 106.5,42 A 8.33,8.33 0 0 1 104.8,46.68 9.64,9.64 0 0 1 97,50 v 0 A 16.58,16.58 0 0 1 93.79,49.67 H 93.63 C 85.8,47.58 78.34,40.75 76.63,34.12 v -0.1 -0.1 a 8.6,8.6 0 0 1 1.72,-7.29 9.8,9.8 0 0 1 7.65,-3.13 17.52,17.52 0 0 1 3.65,0.41 h 0.11 c 7.71,2 14.24,7.69 16.2,13.88 a 7.91,7.91 0 0 1 1.6,-4.33 8.66,8.66 0 0 1 7,-3.12 13.66,13.66 0 0 1 3.28,0.42 c 6.12,1.49 12.77,7.09 15.4,12.83 a 7,7 0 0 1 1.21,-3.86 7,7 0 0 1 6,-2.83 12.25,12.25 0 0 1 3.18,0.45 c 6.45,1.57 13.05,7.38 15.28,13.5 1.16,3.17 1,6.07 -0.48,8.17 a 7.11,7.11 0 0 1 -6.07,2.85 z M 65.26,43 A 21,21 0 0 1 61.71,42.68 H 61.56 C 53.9,40.79 45.23,34.21 44,26.43 a 8.63,8.63 0 0 1 1.83,-7.14 c 1.93,-2.28 5,-3.54 8.76,-3.54 a 18.92,18.92 0 0 1 4.46,0.56 c 8,2.13 15.41,9.15 16.57,15.7 a 8.39,8.39 0 0 1 -1.35,7.31 c -1.85,2.38 -5,3.69 -9,3.69 z M 30.59,36.32 A 20.22,20.22 0 0 1 26.85,36 C 17.12,34.6 8.18,26.35 8,18.58 a 10.56,10.56 0 0 1 2.7,-8.15 c 2.39,-2.6 6.07,-4 10.37,-4 a 21.11,21.11 0 0 1 4.2,0.44 c 9.2,1.9 17,9.07 18.2,16.68 A 10.35,10.35 0 0 1 41.15,32 13.72,13.72 0 0 1 30.59,36.34 Z"
         style="fill:#15b9d6;fill-rule:evenodd"
         id="path23" />
      <path
         d="m 21.08,8.9 a 18.46,18.46 0 0 1 3.69,0.39 C 32.89,11 40,17.41 41,23.9 c 0.87,5.61 -3.63,9.92 -10.42,9.92 A 17.88,17.88 0 0 1 27.25,33.49 C 18.7,32.33 10.58,25.02 10.5,18.49 10,12.56 14.72,8.9 21.08,8.9 m 33.48,9.35 a 16.48,16.48 0 0 1 3.87,0.49 c 6.93,1.84 13.75,8.05 14.71,13.79 1.23,4.85 -2.26,8 -7.88,8 a 17.23,17.23 0 0 1 -3.11,-0.29 c -7.41,-1.8 -14.71,-8 -15.71,-14.19 -0.78,-4.68 2.76,-7.78 8.12,-7.78 M 86,26 a 14.73,14.73 0 0 1 3.12,0.36 c 6.88,1.84 13.16,7.14 14.61,12.82 1.24,4.9 -1.58,8.35 -6.78,8.35 A 13.34,13.34 0 0 1 94.23,47.24 C 87.29,45.4 80.48,39.18 79,33.49 78.24,28.74 81.27,26 86,26 m 28.61,6.87 a 11,11 0 0 1 2.69,0.35 c 5.93,1.44 12.22,7.21 14.11,12.39 1.24,4.86 -0.84,8.23 -5.48,8.23 a 11.7,11.7 0 0 1 -2.58,-0.3 c -6.41,-1.4 -12.75,-7.66 -14.63,-12.83 -1.21,-4.78 1.48,-7.84 5.89,-7.84 m -91.27,5.51 a 19.09,19.09 0 0 1 3.82,0.4 c 8.37,1.72 15.71,8.38 16.75,15.07 0.91,5.8 -3.74,10.24 -10.75,10.24 A 18.29,18.29 0 0 1 29.72,63.75 C 20.9,62.55 12.52,55 12.44,48.24 c -0.5,-6.09 4.34,-9.86 10.9,-9.86 m 117.15,1 a 9.63,9.63 0 0 1 2.53,0.36 c 5.93,1.44 11.7,6.78 13.58,12 1.6,4.4 0,7.66 -4.2,7.66 a 10.25,10.25 0 0 1 -2.45,-0.32 c -5.89,-1 -12.18,-6.74 -13.63,-12.43 -1.57,-4.31 0.34,-7.22 4.17,-7.22 m 8.95,25 a 10.42,10.42 0 0 1 2.43,0.32 c 5.42,1 11.71,6.77 14.11,12.39 1.78,5.55 -0.16,9.43 -5.27,9.43 a 11.48,11.48 0 0 1 -1.7,-0.13 c -5.93,-1.45 -12.23,-7.22 -14.19,-13.36 -1.68,-5.22 0.32,-8.65 4.62,-8.65 M 26.93,70.64 a 18.18,18.18 0 0 1 3.39,0.33 c 9.3,1.17 16.68,8.3 17.8,16 1,7 -4.56,12.53 -12.64,12.53 A 18.67,18.67 0 0 1 33.16,99.35 C 23.38,98.19 15,90.65 14.32,82.48 14.15,75.33 19.67,70.64 26.93,70.64 m 73.25,11.53 a 12.37,12.37 0 0 1 2.3,0.23 c 7.38,1.33 14.67,7.5 16.24,14.64 1.89,6.59 -1.78,11.55 -8.18,11.55 -0.5,0 -1,0 -1.53,-0.08 -7.81,-0.81 -15.67,-7.9 -17.27,-15.52 -1.39,-6.33 2.7,-10.82 8.44,-10.82 m 31.06,5.16 a 10.08,10.08 0 0 1 2.19,0.25 c 6.37,0.92 13.19,7.14 15.19,13.75 2.34,6.53 -0.44,11.41 -6.29,11.41 a 13.15,13.15 0 0 1 -1.49,-0.1 c -6.85,-0.89 -14.19,-7.54 -16.23,-14.64 -1.8,-6.25 1.44,-10.67 6.63,-10.67 m 28.67,4.58 a 9.87,9.87 0 0 1 1.5,0.12 c 5.93,1.44 12.23,7.22 14.71,13.79 2.28,6 0,10.82 -5,10.82 a 8.47,8.47 0 0 1 -1.39,-0.11 c -6.38,-0.92 -13.71,-7.58 -15.72,-14.2 -1.82,-6 0.92,-10.42 5.88,-10.42 M 31.65,107.37 a 18.23,18.23 0 0 1 2.19,0.13 c 9.79,1.12 18.16,8.66 18.93,17.79 1.15,8.29 -5,15.39 -14.52,15.39 h -1.16 c -10.22,-0.6 -19.65,-9 -20.45,-18.65 -0.25,-8.48 6.29,-14.63 15,-14.63 m 77.5,8.19 a 14.18,14.18 0 0 1 1.43,0.08 c 7.85,1.28 15.19,7.94 17.31,16 1.61,7.91 -2.45,14.44 -9.88,14.44 h -0.54 c -8.3,-0.76 -16.2,-8.34 -17.88,-16.92 -2,-8 2.53,-13.59 9.56,-13.59 m 32.37,4.08 a 10.86,10.86 0 0 1 1.37,0.09 c 6.86,0.89 13.71,7.58 16.27,15.11 2.41,7.09 -0.8,13.35 -6.89,13.35 a 8.38,8.38 0 0 1 -1.21,-0.08 c -7.29,-0.35 -15.15,-7.45 -17.27,-15.51 -2,-7.51 1.67,-13 7.73,-13 m 28.89,3.4 a 10.59,10.59 0 0 1 1.34,0.1 c 6.38,0.93 13.19,7.14 15.76,14.68 2.48,7.28 0.27,12.69 -6,12.69 h -0.68 c -6.34,-0.45 -13.71,-7.58 -16.27,-15.12 -1.94,-7 0.43,-12.33 5.87,-12.33 m -133.6,27.18 c 0.36,0 0.71,0 1.07,0 a 22.58,22.58 0 0 1 20.48,19.12 c 0.88,10.56 -6.06,19.84 -17.16,19.84 H 41.13 40.42 C 29.6,189.2 20,179.56 19.57,168.7 18.68,158 26.63,150.19 36.82,150.19 M 21.08,3.9 c -5,0 -9.34,1.72 -12.21,4.83 a 13.1,13.1 0 0 0 -3.35,10 c 0.15,6 4.55,12.12 10.74,16 a 14.72,14.72 0 0 0 -5.39,3.65 13.43,13.43 0 0 0 -3.43,10.1 c 0.19,7.07 6.09,14.24 13.91,17.92 A 17,17 0 0 0 13.8,70.83 16,16 0 0 0 9.33,82.6 v 0.29 c 0.74,8.81 7.92,16.79 17.3,20 a 19.73,19.73 0 0 0 -9.77,5.42 18.81,18.81 0 0 0 -5.22,13.81 v 0.27 c 0.94,11.26 10.85,21.09 22.63,23 a 21.65,21.65 0 0 0 -19.72,23.68 c 0.61,13.67 12.42,25.2 25.85,25.2 h 0.8 a 21.64,21.64 0 0 0 16.17,-6.91 24.11,24.11 0 0 0 6,-18.34 v -0.12 -0.12 C 61.85,157.2 52.15,147.46 40.74,145.6 a 19.35,19.35 0 0 0 12.82,-6.43 18,18 0 0 0 4.22,-14.39 C 56.93,115.4 49.86,107.23 40.42,103.93 A 17.31,17.31 0 0 0 49.6,98.53 15.18,15.18 0 0 0 53.07,86.2 C 52,78.58 46.27,71.77 38.78,68.28 a 15.1,15.1 0 0 0 7.12,-4.52 13,13 0 0 0 3,-10.68 c -0.93,-6 -5.39,-11.79 -11.46,-15.52 a 14.36,14.36 0 0 0 5.66,-4 c 0.23,-0.27 0.45,-0.54 0.65,-0.82 C 47.34,39 54.55,43.52 61,45.08 h 0.15 0.15 a 23,23 0 0 0 4,0.36 c 4.72,0 8.61,-1.65 10.95,-4.66 0.17,-0.21 0.32,-0.42 0.47,-0.64 a 29.5,29.5 0 0 0 16.22,11.94 h 0.16 0.16 a 19,19 0 0 0 3.69,0.38 12,12 0 0 0 9.82,-4.36 3.55,3.55 0 0 0 0.23,-0.31 c 3.52,4.78 9.13,9.22 15.26,10.57 a 17.6,17.6 0 0 0 3.65,0.41 10.62,10.62 0 0 0 8.66,-3.9 l 0.22,-0.29 a 25.56,25.56 0 0 0 7.93,7 9.24,9.24 0 0 0 -1.57,1.67 c -2.1,2.89 -2.49,6.88 -1.09,11.24 1.94,6.03 6.94,11.69 12.68,14.79 a 10.55,10.55 0 0 0 -2,2 10.93,10.93 0 0 0 -1,1.53 c -3.84,-5.26 -9.72,-9.29 -15.5,-10.19 a 14.88,14.88 0 0 0 -3.08,-0.33 11.94,11.94 0 0 0 -9.61,4.71 10.76,10.76 0 0 0 -1.11,1.8 27,27 0 0 0 -17,-11.28 17,17 0 0 0 -3.23,-0.32 13.76,13.76 0 0 0 -10.83,5 13.91,13.91 0 0 0 -2.5,11.94 c 1.62,7.68 8.08,14.77 15.63,17.87 a 13.85,13.85 0 0 0 -5.31,4.17 c -2.92,3.74 -3.79,8.76 -2.46,14.14 C 96.88,141 106.65,150.1 117,151 h 0.12 0.13 0.75 a 14.7,14.7 0 0 0 11.63,-5.31 15.36,15.36 0 0 0 2.57,-4.62 c 4.29,6.64 11.45,11.52 18.41,11.95 a 15.34,15.34 0 0 0 1.65,0.09 12.22,12.22 0 0 0 10.08,-5.1 13.44,13.44 0 0 0 1.67,-3.16 c 4.08,5.57 10.1,10.1 16.44,10.55 h 0.06 1 a 11.54,11.54 0 0 0 9.75,-4.65 c 2.62,-3.65 3,-8.86 1,-14.66 a 28.65,28.65 0 0 0 -14.74,-16.52 10,10 0 0 0 2.48,-2.5 c 2.37,-3.44 2.67,-8.22 0.82,-13.12 a 29.26,29.26 0 0 0 -12.94,-14.81 9.65,9.65 0 0 0 1.77,-1.84 c 2.19,-3 2.59,-7.21 1.12,-11.82 l -0.08,-0.22 -0.09,-0.22 a 29.84,29.84 0 0 0 -11.65,-12.94 8.75,8.75 0 0 0 1.59,-1.73 c 1.94,-2.78 2.22,-6.49 0.78,-10.45 -2.52,-6.94 -9.68,-13.27 -17,-15.08 a 14.55,14.55 0 0 0 -3.77,-0.52 9.71,9.71 0 0 0 -7.87,3.68 c -3.6,-4.56 -9,-8.35 -14.22,-9.62 a 16.48,16.48 0 0 0 -3.87,-0.49 11.1,11.1 0 0 0 -8.93,4 A 27.94,27.94 0 0 0 90.38,21.52 H 90.27 90.16 A 19.84,19.84 0 0 0 86,21 12.24,12.24 0 0 0 76.4,25 8.66,8.66 0 0 0 75.8,25.79 27.88,27.88 0 0 0 59.71,13.91 h -0.05 v 0 a 21.35,21.35 0 0 0 -5,-0.63 c -4.38,0 -8.12,1.51 -10.54,4.27 C 40.67,11.24 33.68,6 25.78,4.39 A 23.1,23.1 0 0 0 21.08,3.9 Z m 95.77,108.38 a 12.43,12.43 0 0 0 4.78,-3.85 12,12 0 0 0 1.38,-2.3 28,28 0 0 0 12.09,10.07 12.53,12.53 0 0 0 -4,3.38 13.34,13.34 0 0 0 -1.81,3.18 28.07,28.07 0 0 0 -12.48,-10.48 z m 31.78,3.92 a 11.09,11.09 0 0 0 4.59,-4.87 28.77,28.77 0 0 0 10.72,8.67 10.82,10.82 0 0 0 -2.47,2.36 12.15,12.15 0 0 0 -1.69,3.06 27.8,27.8 0 0 0 -11.15,-9.18 z"
         style="fill:#ffffff"
         id="path24" />
    </g>
  </g>
</svg>
