<?xml version="1.0" encoding="UTF-8"?>
<!-- Generator: Adobe Illustrator 23.0.1, SVG Export Plug-In . SVG Version: 6.00 Build 0)  -->
<svg version="1.1" id="Layer_1" xmlns="http://www.w3.org/2000/svg" xmlns:xlink="http://www.w3.org/1999/xlink" x="0px" y="0px" viewBox="0 0 561.51 99.83" style="enable-background:new 0 0 561.51 99.83;" xml:space="preserve">
<style type="text/css">
	.st0{fill:#EE2E24;}
</style>
<g>
	<path class="st0" d="M514.41,23.74c0,0,3.39-23.61,23.61-23.74h23.5c0,0-4.64,23.74-23.91,23.74H514.41z"/>
	<path class="st0" d="M489.72,51.83c0,0,3.39-23.61,23.6-23.74h23.5c0,0-4.64,23.74-23.91,23.74H489.72z"/>
	<path class="st0" d="M39.36,87.81c1.52,0,3.5,1.4,3.5,3.38c0,5.14-7.82,7.59-16.12,7.59C9.23,98.79,0,82.67,0,67.02   c0-15.65,10.16-31.77,27.8-31.77c7.94,0,15.42,3.04,15.42,6.54c0,2.68-1.4,4.67-4.67,4.67c-2.22,0-4.21-3.5-11.8-3.5   c-11.91,0-17.64,13.43-17.64,23.35c0,13.08,6.66,24.76,17.64,24.76C34.33,91.08,37.02,87.81,39.36,87.81"/>
	<path class="st0" d="M64.58,93.41c0,3.5-1.52,5.37-4.21,5.37c-2.68,0-4.2-1.87-4.2-5.37V40.63c0-3.5,1.52-5.37,4.2-5.37   c2.69,0,4.21,1.87,4.21,5.37v5.84h0.24c3.03-6.89,8.41-11.21,13.66-11.21c3.97,0,5.61,2.22,5.61,4.55c0,2.34-1.64,3.62-5.73,4.56   c-4.67,1.05-13.78,5.02-13.78,18.8V93.41z"/>
	<path class="st0" d="M135.12,63.75c-0.35-10.4-6.19-21.49-17.52-21.49c-11.33,0-17.17,11.09-17.52,21.49H135.12z M100.09,70.76   c0.35,10.87,7.71,21.02,18.45,21.02c13.31,0,16.82-9.58,20.79-9.58c2.34,0,3.97,0.82,3.97,4.09c0,3.74-9.69,12.5-24.18,12.5   c-19.85,0-28.15-16.11-28.15-31.77c0-15.65,9.23-31.77,26.75-31.77c17.52,0,26.51,14.71,26.51,30.37c0,2.22-0.7,5.14-5.73,5.14   H100.09z"/>
	<path class="st0" d="M180.54,91.78c13.08,0,17.52-13.43,17.52-24.76c0-11.33-4.44-24.76-17.52-24.76   c-12.73,0-17.64,13.43-17.64,24.76C162.91,78.35,167.46,91.78,180.54,91.78 M198.06,13.3c0-3.5,1.52-5.37,4.2-5.37   c2.69,0,4.21,1.87,4.21,5.37v80.12c0,3.5-1.52,5.37-4.21,5.37c-2.68,0-4.2-1.87-4.2-5.37v-3.85h-0.35   c-3.74,6.07-9.93,9.23-17.17,9.23c-17.87,0-26.74-14.25-26.74-31.76c0-15.65,8.52-31.77,26.51-31.77c7.24,0,12.61,3.04,17.4,9.22   h0.35V13.3z"/>
	<path class="st0" d="M230.42,93.41c0,3.5-1.52,5.37-4.21,5.37c-2.69,0-4.2-1.87-4.2-5.37V40.62c0-3.5,1.52-5.37,4.2-5.37   c2.69,0,4.21,1.87,4.21,5.37V93.41z M226.22,14.23c3.15,0,5.72,2.57,5.72,5.72c0,3.15-2.57,5.72-5.72,5.72   c-3.15,0-5.72-2.57-5.72-5.72C220.5,16.8,223.07,14.23,226.22,14.23"/>
	<path class="st0" d="M257.52,93.41c0,3.5-1.52,5.37-4.21,5.37c-2.68,0-4.2-1.87-4.2-5.37V42.96h-5.49c-2.81,0-3.62-2.1-3.62-3.51   c0-1.4,0.81-3.5,3.62-3.5h5.49V22.29c0-3.62,1.52-5.49,4.2-5.49c2.69,0,4.21,1.87,4.21,5.49v13.67h5.49c2.8,0,3.62,2.1,3.62,3.5   c0,1.41-0.82,3.51-3.62,3.51h-5.49V93.41z"/>
	<path class="st0" d="M298,60.94c-6.88-2.66-12.81-4.95-12.81-8.98c0-5.01,5.29-6.78,9.82-6.78c5.51,0,8.23,2.05,10.62,3.86   c1.67,1.26,3.24,2.45,5.38,2.45c3.95,0,5.71-2.63,5.71-5.25c0-7.34-12.86-12.02-21.71-12.02c-10.75,0-22.18,6.51-22.18,18.56   c0,10.1,10.31,14.38,19.4,18.17c7.08,2.94,13.76,5.72,13.76,10.56c0,3.63-4.11,7.37-10.99,7.37c-6.52,0-10.37-2.69-13.47-4.85   c-2.11-1.47-3.93-2.74-6.03-2.74c-2.94,0-5.25,2.51-5.25,5.71c0,5.94,10.66,12.84,24.4,12.84c11.8,0,23.7-6.25,23.7-20.2   C318.36,68.8,307.54,64.62,298,60.94"/>
	<path class="st0" d="M356.06,88.87c-11.82,0-16.01-11.77-16.01-21.85c0-10.08,4.19-21.85,16.01-21.85   c11.82,0,16.01,11.78,16.01,21.85C372.07,77.1,367.88,88.87,356.06,88.87 M378.02,34.21c-2.9,0-5.83,2.09-5.83,6.07v1.08   c-4.93-4.82-9.97-7.14-16.12-7.14c-18.63,0-28.37,16.51-28.37,32.82c0,16.3,9.74,32.81,28.37,32.81c6.33,0,11.81-2.8,16.12-7.87   v1.8c0,3.98,2.93,6.07,5.83,6.07c2.83,0,5.83-2.13,5.83-6.07V40.27C383.85,36.34,380.84,34.21,378.02,34.21"/>
	<path class="st0" d="M419.93,34.91h-5.38V20.89c0-2.25,0.83-3.05,3.16-3.05h2.57c5.78,0,6.65-3.43,6.65-5.48   c0-3.38-3.58-5.48-6.88-5.48h-3.16c-8.93,0-14.7,5.68-14.7,14.47v13.56h-3.16c-3.88,0-6.18,2.05-6.18,5.48   c0,3.43,2.31,5.48,6.18,5.48h3.16v47.42c0,3.97,2.42,6.54,6.18,6.54c3.75,0,6.18-2.57,6.18-6.54V45.87h5.38   c3.87,0,6.18-2.05,6.18-5.48C426.11,36.96,423.8,34.91,419.93,34.91"/>
	<path class="st0" d="M456.55,45.17c9.76,0,14.91,8.43,15.31,17.07h-31.78C440.46,57.02,442.8,44.67,456.55,45.17 M478.31,80.46   c-1.69,0-3.14,1.13-4.97,2.56c-3.16,2.47-7.49,5.86-16.06,5.86c-9.97,0-16.64-6.77-17.11-16.84h37.43c4.68,0,6.77-2.01,6.77-6.53   c0-15.17-9.74-31.29-27.79-31.29c-19.01,0-28.96,16.51-28.96,32.81c0,15.13,7.73,32.81,29.54,32.81c12.86,0,25.92-8.01,25.92-13.77   C483.09,82.42,480.63,80.46,478.31,80.46"/>
</g>
</svg>