<?xml version="1.0" encoding="UTF-8" standalone="no"?>
<svg xmlns="http://www.w3.org/2000/svg" version="1.1" width="900" height="600" viewBox="0 0 873.786 582.524"><path fill="#fff" d="M0 0h873.786v582.524H0z"/><path d="M366.656 180.184c0 7.456.932 8.388 1.398 9.786.466 1.398 1.049 27.028-2.796 34.02-3.844 6.99-11.417 10.95-14.446 11.65-3.03.699-12.583-6.058-21.438-8.855-8.855-2.796-8.389-2.33-12.116-2.33-3.727 0-12.116 3.145-14.446 5.127-1.515-.233-1.864-.932-2.796 0-.932.932-4.66 4.66-5.593 6.99-.932 2.33-3.26 11.185-6.058 12.116-2.796.932-10.369 8.504-15.379 8.856-5.008.35-3.611-.233-6.99-.466-3.378-.233-3.728-3.728-6.99-5.593-3.261-1.864-4.194-3.262-4.194-3.262s-.932-3.728-2.33-3.728c-1.398 0-2.796 6.525-2.796 8.39 0 1.864 3.728 8.854 5.593 10.251 1.864 1.398 1.864 9.787.932 12.116-.932 2.33 1.864 4.662 2.329 6.99.466 2.33-2.795 4.194-1.397 4.66 1.397.466 3.262 3.262 3.262 6.06 0 2.795 6.99 3.727 8.388 6.523 1.398 2.797 1.864 7.457 2.33 10.254.466 2.796 2.097 1.514 2.33 8.388 2.213 1.049 5.592 3.261 8.388 4.66 2.796 1.398 2.33 4.66 6.058 6.059 3.728 1.397 3.728 0 5.592.465 1.864.466-.932.933 2.33 1.864 3.263.932 4.66-.465 7.458.932 2.796 1.398 4.194 4.661 6.058 5.593 1.864.932 9.786 3.261 10.252 3.728.466.465 5.593 2.33 6.525 2.33.932 0 3.728-1.865 3.728-1.865s3.262.932 6.058 0c2.796-.93 4.66-3.728 6.524-3.728 1.864 0 2.33.932 4.194.932 1.865 0 4.66-.932 4.66-.932s4.194-.932 7.456.932c3.262 1.865 10.718 10.72 10.718 14.448 0 3.727-.465 5.592-.465 5.592s3.728-.467 5.126.465c1.398.933 1.281-.815 11.65.933-.699-2.564-10.718-9.786-1.398-20.04 9.32-10.253 9.903-6.058 12.117-7.921 2.213-1.865 10.718-7.342 25.165-2.331 13.98-2.33 3.728-4.193 11.65-4.66 1.398-.583 4.079.116 6.991.933.932-1.749 2.913-3.38 6.059-2.798.582-1.63 4.426-3.844 8.387-4.193.583-3.146 10.603-7.106 16.312-7.457 2.329-2.097 5.01-11.417 17.708-6.99.465-3.028 2.563-7.923 6.059-8.855.699-6.29-1.633-18.99 4.66-23.3 6.29-5.71 12.233-4.429 22.835-4.194 7.223 1.515 10.718 6.99 13.047 7.456 2.33.466 3.262.466 6.059-1.397 2.796-1.865-.465-5.593 1.864-5.593 2.33 0 1.397.466 5.126 0 3.728-.465 3.262-1.747 5.592-2.329 3.73 1.865 7.922.465 9.786 1.864 1.866 1.397 2.098 1.28 6.059 1.864 1.397 2.33 5.125 2.33 5.125 2.33s-2.795-.933-1.863-2.33c.932-1.398 0-5.593-1.865-7.457-1.863-1.864-2.795-2.33-4.193-4.193-1.397-1.864.465-1.865-1.865-4.194-2.33-2.33-7.456-4.66-8.854-7.457-1.397-2.796-.932-4.66-3.262-6.99s-11.65-10.252-12.115-18.64c-.466-8.39.465-16.427 6.057-19.108-.233-4.893.933-5.592 6.058-8.388 5.125-2.796 5.594-.932 8.854-.932 3.262 0 5.128.466 8.389-1.863 3.262-2.33.466-7.456 8.854-14.913 8.39-7.456 11.65-11.184 14.448-11.65 2.796-.466 12.93-7.573 17.242-6.99 3.03-3.611 6.059-7.923 9.787-10.719 3.728-2.796 7.923-2.796 9.786-5.126 1.864-2.33 1.397-6.525 6.99-10.254 5.593-3.727 10.254-6.057 12.583-7.922 2.33-1.864 7.456-.466 9.32-2.33 1.865-1.864 1.865-8.854 3.728-10.252 1.865-1.398-6.058 3.262-10.252 5.126-4.194 1.864-10.252 5.126-15.378 4.66-5.127-.466-2.332 2.795-5.127 3.728-2.796.932-7.456.466-9.321 2.33-1.864 1.864-5.125 6.525-7.921 8.389-2.797 1.863-4.195 1.398-6.99 2.796-2.798 1.398-5.127 2.796-7.457 3.728-2.33.932-9.321.466-9.321.466s-6.059 7.922-8.855 10.718c-2.796 2.796-6.058 2.33-8.854 3.728-2.796 1.398-26.563 16.777-42.873 19.107-16.312 2.33-8.855-1.398-13.98 0-5.126 1.398-12.584 11.184-18.641 11.65-6.059.467-7.923 0-9.32 0-1.399 0-8.855 4.66-13.515 3.729-6.874 2.097-12 1.631-13.98 1.397-1.981-.232-5.593 2.33-10.72 0-3.96-1.28-3.96 1.515-11.649-.931-7.69-2.447-13.05.932-16.777-.932-3.729-1.864-3.263-3.262-6.059-3.262-2.796 0-2.796 1.864-6.058 1.864s-3.728-1.864-6.524-1.864-6.058 1.864-10.253 1.398c-4.194-.466-5.592-2.33-8.388-2.33-2.797-.003-18.176-6.527-18.176-6.527z" fill="#ed8000"/><g fill="#006651"><path d="M414.335 464.855c8.091-5.825 15.21-7.767 26.214-9.708 11.003-1.942 22.654-5.177 28.801-6.796 6.148-1.62-20.71 7.767-27.506 9.708-6.796 1.942-27.51 6.796-27.51 6.796zM458.672 447.702c-2.264-13.915 3.235-28.478 15.856-34.303 2.913 10.031-6.147 27.185-15.856 34.303zM479.983 440.46c-6.748-11.527 4.674-26.396 13.041-33.686 3.836 6.947-2.96 27.66-13.04 33.686zM499.773 431.521c-7.216-9.885 1.293-27.184 10.355-33.98 3.56 9.709 0 27.184-10.355 33.98zM519.567 419.16c-6.527-9.323-1.995-23.886 7.39-33.27 6.796 7.767.971 24.596-7.39 33.27zM535.37 406.603c-5.5-8.738 1.296-29.775 10.034-35.6 3.883 7.767.97 29.775-10.033 35.6zM547.992 403.366c-1.617-12.621 20.39-26.538 29.45-26.214-.97 10.356-10.357 21.684-29.45 26.214zM535.695 417.605c10.355-10.68 30.42-10.68 37.54-8.414-1.942 6.15-25.565 19.74-37.54 8.414z"/><path d="M521.454 428.285c14.563-3.884 23.95-7.12 32.688 1.941-6.15 7.767-29.775 5.501-32.688-1.941zM500.744 437.67c13.914-7.444 30.743 3.56 33.332 10.032-15.534 6.474-33.655-8.412-33.332-10.031zM481.649 448.35c12.62-4.854 27.184 1.62 33.01 8.738-6.797 3.235-24.597 6.797-33.01-8.737zM464.175 453.852c14.563-1.618 28.537 9.403 31.581 15.704-18.638 1.771-25.756-3.73-31.581-15.704zM459.483 464.855c-8.09-5.825-15.21-7.767-26.213-9.708-11.004-1.942-22.654-5.177-28.803-6.796-6.149-1.62 20.712 7.767 27.508 9.708 6.796 1.942 27.508 6.796 27.508 6.796zM415.146 447.702c2.265-13.915-3.235-28.478-15.858-34.303-2.912 10.031 6.149 27.185 15.858 34.303zM393.834 440.46c6.749-11.527-4.674-26.396-13.04-33.686-3.837 6.947 2.96 27.66 13.04 33.686zM374.045 431.521c7.215-9.885-1.294-27.184-10.356-33.98-3.559 9.709 0 27.184 10.356 33.98zM354.25 419.16c6.527-9.323 1.995-23.886-7.39-33.27-6.796 7.767-.97 24.596 7.39 33.27zM338.447 406.603c5.5-8.738-1.296-29.775-10.033-35.6-3.884 7.767-.971 29.775 10.033 35.6zM325.825 403.366c1.618-12.621-20.39-26.538-29.45-26.214.97 10.356 10.357 21.684 29.45 26.214zM338.122 417.605c-10.355-10.68-30.42-10.68-37.54-8.414 1.942 6.15 25.566 19.74 37.54 8.414z"/><path d="M352.363 428.285c-14.563-3.884-23.95-7.12-32.687 1.941 6.15 7.767 29.774 5.501 32.687-1.941zM373.074 437.67c-13.915-7.444-30.744 3.56-33.332 10.032 15.534 6.474 33.654-8.412 33.332-10.031zM392.169 448.35c-12.621-4.854-27.185 1.62-33.01 8.738 6.796 3.235 24.596 6.797 33.01-8.737zM409.644 453.852c-14.563-1.618-28.538 9.403-31.583 15.704 18.638 1.771 25.757-3.73 31.583-15.704z"/></g></svg>