<?xml version="1.0" encoding="UTF-8"?>
<!DOCTYPE svg PUBLIC "-//W3C//DTD SVG 1.1//EN" "http://www.w3.org/Graphics/SVG/1.1/DTD/svg11.dtd">
<svg xmlns="http://www.w3.org/2000/svg" version="1.1" width="24px" height="24px" style="shape-rendering:geometricPrecision; text-rendering:geometricPrecision; image-rendering:optimizeQuality; fill-rule:evenodd; clip-rule:evenodd" xmlns:xlink="http://www.w3.org/1999/xlink">
<g><path style="opacity:0.735" fill="#fefefe" d="M 9.5,-0.5 C 10.8333,-0.5 12.1667,-0.5 13.5,-0.5C 13.3347,3.18174 13.5014,6.84841 14,10.5C 15.4443,8.84464 17.2776,8.17798 19.5,8.5C 14.1667,20.5 8.83333,20.5 3.5,8.5C 5.72241,8.17798 7.55575,8.84464 9,10.5C 9.49863,6.84841 9.6653,3.18174 9.5,-0.5 Z"/></g>
<g><path style="opacity:0.77" fill="#fefefe" d="M 23.5,14.5 C 23.5,17.5 23.5,20.5 23.5,23.5C 15.5,23.5 7.5,23.5 -0.5,23.5C -0.5,20.5 -0.5,17.5 -0.5,14.5C 2.6873,14.0468 4.02063,15.7135 3.5,19.5C 8.83333,19.5 14.1667,19.5 19.5,19.5C 18.9794,15.7135 20.3127,14.0468 23.5,14.5 Z"/></g>
</svg>
