<?xml version="1.0" encoding="UTF-8"?>
<!DOCTYPE svg PUBLIC "-//W3C//DTD SVG 1.1//EN" "http://www.w3.org/Graphics/SVG/1.1/DTD/svg11.dtd">
<svg xmlns="http://www.w3.org/2000/svg" version="1.1" width="24px" height="24px" style="shape-rendering:geometricPrecision; text-rendering:geometricPrecision; image-rendering:optimizeQuality; fill-rule:evenodd; clip-rule:evenodd" xmlns:xlink="http://www.w3.org/1999/xlink">
<g><path style="opacity:0.479" fill="#fefefe" d="M 23.5,2.5 C 23.5,4.5 23.5,6.5 23.5,8.5C 18.3978,11.7549 13.3978,15.2549 8.5,19C 5.51559,20.2714 2.51559,21.438 -0.5,22.5C -0.5,21.1667 -0.5,19.8333 -0.5,18.5C 1.55407,14.984 4.22073,11.8173 7.5,9C 10.8333,6.33333 14.1667,3.66667 17.5,1C 19.8401,0.25164 21.8401,0.75164 23.5,2.5 Z M 4.5,15.5 C 7.01185,16.2162 7.01185,17.2162 4.5,18.5C 3.91297,17.7666 3.91297,16.7666 4.5,15.5 Z"/></g>
</svg>
