<?xml version="1.0" encoding="UTF-8"?>
<!DOCTYPE svg PUBLIC "-//W3C//DTD SVG 1.1//EN" "http://www.w3.org/Graphics/SVG/1.1/DTD/svg11.dtd">
<svg xmlns="http://www.w3.org/2000/svg" version="1.1" width="24px" height="24px" style="shape-rendering:geometricPrecision; text-rendering:geometricPrecision; image-rendering:optimizeQuality; fill-rule:evenodd; clip-rule:evenodd" xmlns:xlink="http://www.w3.org/1999/xlink">
<g><path style="opacity:0.72" fill="#fefefe" d="M 9.5,-0.5 C 13.1667,-0.5 16.8333,-0.5 20.5,-0.5C 21.2905,0.40128 22.2905,1.06795 23.5,1.5C 23.5,2.83333 23.5,4.16667 23.5,5.5C 22.8485,6.09065 22.1818,6.75731 21.5,7.5C 16.9057,3.41556 12.5723,3.58223 8.5,8C 12.8711,8.17248 17.2044,8.67248 21.5,9.5C 20.0499,10.8498 19.3832,12.5165 19.5,14.5C 15.8183,14.3347 12.1516,14.5014 8.5,15C 10.1692,17.0847 12.3359,18.2514 15,18.5C 18.1725,17.8127 21.0058,16.4794 23.5,14.5C 23.5,16.8333 23.5,19.1667 23.5,21.5C 22.2905,21.9321 21.2905,22.5987 20.5,23.5C 16.8333,23.5 13.1667,23.5 9.5,23.5C 6.3065,21.4644 3.97316,18.631 2.5,15C 1.55198,14.5172 0.551975,14.3505 -0.5,14.5C -0.5,13.8333 -0.5,13.1667 -0.5,12.5C 0.833333,12.1667 0.833333,11.8333 -0.5,11.5C -0.5,10.5 -0.5,9.5 -0.5,8.5C 0.551975,8.64945 1.55198,8.48278 2.5,8C 3.97316,4.36897 6.3065,1.53564 9.5,-0.5 Z"/></g>
</svg>
