<?xml version="1.0" encoding="UTF-8"?>
<!DOCTYPE svg PUBLIC "-//W3C//DTD SVG 1.1//EN" "http://www.w3.org/Graphics/SVG/1.1/DTD/svg11.dtd">
<svg xmlns="http://www.w3.org/2000/svg" version="1.1" width="128px" height="128px" style="shape-rendering:geometricPrecision; text-rendering:geometricPrecision; image-rendering:optimizeQuality; fill-rule:evenodd; clip-rule:evenodd" xmlns:xlink="http://www.w3.org/1999/xlink">
<g><path style="opacity:0.252" fill="#f9fbf2" d="M 61.5,2.5 C 64.2257,2.26386 66.559,3.09719 68.5,5C 88.0506,19.2683 107.384,33.7683 126.5,48.5C 118.59,72.7309 110.59,96.8975 102.5,121C 76.5,121.667 50.5,121.667 24.5,121C 16.5219,97.2298 8.52187,73.0631 0.5,48.5C 20.8518,33.1424 41.1852,17.809 61.5,2.5 Z"/></g>
<g><path style="opacity:1" fill="#bad969" d="M 93.5,25.5 C 96.7198,27.6029 99.7198,29.9362 102.5,32.5C 101.163,33.3149 100.163,34.4815 99.5,36C 98.5,36.6667 97.5,36.6667 96.5,36C 98.1802,35.6532 99.1802,34.6532 99.5,33C 98.1834,31.3857 96.5167,30.2191 94.5,29.5C 93.7542,28.2638 93.4208,26.9305 93.5,25.5 Z"/></g>
<g><path style="opacity:1" fill="#b3d55b" d="M 55.5,9.5 C 56.531,10.2485 57.6976,10.9152 59,11.5C 59.7835,14.7603 59.6168,17.9269 58.5,21C 54.8538,23.3877 52.5205,22.3877 51.5,18C 53.119,15.8402 52.7856,14.3402 50.5,13.5C 52.1423,12.197 53.8089,10.8637 55.5,9.5 Z"/></g>
<g><path style="opacity:1" fill="#b4d65d" d="M 69.5,8.5 C 70.8717,9.51163 72.205,10.5116 73.5,11.5C 72.0222,11.238 70.6888,11.5713 69.5,12.5C 75.1685,16.4818 74.8352,19.8151 68.5,22.5C 66.5786,18.7112 66.0786,14.7112 67,10.5C 67.9947,9.93406 68.828,9.26739 69.5,8.5 Z"/></g>
<g><path style="opacity:1" fill="#a7cf3f" d="M 69.5,8.5 C 68.828,9.26739 67.9947,9.93406 67,10.5C 66.0786,14.7112 66.5786,18.7112 68.5,22.5C 74.8352,19.8151 75.1685,16.4818 69.5,12.5C 70.6888,11.5713 72.0222,11.238 73.5,11.5C 80.1667,16.1667 86.8333,20.8333 93.5,25.5C 93.4208,26.9305 93.7542,28.2638 94.5,29.5C 96.5167,30.2191 98.1834,31.3857 99.5,33C 99.1802,34.6532 98.1802,35.6532 96.5,36C 97.5,36.6667 98.5,36.6667 99.5,36C 100.163,34.4815 101.163,33.3149 102.5,32.5C 105.833,34.8333 109.167,37.1667 112.5,39.5C 110.491,40.9079 108.491,42.4079 106.5,44C 106.672,46.6709 107.005,49.3376 107.5,52C 109.769,52.7581 111.936,52.5914 114,51.5C 113.86,48.5174 113.694,45.6841 113.5,43C 114.448,42.5172 115.448,42.3505 116.5,42.5C 119.602,44.0993 122.269,46.266 124.5,49C 121.26,58.8877 117.926,68.7211 114.5,78.5C 112.656,76.7211 111.99,74.3878 112.5,71.5C 110.801,71.3398 109.134,71.5065 107.5,72C 108.428,72.3879 109.095,73.0546 109.5,74C 108.971,75.5589 108.304,77.0589 107.5,78.5C 108.376,79.2508 109.376,79.7508 110.5,80C 109.376,80.2492 108.376,80.7492 107.5,81.5C 109.655,82.0014 111.322,83.0014 112.5,84.5C 108.833,96.5007 105.166,108.501 101.5,120.5C 76.1667,120.5 50.8333,120.5 25.5,120.5C 21.4961,107.489 17.4961,94.4891 13.5,81.5C 13.3691,80.6236 13.7025,79.9569 14.5,79.5C 15.1667,80.5 15.8333,81.5 16.5,82.5C 18.339,80.4729 18.839,78.1396 18,75.5C 17.6667,75.8333 17.3333,76.1667 17,76.5C 17.0169,70.1922 15.6836,69.8589 13,75.5C 12.9252,73.065 12.0919,72.3984 10.5,73.5C 7.94015,65.32 5.27348,57.1534 2.5,49C 4.7312,46.266 7.39787,44.0993 10.5,42.5C 11.8333,42.5 13.1667,42.5 14.5,42.5C 13.7708,45.9803 12.7708,49.3136 11.5,52.5C 13.924,52.8076 16.2573,52.4742 18.5,51.5C 17.675,50.6143 16.675,50.281 15.5,50.5C 15.2965,48.6096 15.9632,47.1096 17.5,46C 16.4535,43.7822 15.4535,41.6156 14.5,39.5C 26.5,30.8333 38.5,22.1667 50.5,13.5C 52.7856,14.3402 53.119,15.8402 51.5,18C 52.5205,22.3877 54.8538,23.3877 58.5,21C 59.6168,17.9269 59.7835,14.7603 59,11.5C 57.6976,10.9152 56.531,10.2485 55.5,9.5C 58.1731,7.82358 60.8397,6.15691 63.5,4.5C 65.7887,5.46507 67.7887,6.7984 69.5,8.5 Z"/></g>
<g><path style="opacity:1" fill="#b7d761" d="M 66.5,25.5 C 69.6041,24.9711 71.9375,25.9711 73.5,28.5C 72.0144,30.3016 71.0144,32.3016 70.5,34.5C 71.675,34.281 72.675,34.6143 73.5,35.5C 71.2573,36.4742 68.924,36.8076 66.5,36.5C 67.2524,33.9097 68.2524,31.4097 69.5,29C 69.065,25.937 68.2316,25.7703 67,28.5C 66.5172,27.552 66.3505,26.552 66.5,25.5 Z"/></g>
<g><path style="opacity:1" fill="#b8d863" d="M 38.5,25.5 C 40.8333,25.5 43.1667,25.5 45.5,25.5C 45.3796,27.1986 45.0463,28.8653 44.5,30.5C 44.8178,31.6473 45.4844,32.4806 46.5,33C 45.0267,33.7096 44.3601,34.8762 44.5,36.5C 43.5,36.5 42.5,36.5 41.5,36.5C 38.6812,33.0847 39.0145,29.918 42.5,27C 41.2161,26.3162 40.0495,26.4829 39,27.5C 38.5357,26.9056 38.369,26.2389 38.5,25.5 Z"/></g>
<g><path style="opacity:1" fill="#b6d761" d="M 80.5,25.5 C 82.5273,25.3379 84.5273,25.5045 86.5,26C 89.3389,32.9485 87.3389,36.7818 80.5,37.5C 80.7093,36.914 81.0426,36.414 81.5,36C 79.9644,34.4006 79.4644,32.5672 80,30.5C 80.687,33.4256 82.5203,34.7589 85.5,34.5C 85.5,33.1667 85.5,31.8333 85.5,30.5C 80.5776,30.8896 80.2443,29.7229 84.5,27C 83.2161,26.3162 82.0495,26.4829 81,27.5C 80.5357,26.9056 80.369,26.2389 80.5,25.5 Z"/></g>
<g><path style="opacity:1" fill="#b3d559" d="M 53.5,25.5 C 55.5805,25.634 57.5805,26.134 59.5,27C 59.2734,29.369 59.1067,31.869 59,34.5C 57.4842,37.0515 56.6509,36.7181 56.5,33.5C 55.1667,33.5 53.8333,33.5 52.5,33.5C 52.2786,30.7212 52.612,28.0545 53.5,25.5 Z"/></g>
<g><path style="opacity:1" fill="#b7d863" d="M 14.5,39.5 C 15.4535,41.6156 16.4535,43.7822 17.5,46C 15.9632,47.1096 15.2965,48.6096 15.5,50.5C 16.675,50.281 17.675,50.6143 18.5,51.5C 16.2573,52.4742 13.924,52.8076 11.5,52.5C 12.7708,49.3136 13.7708,45.9803 14.5,42.5C 13.1667,42.5 11.8333,42.5 10.5,42.5C 11.795,41.5116 13.1283,40.5116 14.5,39.5 Z"/></g>
<g><path style="opacity:1" fill="#b6d760" d="M 66.5,41.5 C 68.1992,41.3398 69.8659,41.5065 71.5,42C 70.1308,44.2393 70.6308,46.0726 73,47.5C 73.4935,49.1341 73.6602,50.8008 73.5,52.5C 71.9397,52.5191 70.4397,52.8524 69,53.5C 65.7446,51.4839 65.9112,50.4839 69.5,50.5C 69.5,49.1667 69.5,47.8333 69.5,46.5C 68.5,46.5 67.5,46.5 66.5,46.5C 66.5,44.8333 66.5,43.1667 66.5,41.5 Z"/></g>
<g><path style="opacity:1" fill="#b7d863" d="M 93.5,41.5 C 95.924,41.1924 98.2573,41.5258 100.5,42.5C 98.0679,45.5906 98.0679,48.5906 100.5,51.5C 99.3112,52.4287 97.9778,52.762 96.5,52.5C 96.8204,49.1016 96.487,45.7683 95.5,42.5C 94.056,43.981 93.3894,43.6477 93.5,41.5 Z"/></g>
<g><path style="opacity:1" fill="#b3d55a" d="M 112.5,39.5 C 113.872,40.5116 115.205,41.5116 116.5,42.5C 115.448,42.3505 114.448,42.5172 113.5,43C 113.694,45.6841 113.86,48.5174 114,51.5C 111.936,52.5914 109.769,52.7581 107.5,52C 107.005,49.3376 106.672,46.6709 106.5,44C 108.491,42.4079 110.491,40.9079 112.5,39.5 Z"/></g>
<g><path style="opacity:1" fill="#b7d862" d="M 25.5,41.5 C 30.2945,40.8595 31.9612,42.6928 30.5,47C 33.028,48.0174 33.028,49.1841 30.5,50.5C 30.7093,51.086 31.0426,51.586 31.5,52C 29.1902,52.4966 26.8568,52.6633 24.5,52.5C 24.7563,50.0628 25.4229,47.7294 26.5,45.5C 24.4197,44.4718 24.0864,43.1385 25.5,41.5 Z"/></g>
<g><path style="opacity:1" fill="#b3d559" d="M 38.5,41.5 C 40.924,41.1924 43.2573,41.5258 45.5,42.5C 43.5387,43.8479 43.3721,45.1813 45,46.5C 45.8955,51.6384 43.7288,54.1384 38.5,54C 39.3081,53.6924 39.9747,53.1924 40.5,52.5C 39.7515,48.8433 39.0848,45.1766 38.5,41.5 Z"/></g>
<g><path style="opacity:1" fill="#b5d75e" d="M 53.5,41.5 C 55.4672,41.2606 57.3005,41.5939 59,42.5C 59.2868,44.8907 59.7868,47.2241 60.5,49.5C 58.1407,53.125 55.3073,53.4584 52,50.5C 51.9145,47.4241 52.4145,44.4241 53.5,41.5 Z"/></g>
<g><path style="opacity:1" fill="#e3f0c3" d="M 16.5,64.5 C 16.7678,62.901 16.4345,61.5676 15.5,60.5C 18.3382,58.6941 18.0048,57.6941 14.5,57.5C 13.8333,56.1667 13.1667,56.1667 12.5,57.5C 11.6236,57.6309 10.9569,57.2975 10.5,56.5C 19.8421,53.9451 21.8421,56.6118 16.5,64.5 Z"/></g>
<g><path style="opacity:1" fill="#e5f1c7" d="M 114.5,55.5 C 112.31,56.9293 110.976,58.9293 110.5,61.5C 110.66,59.8008 110.494,58.1341 110,56.5C 108.059,60.5537 107.225,60.2203 107.5,55.5C 109.833,55.5 112.167,55.5 114.5,55.5 Z"/></g>
<g><path style="opacity:1" fill="#f6faeb" d="M 14.5,57.5 C 13.1148,58.9473 13.4482,59.9473 15.5,60.5C 16.4345,61.5676 16.7678,62.901 16.5,64.5C 15.8485,63.9094 15.1818,63.2427 14.5,62.5C 13.1696,64.3469 13.503,65.8469 15.5,67C 13.8333,67.6667 12.1667,67.6667 10.5,67C 12.3444,64.1963 13.0111,61.0297 12.5,57.5C 13.1667,56.1667 13.8333,56.1667 14.5,57.5 Z"/></g>
<g><path style="opacity:1" fill="#b1d455" d="M 14.5,57.5 C 18.0048,57.6941 18.3382,58.6941 15.5,60.5C 13.4482,59.9473 13.1148,58.9473 14.5,57.5 Z"/></g>
<g><path style="opacity:1" fill="#e9f2ce" d="M 67.5,55.5 C 69.7925,55.2436 71.9592,55.5769 74,56.5C 74.7494,57.635 74.5827,58.635 73.5,59.5C 71.7363,57.5213 69.7363,57.188 67.5,58.5C 68.714,60.0691 70.3807,60.9024 72.5,61C 75.1667,63 75.1667,65 72.5,67C 70.141,67.2078 67.9743,67.3744 66,67.5C 65.3333,66.1667 65.3333,64.8333 66,63.5C 67.7889,65.229 69.9556,65.8957 72.5,65.5C 72.719,64.325 72.3857,63.325 71.5,62.5C 66.8003,61.9847 65.4669,59.6513 67.5,55.5 Z"/></g>
<g><path style="opacity:1" fill="#ebf4d4" d="M 25.5,55.5 C 27.5273,55.3379 29.5273,55.5045 31.5,56C 30.2799,57.5253 29.6132,59.3587 29.5,61.5C 29.6132,63.6413 30.2799,65.4747 31.5,67C 29.5,67.6667 27.5,67.6667 25.5,67C 26.7042,65.6472 27.3708,63.9806 27.5,62C 27.1705,59.6591 26.5038,57.4924 25.5,55.5 Z"/></g>
<g><path style="opacity:1" fill="#cfe597" d="M 38.5,58.5 C 39.7095,58.9321 40.7095,59.5987 41.5,60.5C 40.6618,60.8417 40.3284,61.5084 40.5,62.5C 39.8333,63.8333 39.1667,65.1667 38.5,66.5C 38.5,63.8333 38.5,61.1667 38.5,58.5 Z"/></g>
<g><path style="opacity:1" fill="#f4f9e6" d="M 41.5,60.5 C 40.7095,59.5987 39.7095,58.9321 38.5,58.5C 38.272,56.6453 38.9387,55.8119 40.5,56C 41.8869,58.045 43.0536,60.2117 44,62.5C 44.6869,60.4325 44.5202,58.4325 43.5,56.5C 44.5,55.1667 45.5,55.1667 46.5,56.5C 45.8992,60.1594 45.2325,63.8261 44.5,67.5C 43.2172,65.2699 42.2172,62.9366 41.5,60.5 Z"/></g>
<g><path style="opacity:1" fill="#f1f7e0" d="M 58.5,62.5 C 57.1667,63.1667 55.8333,63.8333 54.5,64.5C 54.5,65.5 54.5,66.5 54.5,67.5C 53.448,67.6495 52.448,67.4828 51.5,67C 52.7963,63.567 53.963,60.067 55,56.5C 55.414,56.0426 55.914,55.7093 56.5,55.5C 57.6348,57.7067 58.3015,60.0401 58.5,62.5 Z"/></g>
<g><path style="opacity:1" fill="#b2d558" d="M 55.5,58.5 C 57.0878,59.6353 57.4212,60.9686 56.5,62.5C 55.5713,61.3112 55.238,59.9778 55.5,58.5 Z"/></g>
<g><path style="opacity:1" fill="#deecb5" d="M 58.5,62.5 C 59.2189,64.0913 60.2189,65.5913 61.5,67C 60.2068,67.49 58.8734,67.6567 57.5,67.5C 57.5,66.5 57.5,65.5 57.5,64.5C 56.5,64.5 55.5,64.5 54.5,64.5C 55.8333,63.8333 57.1667,63.1667 58.5,62.5 Z"/></g>
<g><path style="opacity:1" fill="#e1eebe" d="M 96.5,55.5 C 98.1992,55.3398 99.8659,55.5065 101.5,56C 102.731,57.1827 102.731,58.3493 101.5,59.5C 100.158,57.9951 98.4918,57.3285 96.5,57.5C 96.238,58.9778 96.5713,60.3112 97.5,61.5C 98.8418,58.6794 99.5084,58.8461 99.5,62C 99.5084,65.1539 98.8418,65.3206 97.5,62.5C 96.5713,63.6888 96.238,65.0222 96.5,66.5C 98.7659,66.8588 100.599,66.1922 102,64.5C 102.49,65.7932 102.657,67.1266 102.5,68.5C 99.4816,68.6646 96.4816,68.498 93.5,68C 94.1271,66.2622 94.4604,64.4289 94.5,62.5C 94.3868,60.3587 93.7201,58.5253 92.5,57C 94.0581,56.79 95.3915,56.29 96.5,55.5 Z"/></g>
<g><path style="opacity:1" fill="#cde493" d="M 114.5,55.5 C 116.912,55.6941 117.912,57.0274 117.5,59.5C 115.876,59.6399 114.71,58.9733 114,57.5C 112.92,60.6145 112.754,63.6145 113.5,66.5C 112.391,66.4431 111.391,66.1098 110.5,65.5C 110.5,64.1667 110.5,62.8333 110.5,61.5C 110.976,58.9293 112.31,56.9293 114.5,55.5 Z"/></g>
<g><path style="opacity:1" fill="#ecf4d4" d="M 81.5,55.5 C 83.5,55.5 85.5,55.5 87.5,55.5C 87.6567,56.8734 87.49,58.2068 87,59.5C 85.386,56.3977 83.5526,56.0644 81.5,58.5C 83.5656,59.9063 85.7323,61.2396 88,62.5C 88.5879,65.588 87.2545,67.2547 84,67.5C 82.4634,66.8864 81.13,66.8864 80,67.5C 79.3333,66.1667 79.3333,64.8333 80,63.5C 81.7542,65.25 83.9208,65.9167 86.5,65.5C 86.5,64.5 86.5,63.5 86.5,62.5C 81.2044,62.5566 79.5377,60.2233 81.5,55.5 Z"/></g>
<g><path style="opacity:1" fill="#f1f7df" d="M 40.5,62.5 C 40.2267,64.451 40.8934,65.951 42.5,67C 40.2568,67.7966 38.9234,67.6299 38.5,66.5C 39.1667,65.1667 39.8333,63.8333 40.5,62.5 Z"/></g>
<g><path style="opacity:1" fill="#f7faed" d="M 110.5,65.5 C 111.391,66.1098 112.391,66.4431 113.5,66.5C 112.054,67.6129 110.387,67.7796 108.5,67C 109.416,66.7216 110.082,66.2216 110.5,65.5 Z"/></g>
<g><path style="opacity:1" fill="#bddb6e" d="M 66.5,71.5 C 69.6041,70.9711 71.9375,71.9711 73.5,74.5C 73.3241,76.6716 73.1575,79.0049 73,81.5C 70.8615,82.7691 68.6948,82.7691 66.5,81.5C 68.1724,81.6126 70.0058,81.2792 72,80.5C 72.658,78.892 72.158,77.7253 70.5,77C 71.3802,75.6439 71.7135,74.1439 71.5,72.5C 69.8561,72.2865 68.3561,72.6198 67,73.5C 66.5357,72.9056 66.369,72.2389 66.5,71.5 Z"/></g>
<g><path style="opacity:1" fill="#b4d65b" d="M 94.5,71.5 C 100.178,71.1572 102.344,73.8238 101,79.5C 98.9515,82.8064 96.6182,83.1398 94,80.5C 93.2642,77.408 93.4309,74.408 94.5,71.5 Z"/></g>
<g><path style="opacity:1" fill="#bad968" d="M 114.5,78.5 C 114.405,80.7857 113.738,82.7857 112.5,84.5C 111.322,83.0014 109.655,82.0014 107.5,81.5C 108.376,80.7492 109.376,80.2492 110.5,80C 109.376,79.7508 108.376,79.2508 107.5,78.5C 108.304,77.0589 108.971,75.5589 109.5,74C 109.095,73.0546 108.428,72.3879 107.5,72C 109.134,71.5065 110.801,71.3398 112.5,71.5C 111.99,74.3878 112.656,76.7211 114.5,78.5 Z"/></g>
<g><path style="opacity:1" fill="#bbda6b" d="M 80.5,71.5 C 86.1667,71.6636 86.5,71.9969 81.5,72.5C 81.5,73.5 81.5,74.5 81.5,75.5C 86.0685,75.0826 87.5685,77.0826 86,81.5C 84.5341,83.3249 82.7008,83.8249 80.5,83C 86.2499,81.433 86.5832,79.5997 81.5,77.5C 80.5344,75.604 80.2011,73.604 80.5,71.5 Z"/></g>
<g><path style="opacity:1" fill="#b9d967" d="M 13.5,81.5 C 12.5115,78.9188 11.5115,76.2521 10.5,73.5C 12.0919,72.3984 12.9252,73.065 13,75.5C 15.6836,69.8589 17.0169,70.1922 17,76.5C 17.3333,76.1667 17.6667,75.8333 18,75.5C 18.839,78.1396 18.339,80.4729 16.5,82.5C 15.8333,81.5 15.1667,80.5 14.5,79.5C 13.7025,79.9569 13.3691,80.6236 13.5,81.5 Z"/></g>
<g><path style="opacity:1" fill="#bedb71" d="M 39.5,71.5 C 41.1992,71.3398 42.8659,71.5065 44.5,72C 39.6035,74.1239 39.6035,75.4572 44.5,76C 46.6994,81.1311 45.0328,83.4644 39.5,83C 41.6701,82.1888 43.3368,80.8554 44.5,79C 43.6667,76.5 42.1667,76 40,77.5C 39.5045,75.5273 39.3379,73.5273 39.5,71.5 Z"/></g>
<g><path style="opacity:1" fill="#b8d865" d="M 52.5,71.5 C 54.924,71.1924 57.2573,71.5258 59.5,72.5C 58.9645,75.1052 58.7978,77.7718 59,80.5C 54.5215,84.3979 53.3548,85.0646 55.5,82.5C 55.7076,80.0799 55.3742,77.7466 54.5,75.5C 57.2569,72.6845 56.7569,72.0178 53,73.5C 52.5357,72.9056 52.369,72.2389 52.5,71.5 Z"/></g>
<g><path style="opacity:1" fill="#b9d967" d="M 25.5,71.5 C 27.5273,71.3379 29.5273,71.5045 31.5,72C 29.8659,72.4935 28.1992,72.6602 26.5,72.5C 26.5,73.5 26.5,74.5 26.5,75.5C 29.5904,74.83 31.257,75.9967 31.5,79C 31.2547,82.2545 29.588,83.5879 26.5,83C 28.229,81.2111 28.8957,79.0444 28.5,76.5C 27.5,76.5 26.5,76.5 25.5,76.5C 25.5,74.8333 25.5,73.1667 25.5,71.5 Z"/></g>
<g><path style="opacity:1" fill="#b5d75f" d="M 80.5,85.5 C 82.5,85.5 84.5,85.5 86.5,85.5C 86.4809,87.0603 86.1476,88.5603 85.5,90C 87.0639,91.6049 87.5639,93.4382 87,95.5C 86.7508,94.376 86.2508,93.376 85.5,92.5C 84.8333,94.1667 84.1667,95.8333 83.5,97.5C 79.924,94.8273 79.5907,91.6606 82.5,88C 81.5509,87.3828 80.7175,87.5494 80,88.5C 79.5304,87.4232 79.6971,86.4232 80.5,85.5 Z"/></g>
<g><path style="opacity:1" fill="#b7d762" d="M 39.5,86.5 C 41.7925,86.2436 43.9592,86.5769 46,87.5C 46.6838,88.7839 46.5171,89.9505 45.5,91C 48.1244,96.0634 46.4577,98.0634 40.5,97C 40,96.5 39.5,96 39,95.5C 39.1519,92.553 39.3185,89.553 39.5,86.5 Z"/></g>
<g><path style="opacity:1" fill="#b4d65c" d="M 67.5,85.5 C 69.5,85.5 71.5,85.5 73.5,85.5C 72.7871,88.2371 72.7871,90.9037 73.5,93.5C 72.3539,94.7187 71.3539,96.0521 70.5,97.5C 69.6143,96.675 69.281,95.675 69.5,94.5C 68.5,94.5 67.5,94.5 66.5,94.5C 66.5861,92.323 67.2528,90.323 68.5,88.5C 67.8333,88.1667 67.1667,87.8333 66.5,87.5C 66.8627,86.8165 67.1961,86.1499 67.5,85.5 Z"/></g>
<g><path style="opacity:1" fill="#b6d761" d="M 95.5,85.5 C 96.0431,85.56 96.3764,85.8933 96.5,86.5C 95.1666,87.6199 94.6666,88.9532 95,90.5C 96.353,89.3147 97.5197,87.9814 98.5,86.5C 99.3491,88.8935 100.349,91.2269 101.5,93.5C 100.224,95.8498 98.3909,97.5164 96,98.5C 95.5,98.3333 95,98.1667 94.5,98C 99.5863,96.148 99.5863,94.9813 94.5,94.5C 92.8997,91.2001 93.233,88.2001 95.5,85.5 Z"/></g>
<g><path style="opacity:1" fill="#b2d558" d="M 25.5,86.5 C 27.5273,86.3379 29.5273,86.5045 31.5,87C 35.4133,92.7628 34.08,96.5962 27.5,98.5C 26.2887,97.1255 25.2887,95.6255 24.5,94C 25.3223,91.5661 25.6556,89.0661 25.5,86.5 Z"/></g>
<g><path style="opacity:1" fill="#b8d865" d="M 53.5,86.5 C 54.5,86.5 55.5,86.5 56.5,86.5C 56.5,88.1667 56.5,89.8333 56.5,91.5C 57.552,91.3505 58.552,91.5172 59.5,92C 55.7009,93.5529 55.7009,94.8862 59.5,96C 57.0514,99.0888 54.7181,99.0888 52.5,96C 53.448,95.5172 54.448,95.3505 55.5,95.5C 54.2245,92.6644 53.5578,89.6644 53.5,86.5 Z"/></g>
<g><path style="opacity:1" fill="#b8d864" d="M 66.5,101.5 C 68.4286,101.231 70.0953,101.731 71.5,103C 70.9941,105.044 70.6607,107.044 70.5,109C 73.1933,112.044 72.36,113.877 68,114.5C 66.2382,114.056 66.4049,113.556 68.5,113C 66.0684,111.913 66.4017,111.413 69.5,111.5C 69.5,110.167 69.5,108.833 69.5,107.5C 68.5,107.5 67.5,107.5 66.5,107.5C 66.5,105.5 66.5,103.5 66.5,101.5 Z"/></g>
<g><path style="opacity:1" fill="#b2d558" d="M 81.5,101.5 C 83.1439,101.286 84.6439,101.62 86,102.5C 86.8236,105.882 86.657,109.216 85.5,112.5C 82.4708,114.102 80.4708,113.269 79.5,110C 80.4453,107.911 80.4453,105.911 79.5,104C 80.3805,103.292 81.0472,102.458 81.5,101.5 Z"/></g>
<g><path style="opacity:1" fill="#b5d75e" d="M 25.5,102.5 C 30.3759,101.404 32.0426,103.071 30.5,107.5C 31.0253,108.192 31.6919,108.692 32.5,109C 31.0611,109.991 30.0611,111.324 29.5,113C 27.8659,113.494 26.1992,113.66 24.5,113.5C 24.8954,110.314 25.8954,107.314 27.5,104.5C 27.1543,103.304 26.6543,103.304 26,104.5C 25.5357,103.906 25.369,103.239 25.5,102.5 Z"/></g>
<g><path style="opacity:1" fill="#b6d760" d="M 53.5,101.5 C 55.2624,101.357 56.9291,101.691 58.5,102.5C 59.2733,104.813 59.9399,107.146 60.5,109.5C 59.8632,111.303 58.6965,112.636 57,113.5C 56.5172,112.552 56.3505,111.552 56.5,110.5C 55.1779,110.33 54.0113,110.663 53,111.5C 52.2534,108.076 52.42,104.743 53.5,101.5 Z"/></g>
<g><path style="opacity:1" fill="#b4d65c" d="M 42.5,101.5 C 46.0794,101.766 46.4127,103.099 43.5,105.5C 46.8325,110.646 45.4992,113.48 39.5,114C 40.1667,113.667 40.8333,113.333 41.5,113C 39.297,110.24 38.9637,107.24 40.5,104C 39.8333,103.667 39.1667,103.333 38.5,103C 40.0581,102.79 41.3915,102.29 42.5,101.5 Z"/></g>
<g><path style="opacity:1" fill="#b9d865" d="M 94.5,101.5 C 96.6957,101.565 98.6957,102.232 100.5,103.5C 98.1058,106.505 98.1058,109.339 100.5,112C 98.3697,113.564 96.3697,113.564 94.5,112C 96.6621,109.478 96.9955,106.645 95.5,103.5C 93.3004,104.456 92.9671,103.79 94.5,101.5 Z"/></g>
<g><path style="opacity:0.021" fill="#fefffe" d="M 9.5,127.5 C 11.8333,126.167 14.1667,126.167 16.5,127.5C 14.1667,127.5 11.8333,127.5 9.5,127.5 Z"/></g>
<g><path style="opacity:0.019" fill="#fefffe" d="M 24.5,127.5 C 27.1667,126.167 29.8333,126.167 32.5,127.5C 29.8333,127.5 27.1667,127.5 24.5,127.5 Z"/></g>
<g><path style="opacity:0.021" fill="#fefffe" d="M 37.5,127.5 C 39.1667,126.167 40.8333,126.167 42.5,127.5C 40.8333,127.5 39.1667,127.5 37.5,127.5 Z"/></g>
<g><path style="opacity:0.018" fill="#fefffe" d="M 43.5,127.5 C 44.5,126.167 45.5,126.167 46.5,127.5C 45.5,127.5 44.5,127.5 43.5,127.5 Z"/></g>
<g><path style="opacity:0.02" fill="#fefffe" d="M 50.5,127.5 C 52.1667,126.167 53.8333,126.167 55.5,127.5C 53.8333,127.5 52.1667,127.5 50.5,127.5 Z"/></g>
<g><path style="opacity:0.025" fill="#fefffe" d="M 57.5,127.5 C 58.8333,126.167 60.1667,126.167 61.5,127.5C 60.1667,127.5 58.8333,127.5 57.5,127.5 Z"/></g>
<g><path style="opacity:0.021" fill="#fefffe" d="M 65.5,127.5 C 68.1667,126.167 70.8333,126.167 73.5,127.5C 70.8333,127.5 68.1667,127.5 65.5,127.5 Z"/></g>
<g><path style="opacity:0.021" fill="#fefffe" d="M 79.5,127.5 C 82.1667,126.167 84.8333,126.167 87.5,127.5C 84.8333,127.5 82.1667,127.5 79.5,127.5 Z"/></g>
<g><path style="opacity:0.024" fill="#fefffe" d="M 94.5,127.5 C 95.1667,126.167 95.8333,126.167 96.5,127.5C 95.8333,127.5 95.1667,127.5 94.5,127.5 Z"/></g>
<g><path style="opacity:0.016" fill="#fefffe" d="M 97.5,127.5 C 99.1667,126.167 100.833,126.167 102.5,127.5C 100.833,127.5 99.1667,127.5 97.5,127.5 Z"/></g>
<g><path style="opacity:0.02" fill="#fefffe" d="M 108.5,127.5 C 110.833,126.167 113.167,126.167 115.5,127.5C 113.167,127.5 110.833,127.5 108.5,127.5 Z"/></g>
</svg>
