<?xml version="1.0" encoding="UTF-8"?>
<!DOCTYPE svg PUBLIC "-//W3C//DTD SVG 1.1//EN" "http://www.w3.org/Graphics/SVG/1.1/DTD/svg11.dtd">
<svg xmlns="http://www.w3.org/2000/svg" version="1.1" width="24px" height="24px" style="shape-rendering:geometricPrecision; text-rendering:geometricPrecision; image-rendering:optimizeQuality; fill-rule:evenodd; clip-rule:evenodd" xmlns:xlink="http://www.w3.org/1999/xlink">
<g><path style="opacity:0.764" fill="#fefefe" d="M 23.5,6.5 C 23.5,7.83333 23.5,9.16667 23.5,10.5C 21.5772,14.0293 20.9106,18.0293 21.5,22.5C 18.1667,22.5 14.8333,22.5 11.5,22.5C 11.5,19.8333 11.5,17.1667 11.5,14.5C 9.83333,14.5 8.16667,14.5 6.5,14.5C 6.5,17.1667 6.5,19.8333 6.5,22.5C 4.83333,22.5 3.16667,22.5 1.5,22.5C 2.08943,18.0293 1.42277,14.0293 -0.5,10.5C -0.5,9.16667 -0.5,7.83333 -0.5,6.5C 2.80574,5.17984 5.80574,3.3465 8.5,1C 12.8206,0.500982 17.1539,0.334316 21.5,0.5C 21.0254,3.08209 21.6921,5.08209 23.5,6.5 Z M 14.5,14.5 C 15.8333,14.5 17.1667,14.5 18.5,14.5C 18.5,15.8333 18.5,17.1667 18.5,18.5C 17.1667,18.5 15.8333,18.5 14.5,18.5C 14.5,17.1667 14.5,15.8333 14.5,14.5 Z"/></g>
</svg>
