<?xml version="1.0" encoding="UTF-8"?>
<!DOCTYPE svg PUBLIC "-//W3C//DTD SVG 1.1//EN" "http://www.w3.org/Graphics/SVG/1.1/DTD/svg11.dtd">
<svg xmlns="http://www.w3.org/2000/svg" version="1.1" width="24px" height="24px" style="shape-rendering:geometricPrecision; text-rendering:geometricPrecision; image-rendering:optimizeQuality; fill-rule:evenodd; clip-rule:evenodd" xmlns:xlink="http://www.w3.org/1999/xlink">
<g><path style="opacity:0.691" fill="#fefefe" d="M 9.5,-0.5 C 10.8333,-0.5 12.1667,-0.5 13.5,-0.5C 13.2308,1.42865 13.7308,3.09531 15,4.5C 16.6667,3.16667 18.3333,3.16667 20,4.5C 21.8863,10.697 22.7196,17.0304 22.5,23.5C 15.1667,23.5 7.83333,23.5 0.5,23.5C 0.280365,17.0304 1.1137,10.697 3,4.5C 4.66667,3.16667 6.33333,3.16667 8,4.5C 9.26918,3.09531 9.76918,1.42865 9.5,-0.5 Z M 7.5,6.5 C 11.3173,9.40609 10.6507,10.0728 5.5,8.5C 6.24269,7.81815 6.90935,7.15149 7.5,6.5 Z M 14.5,6.5 C 15.6431,6.90814 16.6431,7.57481 17.5,8.5C 15.9255,9.63088 14.2588,9.79755 12.5,9C 13.3805,8.2917 14.0472,7.45837 14.5,6.5 Z M 17.5,15.5 C 17.5,14.5 17.5,13.5 17.5,12.5C 13.5,12.5 9.5,12.5 5.5,12.5C 5.5,13.5 5.5,14.5 5.5,15.5C 4.38705,14.0536 4.22039,12.3869 5,10.5C 9.33333,11.8333 13.6667,11.8333 18,10.5C 18.7796,12.3869 18.6129,14.0536 17.5,15.5 Z M 5.5,15.5 C 9.5,15.5 13.5,15.5 17.5,15.5C 13.5,20.8333 9.5,20.8333 5.5,15.5 Z"/></g>
<g><path style="opacity:0.554" fill="#fefefe" d="M 17.5,15.5 C 13.5,15.5 9.5,15.5 5.5,15.5C 5.5,14.5 5.5,13.5 5.5,12.5C 9.5,12.5 13.5,12.5 17.5,12.5C 17.5,13.5 17.5,14.5 17.5,15.5 Z"/></g>
</svg>
