<?xml version="1.0" encoding="UTF-8"?>
<!DOCTYPE svg PUBLIC "-//W3C//DTD SVG 1.1//EN" "http://www.w3.org/Graphics/SVG/1.1/DTD/svg11.dtd">
<svg xmlns="http://www.w3.org/2000/svg" version="1.1" width="24px" height="24px" style="shape-rendering:geometricPrecision; text-rendering:geometricPrecision; image-rendering:optimizeQuality; fill-rule:evenodd; clip-rule:evenodd" xmlns:xlink="http://www.w3.org/1999/xlink">
<g><path style="opacity:0.872" fill="#fefefe" d="M 6.5,-0.5 C 9.83333,-0.5 13.1667,-0.5 16.5,-0.5C 19.1667,1.5 21.5,3.83333 23.5,6.5C 23.5,9.83333 23.5,13.1667 23.5,16.5C 21.5,19.1667 19.1667,21.5 16.5,23.5C 13.1667,23.5 9.83333,23.5 6.5,23.5C 3.83333,21.5 1.5,19.1667 -0.5,16.5C -0.5,13.1667 -0.5,9.83333 -0.5,6.5C 1.5,3.83333 3.83333,1.5 6.5,-0.5 Z M 10.5,9.5 C 11.6946,9.86562 12.3613,10.699 12.5,12C 11.5806,14.3749 11.2473,16.5416 11.5,18.5C 10.5,18.1667 9.83333,17.5 9.5,16.5C 10.3742,14.2534 10.7076,11.9201 10.5,9.5 Z"/></g>
</svg>
