<?xml version="1.0" encoding="UTF-8"?>
<!DOCTYPE svg PUBLIC "-//W3C//DTD SVG 1.1//EN" "http://www.w3.org/Graphics/SVG/1.1/DTD/svg11.dtd">
<svg xmlns="http://www.w3.org/2000/svg" version="1.1" width="24px" height="24px" style="shape-rendering:geometricPrecision; text-rendering:geometricPrecision; image-rendering:optimizeQuality; fill-rule:evenodd; clip-rule:evenodd" xmlns:xlink="http://www.w3.org/1999/xlink">
<g><path style="opacity:0.862" fill="#fefefe" d="M 7.5,-0.5 C 10.1667,-0.5 12.8333,-0.5 15.5,-0.5C 18.4811,2.13482 19.8144,5.46816 19.5,9.5C 20.5,9.5 21.5,9.5 22.5,9.5C 22.5,14.1667 22.5,18.8333 22.5,23.5C 15.1667,23.5 7.83333,23.5 0.5,23.5C 0.5,18.8333 0.5,14.1667 0.5,9.5C 1.5,9.5 2.5,9.5 3.5,9.5C 3.47548,5.56383 4.80882,2.2305 7.5,-0.5 Z M 10.5,3.5 C 13.7756,4.12155 15.1089,6.12155 14.5,9.5C 12.5,9.5 10.5,9.5 8.5,9.5C 8.2525,7.14166 8.91917,5.14166 10.5,3.5 Z"/></g>
</svg>
