<?xml version="1.0" encoding="UTF-8"?>
<!DOCTYPE svg PUBLIC "-//W3C//DTD SVG 1.1//EN" "http://www.w3.org/Graphics/SVG/1.1/DTD/svg11.dtd">
<svg xmlns="http://www.w3.org/2000/svg" version="1.1" width="24px" height="24px" style="shape-rendering:geometricPrecision; text-rendering:geometricPrecision; image-rendering:optimizeQuality; fill-rule:evenodd; clip-rule:evenodd" xmlns:xlink="http://www.w3.org/1999/xlink">
<g><path style="opacity:0.765" fill="#fefefe" d="M 23.5,3.5 C 23.5,8.83333 23.5,14.1667 23.5,19.5C 15.5,20.8333 7.5,20.8333 -0.5,19.5C -0.5,14.1667 -0.5,8.83333 -0.5,3.5C 7.5,2.16667 15.5,2.16667 23.5,3.5 Z M 5.5,6.5 C 9.31121,5.35472 13.3112,5.18806 17.5,6C 15.6499,8.01761 13.6499,9.85095 11.5,11.5C 9.48073,9.81027 7.48073,8.14361 5.5,6.5 Z M 2.5,8.5 C 3.45196,9.45196 4.45196,10.452 5.5,11.5C 4.47827,12.354 3.64494,13.354 3,14.5C 2.50454,12.5273 2.33788,10.5273 2.5,8.5 Z M 19.5,8.5 C 20.6225,10.2884 20.7891,12.2884 20,14.5C 19.3551,13.354 18.5217,12.354 17.5,11.5C 18.6119,10.7348 19.2786,9.73485 19.5,8.5 Z M 7.5,14.5 C 10.006,17.0858 12.506,17.0858 15,14.5C 15.8333,15.3333 16.6667,16.1667 17.5,17C 13.5,17.6667 9.5,17.6667 5.5,17C 6.38053,16.2917 7.0472,15.4584 7.5,14.5 Z"/></g>
</svg>
