<?xml version="1.0" encoding="utf-8"?>
<!DOCTYPE svg PUBLIC "-//W3C//DTD SVG 1.0//EN" "http://www.w3.org/TR/2001/REC-SVG-20010904/DTD/svg10.dtd">
<svg version="1.0" xmlns="http://www.w3.org/2000/svg" width="1024px" height="1024px" viewBox="0 0 1024 1024" preserveAspectRatio="xMidYMid meet">
 <g fill="#a5ce3a">
  <path d="M770 884 c-23.2 -1.5 -55.5 -10.9 -77 -22.4 -11.6 -6.3 -13.4 -7.3 -18.6 -10.8 -27.1 -18.3 -49.6 -41.8 -65.5 -68.3 -36.1 -60.3 -38.9 -136.6 -7.4 -199.6 5 -10 14.2 -25.2 18.9 -31.1 1.1 -1.5 3.4 -4.4 5.1 -6.5 20.1 -25.5 50.9 -48.9 81.7 -62 86.1 -36.4 185.9 -11 244.2 62.2 36.6 45.9 51.9 102.1 43.7 160.5 -3 20.9 -11.3 47.9 -19.3 62.5 -0.6 1 -2.1 3.7 -3.2 6 -9 16.6 -24.1 36.9 -37.2 49.5 -9.4 9.1 -28.5 25 -30 25 -0.4 0 -2.1 1.1 -3.8 2.4 -3 2.3 -4.4 3.1 -17.6 10.2 -22.3 11.9 -53.7 20.9 -79 22.5 -15.1 0.9 -18.6 0.9 -35 -0.1z m3.9 -129.1 c6.7 -3.2 115.1 -111.3 118.6 -118.3 7.1 -14.1 -1.4 -34.2 -16.8 -40.1 -6 -2.3 -15.5 -1.7 -21.7 1.5 -3.1 1.5 -18.2 15.8 -48.5 46.1 -24.2 24.1 -44.4 43.9 -44.8 43.9 -0.4 0 -8.6 -7.9 -18.2 -17.6 -18.3 -18.3 -21.8 -20.8 -31 -22 -10.9 -1.5 -23.6 6 -29.1 17.1 -2.2 4.7 -2.6 6.4 -2.2 12.2 0.2 3.8 1.2 8.6 2.3 10.8 1.1 2.5 9.3 11.4 21.5 23.5 46.4 46 45.1 44.9 57.9 45 5.6 0 8.6 -0.5 12 -2.1z"/>
  <path d="M95.5 678.9 c-35.8 -8.4 -59.8 -31.9 -67.1 -65.9 -1.8 -8.1 -1.9 -17.5 -1.9 -204.5 l0 -196 2.2 -9 c8 -33.8 34.8 -58.9 68.3 -64 13.8 -2.2 610.3 -2.2 625 -0.1 15.4 2.2 30.7 9.5 43.4 20.7 11.7 10.3 22.5 29.2 25.8 45 0.7 3.7 1.2 37.7 1.5 105.2 l0.4 99.7 -9.4 0 c-11 0 -36.7 2.5 -44.9 4.4 l-5.8 1.3 0 -22.8 0 -22.9 -323.3 0.2 -323.2 0.3 0 116.5 0 116.5 2.7 4.5 c3.3 5.6 6.3 8.5 11 10.5 3.3 1.3 26.6 1.5 215.4 1.5 l211.6 0 -0.6 3.3 c-2.7 13.2 -3.7 22.6 -4.3 38.5 l-0.6 18.2 -211.1 -0.1 c-127.1 -0.1 -212.7 -0.5 -215.1 -1z m637.3 -435.2 l-0.3 -29.4 -3 -4.9 c-1.9 -3 -4.9 -6 -7.9 -7.9 l-4.9 -3 -306 -0.3 -306 -0.2 -4.3 2.1 c-5.1 2.4 -9.6 6.9 -12.1 11.8 -1.6 3.1 -1.8 7.1 -2.1 30.9 -0.2 15 -0.1 28 0.2 28.8 0.5 1.2 43.3 1.4 323.6 1.4 l323.1 0 -0.3 -29.3z"/>
  <path d="M149.5 560.9 l-3.5 -3.1 0 -26.3 0 -26.2 2.5 -2.7 2.4 -2.6 44.1 0 44.1 0 2.4 2.5 2.5 2.4 0 26.1 c0 16 -0.4 26.9 -1 28.1 -2.6 4.7 -4.2 4.9 -48.4 4.9 l-41.5 0 -3.6 -3.1z"/>
  <path d="M294.4 563 c-5.2 -2.1 -5.4 -3.5 -5.4 -31.3 0 -25.4 0.4 -28.9 3.4 -30.9 0.6 -0.4 21 -0.8 45.4 -0.8 l44.3 0 2.4 2.5 2.5 2.4 0 26.5 0 26.5 -2.4 2.8 -2.4 2.8 -42.9 0.2 c-23.5 0.1 -43.8 -0.2 -44.9 -0.7z"/>
  <path d="M437.4 563 c-5.2 -2.1 -5.4 -3.5 -5.4 -31.8 l0 -26.3 2.5 -2.4 2.4 -2.5 44.1 0 44.1 0 2.4 2.5 2.5 2.4 0 27 c0 29.3 0.1 29 -5.7 31.2 -3.1 1.1 -84.1 1.1 -86.9 -0.1z"/>
 </g>
</svg>