<?xml version="1.0" encoding="UTF-8" standalone="no"?>
<svg
   fill="#a5ce3a"
   height="800px"
   width="800px"
   version="1.1"
   id="Layer_1"
   viewBox="0 0 512 512"
   xml:space="preserve"
   xmlns="http://www.w3.org/2000/svg"
   xmlns:svg="http://www.w3.org/2000/svg"><defs
   id="defs2" />

<g
   id="SVGRepo_bgCarrier"
   stroke-width="0" />

<g
   id="SVGRepo_tracerCarrier"
   stroke-linecap="round"
   stroke-linejoin="round" />

<g
   id="SVGRepo_iconCarrier"> <g
   id="g2"> <g
   id="g1"> <path
   d="M438.237,393.518c-25.704,0-47.537,16.836-55.085,40.055h-8.843v-91.938h30.166C463.764,341.634,512,293.399,512,234.11 c0-53.439-39.793-107.525-115.323-107.525C387.87,56.796,328.141,2.65,256,2.65S124.129,56.796,115.323,126.586 C40.125,126.586,0,180.473,0,234.11c0,59.29,48.235,107.525,107.525,107.525h30.166v91.939h-8.843 c-7.547-23.22-29.382-40.055-55.085-40.055c-31.935,0-57.916,25.981-57.916,57.916c0,31.935,25.981,57.916,57.916,57.916 c25.704,0,47.537-16.836,55.085-40.055h26.704c9.864,0,17.86-7.997,17.86-17.86V341.634h64.728v54.715 c-23.22,7.547-40.055,29.382-40.055,55.085c0,31.935,25.981,57.916,57.916,57.916s57.916-25.981,57.916-57.916 c0-25.704-16.836-47.537-40.055-55.085v-54.715h64.728v109.799c0,9.864,7.997,17.86,17.86,17.86h26.704 c7.547,23.219,29.382,40.055,55.085,40.055c31.935,0,57.916-25.981,57.916-57.916 C496.153,419.499,470.173,393.518,438.237,393.518z M73.763,473.628c-12.238,0-22.195-9.957-22.195-22.195 c0-12.238,9.957-22.195,22.195-22.195c12.238,0,22.195,9.957,22.195,22.195C95.957,463.673,86,473.628,73.763,473.628z M278.195,451.433c0,12.239-9.957,22.195-22.195,22.195s-22.195-9.957-22.195-22.195c0-12.238,9.957-22.195,22.195-22.195 S278.195,439.195,278.195,451.433z M107.525,305.913c-39.593,0-71.804-32.211-71.804-71.804c0-39.592,32.211-71.804,71.804-71.804 h24.539c9.864,0,17.86-7.997,17.86-17.86C149.924,85.955,197.509,38.37,256,38.37c58.491,0,106.076,47.585,106.076,106.076 c0,9.864,7.997,17.86,17.86,17.86h24.539c39.592,0,71.804,32.211,71.804,71.804s-32.211,71.804-71.804,71.804H107.525z M438.237,473.628c-12.238,0-22.195-9.957-22.195-22.195c0-12.238,9.957-22.195,22.195-22.195 c12.238,0,22.195,9.957,22.195,22.195C460.432,463.673,450.477,473.628,438.237,473.628z"
   id="path1" /> </g> </g> </g>

</svg>
