<?xml version="1.0" encoding="UTF-8"?>
<!DOCTYPE svg PUBLIC "-//W3C//DTD SVG 1.1//EN" "http://www.w3.org/Graphics/SVG/1.1/DTD/svg11.dtd">
<svg xmlns="http://www.w3.org/2000/svg" version="1.1" width="24px" height="24px" style="shape-rendering:geometricPrecision; text-rendering:geometricPrecision; image-rendering:optimizeQuality; fill-rule:evenodd; clip-rule:evenodd" xmlns:xlink="http://www.w3.org/1999/xlink">
<g><path style="opacity:0.856" fill="#fefefe" d="M 11.5,-0.5 C 13.5,-0.5 15.5,-0.5 17.5,-0.5C 17.5,1.16667 17.5,2.83333 17.5,4.5C 19.5,4.5 21.5,4.5 23.5,4.5C 23.5,7.16667 23.5,9.83333 23.5,12.5C 21.3352,12.1159 19.6685,12.7826 18.5,14.5C 19.714,16.7542 21.3806,17.0875 23.5,15.5C 23.5,18.1667 23.5,20.8333 23.5,23.5C 20.8333,23.5 18.1667,23.5 15.5,23.5C 17.0875,21.3806 16.7542,19.714 14.5,18.5C 12.7826,19.6685 12.1159,21.3352 12.5,23.5C 9.83333,23.5 7.16667,23.5 4.5,23.5C 4.5,21.5 4.5,19.5 4.5,17.5C 2.83333,17.5 1.16667,17.5 -0.5,17.5C -0.5,15.5 -0.5,13.5 -0.5,11.5C 1.16667,11.5 2.83333,11.5 4.5,11.5C 4.5,9.16667 4.5,6.83333 4.5,4.5C 6.83333,4.5 9.16667,4.5 11.5,4.5C 11.5,2.83333 11.5,1.16667 11.5,-0.5 Z"/></g>
</svg>
