<?xml version="1.0" encoding="UTF-8"?>
<!DOCTYPE svg PUBLIC "-//W3C//DTD SVG 1.1//EN" "http://www.w3.org/Graphics/SVG/1.1/DTD/svg11.dtd">
<svg xmlns="http://www.w3.org/2000/svg" version="1.1" width="24px" height="24px" style="shape-rendering:geometricPrecision; text-rendering:geometricPrecision; image-rendering:optimizeQuality; fill-rule:evenodd; clip-rule:evenodd" xmlns:xlink="http://www.w3.org/1999/xlink">
<g><path style="opacity:0.749" fill="#fefefe" d="M -0.5,-0.5 C 6.5,-0.5 13.5,-0.5 20.5,-0.5C 21.1667,0.833333 22.1667,1.83333 23.5,2.5C 23.5,9.5 23.5,16.5 23.5,23.5C 15.5,23.5 7.5,23.5 -0.5,23.5C -0.5,15.5 -0.5,7.5 -0.5,-0.5 Z M 4.5,1.5 C 7.16667,1.5 9.83333,1.5 12.5,1.5C 12.5,3.83333 12.5,6.16667 12.5,8.5C 9.83333,8.5 7.16667,8.5 4.5,8.5C 4.5,6.16667 4.5,3.83333 4.5,1.5 Z M 2.5,12.5 C 8.5,12.5 14.5,12.5 20.5,12.5C 20.5,15.5 20.5,18.5 20.5,21.5C 14.5,21.5 8.5,21.5 2.5,21.5C 2.5,18.5 2.5,15.5 2.5,12.5 Z"/></g>
</svg>
