<?xml version="1.0" encoding="UTF-8"?>
<!DOCTYPE svg PUBLIC "-//W3C//DTD SVG 1.1//EN" "http://www.w3.org/Graphics/SVG/1.1/DTD/svg11.dtd">
<svg xmlns="http://www.w3.org/2000/svg" version="1.1" width="24px" height="24px" style="shape-rendering:geometricPrecision; text-rendering:geometricPrecision; image-rendering:optimizeQuality; fill-rule:evenodd; clip-rule:evenodd" xmlns:xlink="http://www.w3.org/1999/xlink">
<g><path style="opacity:0.707" fill="#fefefe" d="M -0.5,-0.5 C 6.5,-0.5 13.5,-0.5 20.5,-0.5C 21.1667,0.833333 22.1667,1.83333 23.5,2.5C 23.5,8.16667 23.5,13.8333 23.5,19.5C 22.5116,20.795 21.5116,22.1283 20.5,23.5C 19.5,23.5 18.5,23.5 17.5,23.5C 17.1667,22.1667 16.8333,22.1667 16.5,23.5C 10.8333,23.5 5.16667,23.5 -0.5,23.5C -0.5,15.5 -0.5,7.5 -0.5,-0.5 Z M 4.5,1.5 C 7.16667,1.5 9.83333,1.5 12.5,1.5C 12.5,3.83333 12.5,6.16667 12.5,8.5C 9.83333,8.5 7.16667,8.5 4.5,8.5C 4.5,6.16667 4.5,3.83333 4.5,1.5 Z M 2.5,12.5 C 4.85684,12.3367 7.19018,12.5034 9.5,13C 10.4029,16.1382 12.0696,18.8049 14.5,21C 10.5138,21.4988 6.51383,21.6655 2.5,21.5C 2.5,18.5 2.5,15.5 2.5,12.5 Z M 15.5,13.5 C 16.9187,12.5489 18.5853,12.2155 20.5,12.5C 20.6602,14.1992 20.4935,15.8659 20,17.5C 18.6288,15.9586 17.1288,14.6253 15.5,13.5 Z"/></g>
</svg>
