<?xml version="1.0" encoding="UTF-8"?>
<!DOCTYPE svg PUBLIC "-//W3C//DTD SVG 1.1//EN" "http://www.w3.org/Graphics/SVG/1.1/DTD/svg11.dtd">
<svg xmlns="http://www.w3.org/2000/svg" version="1.1" width="24px" height="24px" style="shape-rendering:geometricPrecision; text-rendering:geometricPrecision; image-rendering:optimizeQuality; fill-rule:evenodd; clip-rule:evenodd" xmlns:xlink="http://www.w3.org/1999/xlink">
<g><path style="opacity:0.813" fill="#fefefe" d="M 5.5,-0.5 C 7.16667,-0.5 8.83333,-0.5 10.5,-0.5C 11.5,0.833333 12.5,0.833333 13.5,-0.5C 14.8333,-0.5 16.1667,-0.5 17.5,-0.5C 18.3007,1.04181 18.634,2.70848 18.5,4.5C 20.2915,4.36596 21.9582,4.69929 23.5,5.5C 23.5,6.83333 23.5,8.16667 23.5,9.5C 20.8333,10.5 20.8333,11.5 23.5,12.5C 23.5,14.1667 23.5,15.8333 23.5,17.5C 21.9582,18.3007 20.2915,18.634 18.5,18.5C 18.634,20.2915 18.3007,21.9582 17.5,23.5C 16.1667,23.5 14.8333,23.5 13.5,23.5C 12.1667,22.1667 10.8333,22.1667 9.5,23.5C 8.16667,23.5 6.83333,23.5 5.5,23.5C 4.69929,21.9582 4.36596,20.2915 4.5,18.5C 2.70848,18.634 1.04181,18.3007 -0.5,17.5C -0.5,16.1667 -0.5,14.8333 -0.5,13.5C 0.833333,12.1667 0.833333,10.8333 -0.5,9.5C -0.5,8.16667 -0.5,6.83333 -0.5,5.5C 0.687867,4.3157 1.85453,4.3157 3,5.5C 4.13477,3.63013 4.9681,1.63013 5.5,-0.5 Z M 11.5,7.5 C 14.0771,8.68986 14.9105,10.6899 14,13.5C 11.2136,15.1842 9.38022,14.5175 8.5,11.5C 8.7867,9.55668 9.7867,8.22335 11.5,7.5 Z"/></g>
</svg>
