<?xml version="1.0" encoding="UTF-8" standalone="no"?>
<svg
   xmlns:dc="http://purl.org/dc/elements/1.1/"
   xmlns:cc="http://creativecommons.org/ns#"
   xmlns:rdf="http://www.w3.org/1999/02/22-rdf-syntax-ns#"
   xmlns:svg="http://www.w3.org/2000/svg"
   xmlns="http://www.w3.org/2000/svg"
   xmlns:xlink="http://www.w3.org/1999/xlink"
   xmlns:sodipodi="http://sodipodi.sourceforge.net/DTD/sodipodi-0.dtd"
   xmlns:inkscape="http://www.inkscape.org/namespaces/inkscape"
   height="600"
   viewBox="0 0 12 6"
   width="1200"
   version="1.1"
   id="svg26"
   sodipodi:docname="Slovenia.svg"
   inkscape:version="0.92.3 (2405546, 2018-03-11)">
  <metadata
     id="metadata32">
    <rdf:RDF>
      <cc:Work
         rdf:about="">
        <dc:format>image/svg+xml</dc:format>
        <dc:type
           rdf:resource="http://purl.org/dc/dcmitype/StillImage" />
      </cc:Work>
    </rdf:RDF>
  </metadata>
  <defs
     id="defs30" />
  <sodipodi:namedview
     pagecolor="#ffffff"
     bordercolor="#666666"
     borderopacity="1"
     objecttolerance="10"
     gridtolerance="10"
     guidetolerance="10"
     inkscape:pageopacity="0"
     inkscape:pageshadow="2"
     inkscape:window-width="1920"
     inkscape:window-height="1013"
     id="namedview28"
     showgrid="false"
     inkscape:zoom="0.58454161"
     inkscape:cx="1007.0488"
     inkscape:cy="89.485946"
     inkscape:window-x="0"
     inkscape:window-y="0"
     inkscape:window-maximized="1"
     inkscape:current-layer="svg26" />
  <path
     d="m0 0h12v6h-12z"
     fill="#f00"
     id="path2"
     style="fill:#ef2800;fill-opacity:1" />
  <path
     d="m0 0h12v4h-12z"
     fill="#00f"
     id="path4"
     style="fill:#5751ab;fill-opacity:1" />
  <path
     d="m0 0h12v2h-12z"
     fill="#fff"
     id="path6"
     style="fill:#ffffff;fill-opacity:1" />
  <path
     style="fill:#5751ab;fill-rule:evenodd;stroke-width:0.02100012;fill-opacity:1"
     inkscape:connector-curvature="0"
     id="path8"
     d="m 2.999707,1.0520898 c -0.013427,2e-5 -0.026819,2.96e-4 -0.040176,6.84e-4 -0.259762,0.00673 -0.5036351,0.073815 -0.6772851,0.155625 l 2e-5,2.34e-4 c -0.018988,0.00794 -0.037588,0.015892 -0.055273,0.023848 l 0.059688,0.9349023 c 0.041355,0.4885558 0.3597427,0.77301 0.7134954,0.8847067 C 3.353929,2.9403931 3.6722975,2.6559389 3.7136528,2.1673828 L 3.7730083,1.2354492 C 3.7552865,1.226276 3.736703,1.2173839 3.7177349,1.2086328 l 2e-5,-2.34e-4 C 3.5352427,1.1224132 3.275185,1.0525725 3.0006065,1.0521098 c -2.03e-4,-4e-7 -4.03e-4,-2e-5 -6.05e-4,-2e-5 -1e-4,2e-7 -1.95e-4,-1e-7 -2.93e-4,0 z" />
  <path
     style="fill:#ffffff;fill-rule:evenodd;stroke-width:0.02100012"
     inkscape:connector-curvature="0"
     id="path10"
     d="M 3.0001565,1.6990349 2.8255521,2.0399968 2.7126714,1.8933549 2.4177123,2.2831544 c 0.00533,0.024196 0.011591,0.047552 0.018427,0.070357 0.032943,0.055597 0.096247,0.1190661 0.1774392,0.1190661 0.06443,0 0.1288595,-0.051544 0.1932891,-0.051544 0.06443,0 0.1288595,0.051544 0.1932891,0.051544 0.06443,0 0.1288593,-0.051544 0.1932891,-0.051544 0.06443,0 0.1288593,0.051544 0.1932891,0.051544 0.080459,0 0.143341,-0.06229 0.1765373,-0.1175197 0.00709,-0.023417 0.01345,-0.047535 0.018942,-0.072419 L 3.2876417,1.8933549 3.174761,2.0399968 Z M 2.8068674,2.4725777 c -0.06443,0 -0.1288592,0.051544 -0.1932891,0.051544 -0.050992,0 -0.094797,-0.01806 -0.1287303,-0.043683 0.011983,0.025433 0.024659,0.050168 0.038529,0.073579 0.026581,0.016528 0.05679,0.027705 0.090201,0.027705 0.06443,0 0.1288595,-0.051544 0.1932891,-0.051544 0.06443,0 0.1288595,0.051544 0.1932891,0.051544 0.06443,0 0.1288593,-0.051544 0.1932891,-0.051544 0.06443,0 0.1288593,0.051544 0.1932891,0.051544 0.03294,0 0.062728,-0.010927 0.089042,-0.02706 0.013864,-0.023335 0.026531,-0.047985 0.038529,-0.073321 -0.033772,0.025145 -0.077173,0.042781 -0.1275707,0.042781 -0.06443,0 -0.1288595,-0.051544 -0.1932891,-0.051544 -0.06443,0 -0.1288594,0.051544 -0.1932891,0.051544 -0.06443,0 -0.1288592,-0.051544 -0.1932891,-0.051544 z m 0,0.1091439 c -0.06443,0 -0.1288592,0.051544 -0.1932891,0.051544 -0.013998,0 -0.027309,-0.00164 -0.040204,-0.00412 0.1114668,0.1489135 0.2635415,0.2485921 0.4266534,0.3059121 0.1627753,-0.057226 0.3146095,-0.1569754 0.426009,-0.3056544 -0.012611,0.00237 -0.025642,0.00387 -0.039302,0.00387 -0.06443,0 -0.1288595,-0.051544 -0.1932891,-0.051544 -0.06443,0 -0.1288594,0.051544 -0.1932891,0.051544 -0.06443,0 -0.1288592,-0.051544 -0.1932891,-0.051544 z" />
  <g
     style="fill:#e0fe00;fill-opacity:1"
     transform="matrix(0.02100012,0,0,0.02100012,-0.106483,3.4779739)"
     id="a">
    <path
       style="fill:#e0fe00;fill-rule:evenodd;fill-opacity:1"
       inkscape:connector-curvature="0"
       d="m 134.0937,-109.56066 h 6.96082 l -3.48041,6.02733"
       id="b" />
    <use
       y="0"
       x="0"
       style="fill:#e0fe00;fill-opacity:1"
       id="use13"
       xlink:href="#b"
       width="600"
       transform="matrix(1,0,0,-1,3e-4,-215.1037)"
       height="300" />
  </g>
  <g
     style="fill:#e0fe00;fill-opacity:1"
     id="g20"
     transform="matrix(0.02100012,0,0,0.02100012,-0.106483,3.477988)">
    <use
       y="0"
       x="0"
       id="use16"
       xlink:href="#a"
       width="600"
       transform="matrix(47.618776,0,0,47.618776,25.79089,-165.61753)"
       height="300"
       style="fill:#e0fe00;fill-opacity:1" />
    <use
       y="0"
       x="0"
       id="use18"
       xlink:href="#a"
       width="600"
       transform="matrix(47.618776,0,0,47.618776,15.43089,-151.74253)"
       height="300"
       style="fill:#e0fe00;fill-opacity:1" />
  </g>
  <path
     d="m249.61914-221.19336c-1.38627.002-2.76778.0311-4.14648.0723 1.3787-.0368 2.75957-.0702 4.14648-.0723zm-71.74805 15.6543c-1.89939.79383-3.75825 1.58896-5.52734 2.38476l5.96875 93.49219c4.13555 48.855608 35.97239 77.299081 71.34766 88.468751 35.37527-11.16967 67.21212-39.613143 71.34765-88.468751l5.93555-93.19531c-1.77228-.91738-3.63042-1.80649-5.52734-2.68164l-5.53907 92.78125c-3.83911 47.499554-33.39281 75.154029-66.23242 86.013669-32.83961-10.85964-62.39526-38.514115-66.23437-86.013669z"
     fill="#f00"
     fill-rule="evenodd"
     stroke-width="2.100012"
     transform="matrix(.01 0 0 .01 .503574 3.264023)"
     id="path24"
     style="fill:#ef2800;fill-opacity:1" />
</svg>
