<?xml version="1.0" encoding="UTF-8" standalone="no"?>
<svg
   width="150"
   height="32"
   viewBox="0 0 150 32"
   fill="none"
   version="1.1"
   id="svg25"
   sodipodi:docname="sodabox.svg"
   inkscape:version="1.3.2 (091e20e, 2023-11-25, custom)"
   xmlns:inkscape="http://www.inkscape.org/namespaces/inkscape"
   xmlns:sodipodi="http://sodipodi.sourceforge.net/DTD/sodipodi-0.dtd"
   xmlns="http://www.w3.org/2000/svg"
   xmlns:svg="http://www.w3.org/2000/svg">
  <sodipodi:namedview
     id="namedview1"
     pagecolor="#505050"
     bordercolor="#eeeeee"
     borderopacity="1"
     inkscape:showpageshadow="0"
     inkscape:pageopacity="0"
     inkscape:pagecheckerboard="0"
     inkscape:deskcolor="#505050"
     inkscape:zoom="28.766667"
     inkscape:cx="75"
     inkscape:cy="15.99073"
     inkscape:window-width="2382"
     inkscape:window-height="1212"
     inkscape:window-x="2258"
     inkscape:window-y="141"
     inkscape:window-maximized="0"
     inkscape:current-layer="svg25" />
  <defs
     id="defs25" />
  <g
     id="g25"
     transform="rotate(32.468591,14.437892,22.605541)"
     style="fill:#a5ce3a;fill-opacity:1">
    <path
       d="m 8.58044,20.2453 7.49336,4.3096 v 1.5142 c 0,0.2718 -0.0777,0.5436 -0.1942,0.7765 -0.1164,0.233 -0.3106,0.4271 -0.5823,0.5436 -0.233,0.1165 -0.5048,0.1941 -0.7766,0.1941 -0.2717,0 -0.5435,-0.0776 -0.7765,-0.1941 L 5.3191,22.4972 C 4.62024,22.1089 4.03786,21.5265 3.6496,20.8277 3.26134,20.1288 3.02839,19.3523 3.02839,18.537 V 9.37414 c 0,-0.27178 0.07765,-0.54356 0.19413,-0.77651 C 3.339,8.36467 3.53312,8.17055 3.76608,8.01524 3.99903,7.85994 4.27081,7.82112 4.54259,7.82112 c 0.27178,0 0.54355,0.07765 0.77651,0.19412 L 6.25091,8.5588 v 7.6875 c 0,0.8153 0.23295,1.5918 0.62121,2.2907 0.38825,0.6988 0.97064,1.2812 1.6695,1.6695 z M 16.8115,11.1601 6.87212,5.41393 C 6.17326,5.02568 5.39675,4.79272 4.58141,4.79272 3.76608,4.79272 2.98957,4.98685 2.29071,5.41393 1.59185,5.80219 1.00946,6.38457 0.621209,7.08343 0.232953,7.78229 0,8.59763 0,9.37414 V 18.537 c 0,1.3589 0.34943,2.6789 1.00946,3.8437 0.66004,1.1648 1.63068,2.1354 2.79544,2.7954 l 8.4251,4.892 c 0.6989,0.3883 1.4754,0.6213 2.2907,0.6213 0.8154,0 1.5919,-0.233 2.2908,-0.6213 0.6988,-0.3882 1.2812,-1.0094 1.6695,-1.6695 0.3882,-0.6988 0.6212,-1.5141 0.6212,-2.2907 v -2.3683 c 0,-0.2718 -0.0777,-0.5436 -0.233,-0.7765 -0.1553,-0.233 -0.3494,-0.4271 -0.5824,-0.5824 L 10.0946,17.644 C 9.86168,17.5275 9.66756,17.3334 9.55108,17.0616 9.4346,16.8286 9.35695,16.5569 9.35695,16.2851 v -5.9015 l 5.94035,3.4555 c 0.2329,0.1164 0.427,0.3106 0.5823,0.5435 0.1165,0.233 0.1942,0.5048 0.233,0.7765 v 2.8731 c 0,0.1942 0,0.4271 0.0776,0.6212 0.0777,0.1942 0.1942,0.3883 0.3107,0.5048 0.1164,0.1164 0.3106,0.2717 0.5047,0.3494 0.1941,0.0777 0.3882,0.1165 0.6212,0.1165 0.2329,0 0.4271,-0.0388 0.6212,-0.1165 0.1941,-0.0777 0.3494,-0.1941 0.5047,-0.3494 0.1553,-0.1553 0.2718,-0.3106 0.3106,-0.5048 0.0777,-0.1941 0.1165,-0.3882 0.0777,-0.6212 v -2.8731 c 0,-0.8153 -0.233,-1.5918 -0.6212,-2.2907 -0.3883,-0.6988 -0.9707,-1.2812 -1.7083,-1.6695 z"
       fill="#0d52ff"
       id="path23"
       style="fill:#a5ce3a;fill-opacity:1" />
    <path
       d="M 21.587,6.19047 13.1619,1.29845 C 12.463,0.871374 11.6865,0.677246 10.8712,0.677246 c -0.8154,0 -1.59189,0.232953 -2.29075,0.621204 -0.27178,0.15531 -0.54356,0.34943 -0.77651,0.58239 0.42708,0.1553 0.81534,0.34943 1.20359,0.54355 l 2.64017,1.55303 8.4251,4.85319 c 0.6989,0.38825 1.2812,0.97064 1.6695,1.66949 0.3883,0.6989 0.6212,1.4754 0.6212,2.2907 v 1.0871 c 0,0.3883 0.1941,0.7765 0.4659,1.0483 0.2718,0.2718 0.6601,0.4271 1.0483,0.4271 0.3883,0 0.7765,-0.1553 1.0483,-0.4271 0.2718,-0.2718 0.4659,-0.66 0.4659,-1.0483 v -1.0871 c 0,-1.3589 -0.3494,-2.6789 -1.0483,-3.84372 -0.66,-1.16476 -1.6307,-2.1354 -2.7954,-2.79543 z"
       fill="#0d52ff"
       id="path24"
       style="fill:#a5ce3a;fill-opacity:1" />
    <path
       d="m 23.8777,18.3041 c -0.1941,0 -0.3882,0 -0.5824,0.1165 -0.1941,0.1164 -0.3494,0.1941 -0.5047,0.3494 -0.1553,0.1553 -0.2718,0.3106 -0.3106,0.5047 -0.0777,0.1941 -0.1165,0.3883 -0.1165,0.5824 v 5.2026 c 0,0.4271 -0.0388,0.893 -0.1165,1.3201 0.3106,-0.1165 0.6212,-0.233 0.893,-0.3883 0.6989,-0.3882 1.2813,-0.9706 1.6695,-1.6695 0.3883,-0.6988 0.6212,-1.4753 0.6212,-2.2907 v -2.1742 c 0,-0.3883 -0.1553,-0.7765 -0.4659,-1.0871 -0.2718,-0.2718 -0.6988,-0.4659 -1.0871,-0.4659 z"
       fill="#0d52ff"
       id="path25"
       style="fill:#a5ce3a;fill-opacity:1" />
  </g>
  <path
     d="m 52.520665,10.539236 q 0.02481,0.223325 -0.148883,0.397022 -0.173697,0.148883 -0.397022,0.148883 h -1.01737 q -0.297767,0 -0.44665,-0.09925 -0.148884,-0.12407 -0.322581,-0.44665 -0.397023,-0.7692313 -1.389579,-1.5136483 -0.967742,-0.744417 -2.580645,-0.744417 -1.488834,0 -2.531018,0.6699753 -1.01737,0.6699753 -1.01737,1.91067 0,0.843673 0.496278,1.389579 0.521092,0.521092 1.538462,0.918114 1.042184,0.372208 3.126551,0.918114 2.828785,0.744417 3.995038,1.836229 1.191067,1.066998 1.191067,2.92804 0,1.488834 -0.843672,2.630273 -0.818859,1.14144 -2.332507,1.786601 -1.513648,0.645162 -3.49876,0.645162 -1.836228,0 -3.349876,-0.69479 -1.513648,-0.694789 -2.382135,-1.761786 -0.868486,-1.091812 -0.918114,-2.15881 0,-0.223325 0.148884,-0.372208 0.173697,-0.173698 0.397022,-0.173698 h 1.01737 q 0.272953,0 0.44665,0.12407 0.173697,0.09926 0.322581,0.421836 0.397022,0.893301 1.439206,1.637718 1.066998,0.744417 2.878412,0.744417 1.811415,0 3.05211,-0.769231 1.265509,-0.794045 1.265509,-2.059554 0,-0.818859 -0.669975,-1.364764 -0.645162,-0.57072 -1.786601,-0.942929 -1.14144,-0.397022 -3.349877,-0.967742 -2.406948,-0.620347 -3.473946,-1.786601 -1.066997,-1.191067 -1.066997,-2.92804 0,-1.2903225 0.669975,-2.3821341 0.669975,-1.0918116 2.009926,-1.7617869 1.33995,-0.6699753 3.225807,-0.6699753 1.885856,0 3.300249,0.744417 1.414392,0.7196031 2.183623,1.7866008 0.769231,1.0669977 0.818858,1.9602985 z m 9.900747,-4.4913163 q 2.109181,0 3.647643,0.8933004 1.538462,0.8933004 2.332507,2.4317622 0.818858,1.5136477 0.868486,3.3995047 0.04963,1.488834 0.04963,2.208437 0,0.719603 -0.04963,2.208437 -0.07444,1.885856 -0.8933,3.424318 -0.794045,1.513648 -2.332507,2.406948 -1.513648,0.893301 -3.622829,0.893301 -2.109182,0 -3.647643,-0.893301 -1.513648,-0.8933 -2.332507,-2.406948 -0.794045,-1.538462 -0.868487,-3.424318 -0.02481,-0.744417 -0.02481,-2.208437 0,-1.46402 0.02481,-2.208437 0.04963,-1.885857 0.843673,-3.3995047 0.818859,-1.5384618 2.357321,-2.4317622 1.538461,-0.8933004 3.647643,-0.8933004 z m 0,2.233251 q -1.985112,0 -3.200993,1.1662533 -1.215881,1.166253 -1.290323,3.449132 -0.02481,0.744417 -0.02481,2.084368 0,1.33995 0.02481,2.084367 0.07444,2.282879 1.290323,3.449132 1.215881,1.166254 3.200993,1.166254 1.985112,0 3.200993,-1.166254 1.215881,-1.166253 1.290323,-3.449132 0.04963,-1.488834 0.04963,-2.084367 0,-0.595534 -0.04963,-2.084368 -0.07444,-2.282879 -1.290323,-3.449132 -1.215881,-1.1662533 -3.200993,-1.1662533 z m 23.945435,8.6600513 q -0.02481,2.059553 -0.918115,3.598015 -0.8933,1.513648 -2.456576,2.332507 -1.563275,0.794045 -3.598015,0.794045 h -5.831267 q -0.272953,0 -0.471464,-0.198512 -0.198511,-0.198511 -0.198511,-0.471464 V 6.966034 q 0,-0.2729529 0.198511,-0.4714641 0.198511,-0.1985112 0.471464,-0.1985112 h 5.682383 q 2.059554,0 3.647644,0.8188587 1.612903,0.7940448 2.531017,2.3325066 0.918115,1.513648 0.942929,3.573202 0.02481,0.744417 0.02481,1.960298 0,1.215881 -0.02481,1.960298 z M 75.250219,8.5293097 V 21.432538 h 4.019852 q 2.48139,0 3.573202,-1.290323 1.116625,-1.290323 1.166253,-3.325063 0.02481,-0.744417 0.02481,-1.836228 0,-1.091812 -0.02481,-1.836229 -0.04963,-2.009926 -1.215881,-3.3002486 -1.166253,-1.3151367 -3.647643,-1.3151367 z m 16.699749,11.2158823 -1.290323,3.300249 q -0.223325,0.620348 -0.967742,0.620348 h -0.918115 q -0.223325,0 -0.397022,-0.148884 -0.148883,-0.173697 -0.148883,-0.397022 0,-0.12407 0.09925,-0.347395 L 94.406544,7.1149174 q 0.32258,-0.8188587 1.116625,-0.8188587 h 1.488834 q 0.794045,0 1.116626,0.8188587 l 6.054591,15.6575706 q 0.0993,0.223325 0.0993,0.347395 0,0.223325 -0.1737,0.397022 -0.14888,0.148884 -0.37221,0.148884 h -0.91811 q -0.74442,0 -0.96775,-0.620348 l -1.29032,-3.300249 z M 99.691904,17.511941 96.267586,8.6533792 92.818454,17.511941 Z M 106.83831,6.966034 q 0,-0.2729529 0.19852,-0.4714641 0.19851,-0.1985112 0.47146,-0.1985112 h 6.65012 q 1.9603,0 3.17618,0.7692309 1.21589,0.744417 1.73698,1.8114147 0.52109,1.0669977 0.52109,2.0843677 0,1.389578 -0.66998,2.258065 -0.66997,0.843672 -1.31513,1.240695 1.04218,0.694789 1.68734,1.786601 0.66998,1.066997 0.66998,2.382134 0,1.290323 -0.64516,2.456576 -0.62035,1.141439 -1.86105,1.861043 -1.24069,0.719603 -2.95285,0.719603 h -6.99752 q -0.27295,0 -0.47146,-0.198512 -0.19852,-0.198511 -0.19852,-0.471464 z m 2.35732,6.575683 h 4.71465 q 1.63771,0 2.48139,-0.645161 0.84367,-0.645161 0.84367,-1.861042 0,-1.2158815 -0.84367,-1.8610429 -0.84368,-0.6451614 -2.48139,-0.6451614 h -4.71465 z m 0,7.890821 h 5.06204 q 1.58809,0 2.45658,-0.794045 0.8933,-0.818859 0.8933,-2.009926 0,-1.215881 -0.84368,-2.03474 -0.84367,-0.818859 -2.5062,-0.818859 h -5.06204 z M 129.59265,6.0479197 q 2.10919,0 3.64765,0.8933004 1.53846,0.8933004 2.3325,2.4317622 0.81886,1.5136477 0.86849,3.3995047 0.0496,1.488834 0.0496,2.208437 0,0.719603 -0.0496,2.208437 -0.0744,1.885856 -0.8933,3.424318 -0.79404,1.513648 -2.33251,2.406948 -1.51364,0.893301 -3.62283,0.893301 -2.10918,0 -3.64764,-0.893301 -1.51365,-0.8933 -2.33251,-2.406948 -0.79404,-1.538462 -0.86848,-3.424318 -0.0248,-0.744417 -0.0248,-2.208437 0,-1.46402 0.0248,-2.208437 0.0496,-1.885857 0.84367,-3.3995047 0.81886,-1.5384618 2.35732,-2.4317622 1.53846,-0.8933004 3.64764,-0.8933004 z m 0,2.233251 q -1.98511,0 -3.20099,1.1662533 -1.21588,1.166253 -1.29032,3.449132 -0.0248,0.744417 -0.0248,2.084368 0,1.33995 0.0248,2.084367 0.0744,2.282879 1.29032,3.449132 1.21588,1.166254 3.20099,1.166254 1.98512,0 3.201,-1.166254 1.21588,-1.166253 1.29032,-3.449132 0.0496,-1.488834 0.0496,-2.084367 0,-0.595534 -0.0496,-2.084368 -0.0744,-2.282879 -1.29032,-3.449132 -1.21588,-1.1662533 -3.201,-1.1662533 z m 11.53849,14.8138983 q -0.19851,0.272953 -0.39702,0.421836 -0.19851,0.148884 -0.62035,0.148884 h -1.067 q -0.22332,0 -0.39702,-0.148884 -0.14888,-0.173697 -0.14888,-0.397022 0,-0.148884 0.0744,-0.272953 l 5.85608,-8.039704 -5.60794,-7.6923086 q -0.0744,-0.1488834 -0.0744,-0.2729529 0,-0.2233251 0.14888,-0.3722085 0.1737,-0.1736973 0.39702,-0.1736973 h 1.16626 q 0.42183,0 0.62034,0.1736973 0.22333,0.1736973 0.42184,0.4466502 l 4.41687,6.0545918 4.31762,-6.0297779 q 0.19851,-0.2729529 0.39703,-0.4466502 0.22332,-0.1985112 0.64516,-0.1985112 h 1.06699 q 0.22333,0 0.37221,0.1736973 0.1737,0.1488834 0.1737,0.3722085 0,0.1240695 -0.0744,0.2729529 l -5.5335,7.7419366 5.83127,7.990076 q 0.0744,0.124069 0.0744,0.272953 0,0.223325 -0.1737,0.397022 -0.14888,0.148884 -0.37221,0.148884 h -1.16625 q -0.42184,0 -0.62035,-0.148884 -0.19851,-0.148883 -0.39702,-0.421836 l -4.66501,-6.401986 z"
     id="text1"
     style="font-size:24.8139px;font-family:Rubik;-inkscape-font-specification:Rubik;fill:#a5ce3a;stroke-width:3.72208"
     transform="scale(0.93051855,1.0746696)"
     aria-label="SODABOX" />
</svg>
