<?xml version="1.0" encoding="UTF-8" standalone="no"?>
<svg
   width="32"
   height="32"
   viewBox="0 0 32 32"
   fill="none"
   version="1.1"
   id="svg25"
   xmlns="http://www.w3.org/2000/svg"
   xmlns:svg="http://www.w3.org/2000/svg">
  <defs
     id="defs25" />
  <g
     id="g25"
     transform="rotate(32.468591,14.437892,22.605541)"
     style="fill:#a5ce3a;fill-opacity:1">
    <path
       d="m 8.58044,20.2453 7.49336,4.3096 v 1.5142 c 0,0.2718 -0.0777,0.5436 -0.1942,0.7765 -0.1164,0.233 -0.3106,0.4271 -0.5823,0.5436 -0.233,0.1165 -0.5048,0.1941 -0.7766,0.1941 -0.2717,0 -0.5435,-0.0776 -0.7765,-0.1941 L 5.3191,22.4972 C 4.62024,22.1089 4.03786,21.5265 3.6496,20.8277 3.26134,20.1288 3.02839,19.3523 3.02839,18.537 V 9.37414 c 0,-0.27178 0.07765,-0.54356 0.19413,-0.77651 C 3.339,8.36467 3.53312,8.17055 3.76608,8.01524 3.99903,7.85994 4.27081,7.82112 4.54259,7.82112 c 0.27178,0 0.54355,0.07765 0.77651,0.19412 L 6.25091,8.5588 v 7.6875 c 0,0.8153 0.23295,1.5918 0.62121,2.2907 0.38825,0.6988 0.97064,1.2812 1.6695,1.6695 z M 16.8115,11.1601 6.87212,5.41393 C 6.17326,5.02568 5.39675,4.79272 4.58141,4.79272 3.76608,4.79272 2.98957,4.98685 2.29071,5.41393 1.59185,5.80219 1.00946,6.38457 0.621209,7.08343 0.232953,7.78229 0,8.59763 0,9.37414 V 18.537 c 0,1.3589 0.34943,2.6789 1.00946,3.8437 0.66004,1.1648 1.63068,2.1354 2.79544,2.7954 l 8.4251,4.892 c 0.6989,0.3883 1.4754,0.6213 2.2907,0.6213 0.8154,0 1.5919,-0.233 2.2908,-0.6213 0.6988,-0.3882 1.2812,-1.0094 1.6695,-1.6695 0.3882,-0.6988 0.6212,-1.5141 0.6212,-2.2907 v -2.3683 c 0,-0.2718 -0.0777,-0.5436 -0.233,-0.7765 -0.1553,-0.233 -0.3494,-0.4271 -0.5824,-0.5824 L 10.0946,17.644 C 9.86168,17.5275 9.66756,17.3334 9.55108,17.0616 9.4346,16.8286 9.35695,16.5569 9.35695,16.2851 v -5.9015 l 5.94035,3.4555 c 0.2329,0.1164 0.427,0.3106 0.5823,0.5435 0.1165,0.233 0.1942,0.5048 0.233,0.7765 v 2.8731 c 0,0.1942 0,0.4271 0.0776,0.6212 0.0777,0.1942 0.1942,0.3883 0.3107,0.5048 0.1164,0.1164 0.3106,0.2717 0.5047,0.3494 0.1941,0.0777 0.3882,0.1165 0.6212,0.1165 0.2329,0 0.4271,-0.0388 0.6212,-0.1165 0.1941,-0.0777 0.3494,-0.1941 0.5047,-0.3494 0.1553,-0.1553 0.2718,-0.3106 0.3106,-0.5048 0.0777,-0.1941 0.1165,-0.3882 0.0777,-0.6212 v -2.8731 c 0,-0.8153 -0.233,-1.5918 -0.6212,-2.2907 -0.3883,-0.6988 -0.9707,-1.2812 -1.7083,-1.6695 z"
       fill="#0d52ff"
       id="path23"
       style="fill:#a5ce3a;fill-opacity:1" />
    <path
       d="M 21.587,6.19047 13.1619,1.29845 C 12.463,0.871374 11.6865,0.677246 10.8712,0.677246 c -0.8154,0 -1.59189,0.232953 -2.29075,0.621204 -0.27178,0.15531 -0.54356,0.34943 -0.77651,0.58239 0.42708,0.1553 0.81534,0.34943 1.20359,0.54355 l 2.64017,1.55303 8.4251,4.85319 c 0.6989,0.38825 1.2812,0.97064 1.6695,1.66949 0.3883,0.6989 0.6212,1.4754 0.6212,2.2907 v 1.0871 c 0,0.3883 0.1941,0.7765 0.4659,1.0483 0.2718,0.2718 0.6601,0.4271 1.0483,0.4271 0.3883,0 0.7765,-0.1553 1.0483,-0.4271 0.2718,-0.2718 0.4659,-0.66 0.4659,-1.0483 v -1.0871 c 0,-1.3589 -0.3494,-2.6789 -1.0483,-3.84372 -0.66,-1.16476 -1.6307,-2.1354 -2.7954,-2.79543 z"
       fill="#0d52ff"
       id="path24"
       style="fill:#a5ce3a;fill-opacity:1" />
    <path
       d="m 23.8777,18.3041 c -0.1941,0 -0.3882,0 -0.5824,0.1165 -0.1941,0.1164 -0.3494,0.1941 -0.5047,0.3494 -0.1553,0.1553 -0.2718,0.3106 -0.3106,0.5047 -0.0777,0.1941 -0.1165,0.3883 -0.1165,0.5824 v 5.2026 c 0,0.4271 -0.0388,0.893 -0.1165,1.3201 0.3106,-0.1165 0.6212,-0.233 0.893,-0.3883 0.6989,-0.3882 1.2813,-0.9706 1.6695,-1.6695 0.3883,-0.6988 0.6212,-1.4753 0.6212,-2.2907 v -2.1742 c 0,-0.3883 -0.1553,-0.7765 -0.4659,-1.0871 -0.2718,-0.2718 -0.6988,-0.4659 -1.0871,-0.4659 z"
       fill="#0d52ff"
       id="path25"
       style="fill:#a5ce3a;fill-opacity:1" />
  </g>
</svg>
