<?xml version="1.0" encoding="UTF-8" standalone="no"?>
<svg
   fill="#ffffff"
   width="840"
   height="840"
   viewBox="-0.5 0 25.2 25.2"
   stroke="#ffffff"
   version="1.1"
   id="svg1"
   xmlns="http://www.w3.org/2000/svg"
   xmlns:svg="http://www.w3.org/2000/svg">
  <defs
     id="defs1" />
  <g
     id="SVGRepo_bgCarrier"
     stroke-width="0" />
  <g
     id="SVGRepo_tracerCarrier"
     stroke-linecap="round"
     stroke-linejoin="round" />
  <g
     id="SVGRepo_iconCarrier"
     transform="translate(0.86956522,0.5396419)">
    <path
       d="M 23.314,8.518 V 0.686 l -2.84,2.84 C 18.302,1.35 15.299,0.004 11.981,0.004 c -6.627,0 -12,5.373 -12,12 0,6.627 5.373,12 12,12 4.424,0 8.289,-2.394 10.37,-5.958 l 0.031,-0.057 -2.662,-1.536 c -1.57,2.695 -4.447,4.478 -7.739,4.478 -4.93,0 -8.927,-3.997 -8.927,-8.927 0,-4.93 3.997,-8.927 8.927,-8.927 2.469,0 4.704,1.002 6.32,2.622 l -2.82,2.82 h 7.834 z"
       id="path1" />
  </g>
</svg>
