<?xml version="1.0" encoding="UTF-8"?>
<!DOCTYPE svg PUBLIC "-//W3C//DTD SVG 1.1//EN" "http://www.w3.org/Graphics/SVG/1.1/DTD/svg11.dtd">
<svg xmlns="http://www.w3.org/2000/svg" version="1.1" width="24px" height="24px" style="shape-rendering:geometricPrecision; text-rendering:geometricPrecision; image-rendering:optimizeQuality; fill-rule:evenodd; clip-rule:evenodd" xmlns:xlink="http://www.w3.org/1999/xlink">
<g><path style="opacity:0.777" fill="#fefefe" d="M 4.5,-0.5 C 5.5,-0.5 6.5,-0.5 7.5,-0.5C 10.1667,0.833333 12.8333,0.833333 15.5,-0.5C 16.5,-0.5 17.5,-0.5 18.5,-0.5C 20.0276,0.309209 21.6943,0.975875 23.5,1.5C 23.5,8.83333 23.5,16.1667 23.5,23.5C 15.5,23.5 7.5,23.5 -0.5,23.5C -0.5,16.1667 -0.5,8.83333 -0.5,1.5C 1.3057,0.975875 2.97237,0.309209 4.5,-0.5 Z M 1.5,8.5 C 8.16667,8.5 14.8333,8.5 21.5,8.5C 21.6655,12.5138 21.4988,16.5138 21,20.5C 14.8888,21.8087 8.72214,21.8087 2.5,20.5C 1.56716,16.5705 1.23383,12.5705 1.5,8.5 Z"/></g>
<g><path style="opacity:0.57" fill="#fefefe" d="M 13.5,9.5 C 14.9778,9.23798 16.3112,9.57131 17.5,10.5C 15.6465,14.2208 13.3131,17.5541 10.5,20.5C 8.5,19.1667 6.83333,17.5 5.5,15.5C 7.00638,14.2528 8.50638,14.2528 10,15.5C 11.4424,13.6089 12.6091,11.6089 13.5,9.5 Z"/></g>
</svg>
