<?xml version="1.0" encoding="UTF-8" standalone="no"?>
<svg
   width="200"
   height="200"
   viewBox="0 0 12 12"
   fill="none"
   version="1.1"
   id="svg5"
   xmlns="http://www.w3.org/2000/svg"
   xmlns:svg="http://www.w3.org/2000/svg">
  <defs
     id="defs5" />
  <g
     id="SVGRepo_bgCarrier"
     stroke-width="0" />
  <g
     id="SVGRepo_tracerCarrier"
     stroke-linecap="round"
     stroke-linejoin="round" />
  <g
     id="SVGRepo_iconCarrier"
     transform="matrix(0.26257459,0,0,0.26257459,-0.24552459,-0.36828586)">
    <rect
       width="48"
       height="48"
       fill="#ffffff"
       fill-opacity="0.01"
       id="rect1"
       x="0"
       y="0" />
    <path
       d="M 42,42 39.7143,37 M 26,42 28.2857,37 m 0,0 L 34,24 39.7143,37 m -11.4286,0 h 11.4286"
       stroke="#a5ce3a"
       stroke-width="4"
       stroke-linecap="round"
       stroke-linejoin="round"
       id="path1" />
    <path
       d="m 16,6 1,3"
       stroke="#a5ce3a"
       stroke-width="4"
       stroke-linecap="round"
       stroke-linejoin="round"
       id="path2" />
    <path
       d="M 6,11 H 28"
       stroke="#a5ce3a"
       stroke-width="4"
       stroke-linecap="round"
       stroke-linejoin="round"
       id="path3" />
    <path
       d="m 10,16 c 0,0 1.7895,6.2609 6.2632,9.7391 C 20.7368,29.2174 28,32 28,32"
       stroke="#a5ce3a"
       stroke-width="4"
       stroke-linecap="round"
       stroke-linejoin="round"
       id="path4" />
    <path
       d="m 24,11 c 0,0 -1.7895,8.2174 -6.2632,12.7826 C 13.2632,28.3478 6,32 6,32"
       stroke="#a5ce3a"
       stroke-width="4"
       stroke-linecap="round"
       stroke-linejoin="round"
       id="path5" />
  </g>
</svg>
