<?xml version="1.0" encoding="UTF-8"?>
<!DOCTYPE svg PUBLIC "-//W3C//DTD SVG 1.1//EN" "http://www.w3.org/Graphics/SVG/1.1/DTD/svg11.dtd">
<svg xmlns="http://www.w3.org/2000/svg" version="1.1" width="24px" height="24px" style="shape-rendering:geometricPrecision; text-rendering:geometricPrecision; image-rendering:optimizeQuality; fill-rule:evenodd; clip-rule:evenodd" xmlns:xlink="http://www.w3.org/1999/xlink">
<g><path style="opacity:0.838" fill="#fefefe" d="M 2.5,-0.5 C 5.16667,-0.5 7.83333,-0.5 10.5,-0.5C 12.3531,2.20835 13.3531,5.20835 13.5,8.5C 16.8333,8.5 20.1667,8.5 23.5,8.5C 23.5,13.5 23.5,18.5 23.5,23.5C 17.5,23.5 11.5,23.5 5.5,23.5C 4.39322,18.9185 4.22656,14.2519 5,9.5C 10.2918,8.26392 10.6252,5.93058 6,2.5C 3.05612,4.37233 1.88945,7.03899 2.5,10.5C 1.5,10.5 0.5,10.5 -0.5,10.5C -0.5,7.83333 -0.5,5.16667 -0.5,2.5C 0.5,1.5 1.5,0.5 2.5,-0.5 Z M 13.5,14.5 C 14.2389,14.369 14.9056,14.5357 15.5,15C 14.1177,19.7055 13.4511,19.5388 13.5,14.5 Z"/></g>
</svg>
