<?xml version="1.0" encoding="UTF-8"?>
<!DOCTYPE svg PUBLIC "-//W3C//DTD SVG 1.1//EN" "http://www.w3.org/Graphics/SVG/1.1/DTD/svg11.dtd">
<svg xmlns="http://www.w3.org/2000/svg" version="1.1" width="24px" height="24px" style="shape-rendering:geometricPrecision; text-rendering:geometricPrecision; image-rendering:optimizeQuality; fill-rule:evenodd; clip-rule:evenodd" xmlns:xlink="http://www.w3.org/1999/xlink">
<g><path style="opacity:0.592" fill="#fefefe" d="M 23.5,19.5 C 23.5,20.5 23.5,21.5 23.5,22.5C 15.5,22.5 7.5,22.5 -0.5,22.5C -0.5,21.5 -0.5,20.5 -0.5,19.5C 3.72528,13.3999 7.72528,7.06654 11.5,0.5C 15.2747,7.06654 19.2747,13.3999 23.5,19.5 Z M 8.5,11.5 C 9.46822,13.6074 9.80155,15.9407 9.5,18.5C 8.02218,18.762 6.68884,18.4287 5.5,17.5C 7.03834,15.7567 8.03834,13.7567 8.5,11.5 Z M 13.5,11.5 C 14.81,13.4346 16.1433,15.4346 17.5,17.5C 16.3112,18.4287 14.9778,18.762 13.5,18.5C 13.5,16.1667 13.5,13.8333 13.5,11.5 Z"/></g>
</svg>
