<?xml version="1.0" encoding="UTF-8"?>
<!DOCTYPE svg PUBLIC "-//W3C//DTD SVG 1.1//EN" "http://www.w3.org/Graphics/SVG/1.1/DTD/svg11.dtd">
<svg xmlns="http://www.w3.org/2000/svg" version="1.1" width="24px" height="24px" style="shape-rendering:geometricPrecision; text-rendering:geometricPrecision; image-rendering:optimizeQuality; fill-rule:evenodd; clip-rule:evenodd" xmlns:xlink="http://www.w3.org/1999/xlink">
<g><path style="opacity:0.807" fill="#fefefe" d="M 6.5,-0.5 C 9.83333,-0.5 13.1667,-0.5 16.5,-0.5C 19.1667,1.5 21.5,3.83333 23.5,6.5C 23.5,10.1667 23.5,13.8333 23.5,17.5C 21.1415,19.5293 18.8082,21.5293 16.5,23.5C 13.1667,23.5 9.83333,23.5 6.5,23.5C 3.83333,21.5 1.5,19.1667 -0.5,16.5C -0.5,13.1667 -0.5,9.83333 -0.5,6.5C 1.5,3.83333 3.83333,1.5 6.5,-0.5 Z M 6.5,6.5 C 8.43577,7.259 10.2691,8.259 12,9.5C 18.4926,5.33263 18.9926,5.99929 13.5,11.5C 18.5,17.8333 17.8333,18.5 11.5,13.5C 5.99929,18.9926 5.33263,18.4926 9.5,12C 8.259,10.2691 7.259,8.43577 6.5,6.5 Z"/></g>
</svg>
